<svg width="13" height="14" viewBox="0 0 13 14" fill="none" xmlns="http://www.w3.org/2000/svg">
  <path d="M7.29563 0.41991L11.5454 6.90878C12.8072 8.83547 12.2664 11.4293 10.3397 12.6911C8.41302 13.953 5.81923 13.4121 4.55738 11.4854L0.634523 5.49572C-0.267734 4.11808 0.118082 2.26773 1.49572 1.36548C2.87336 0.46322 4.72371 0.849035 5.62596 2.22667L9.54882 8.2164C10.0882 9.03998 9.85569 10.1551 9.0321 10.6945C8.20851 11.2339 7.09335 11.0014 6.55395 10.1778L2.958 4.68724C2.77821 4.41271 2.85571 4.04099 3.13024 3.8612C3.40477 3.6814 3.77649 3.75891 3.95629 4.03343L7.55224 9.52402C7.73204 9.79854 8.10376 9.87605 8.37829 9.69626C8.65282 9.51646 8.73033 9.14474 8.55053 8.87021L4.62767 2.88048C4.08828 2.05689 2.97312 1.82437 2.14953 2.36376C1.32594 2.90316 1.09342 4.01832 1.63281 4.84191L5.55567 10.8316C6.45792 12.2093 8.30827 12.5951 9.68591 11.6928C11.0635 10.7906 11.4494 8.94022 10.5471 7.56259L6.29734 1.07372C6.11755 0.79919 6.19506 0.427468 6.46958 0.247671C6.74411 0.0678734 7.11584 0.145381 7.29563 0.41991Z" fill="#FFF" />
</svg>