<svg width="16" height="16" viewBox="0 0 16 16" fill="none" xmlns="http://www.w3.org/2000/svg">
<path d="M16 4.6875V15.0625H11.2322C9.92203 15.0625 9.233 15.9509 9.16281 16H6.83719C6.766 15.9502 6.08681 15.0625 4.76781 15.0625H0V3.75H0.9375V14.125H4.77187C6.23694 14.125 7.05244 14.9516 7.25562 15.0625H8.74438C8.94747 14.9516 9.76319 14.125 11.2281 14.125H15.0625V4.6875H16Z" fill="#FFF"/>
<path d="M6.59156 13.5616C6.02219 13.3153 5.40625 13.1875 4.77187 13.1875H1.875V1.875H2.8125V11.3125H4.21875C5.49625 11.3125 6.54125 12.3128 6.59156 13.5616Z" fill="#FFF"/>
<path d="M11.2281 2.8125C10.2352 2.8125 9.27885 3.07262 8.43582 3.57003C8.4576 3.78297 8.46876 3.9995 8.46876 4.21875V14.1053C8.53154 14.0598 8.60332 14.0093 8.6851 13.9557C10.1325 12.9903 11.1298 13.1875 14.125 13.1875V2.8125H11.2281Z" fill="#FFF"/>
<path d="M7.53125 13.6562C7.53125 11.847 6.04528 10.375 4.21875 10.375H3.75V0C6.09347 0 7.53125 1.89253 7.53125 4.21875V13.6562Z" fill="#FFF"/>
</svg>
