<svg width="27" height="27" viewBox="0 0 27 27" fill="none" xmlns="http://www.w3.org/2000/svg">
<path d="M10.2394 9.97156H7.55469C7.32169 9.97156 7.13281 10.1604 7.13281 10.3934V13.0781C7.13281 13.3111 7.32169 13.5 7.55469 13.5H10.2394C10.4724 13.5 10.6613 13.3111 10.6613 13.0781V10.3934C10.6613 10.1604 10.4724 9.97156 10.2394 9.97156Z" fill="#2E4BC1"/>
<path d="M14.8429 9.97156H12.1582C11.9252 9.97156 11.7363 10.1604 11.7363 10.3934V13.0781C11.7363 13.3111 11.9252 13.5 12.1582 13.5H14.8429C15.0759 13.5 15.2648 13.3111 15.2648 13.0781V10.3934C15.2648 10.1604 15.0759 9.97156 14.8429 9.97156Z" fill="#2E4BC1"/>
<path d="M19.4445 9.97156H16.7598C16.5268 9.97156 16.3379 10.1604 16.3379 10.3934V13.0781C16.3379 13.3111 16.5268 13.5 16.7598 13.5H19.4445C19.6775 13.5 19.8663 13.3111 19.8663 13.0781V10.3934C19.8663 10.1604 19.6775 9.97156 19.4445 9.97156Z" fill="#2E4BC1"/>
<path d="M24.046 9.97156H21.3613C21.1283 9.97156 20.9395 10.1604 20.9395 10.3934V13.0781C20.9395 13.3111 21.1283 13.5 21.3613 13.5H24.046C24.279 13.5 24.4679 13.3111 24.4679 13.0781V10.3934C24.4679 10.1604 24.279 9.97156 24.046 9.97156Z" fill="#2E4BC1"/>
<path d="M5.63783 14.6122H2.95312C2.72013 14.6122 2.53125 14.8011 2.53125 15.0341V17.7188C2.53125 17.9518 2.72013 18.1406 2.95312 18.1406H5.63783C5.87083 18.1406 6.05971 17.9518 6.05971 17.7188V15.0341C6.05971 14.8011 5.87083 14.6122 5.63783 14.6122Z" fill="#2E4BC1"/>
<path d="M10.2394 14.6122H7.55469C7.32169 14.6122 7.13281 14.8011 7.13281 15.0341V17.7188C7.13281 17.9518 7.32169 18.1406 7.55469 18.1406H10.2394C10.4724 18.1406 10.6613 17.9518 10.6613 17.7188V15.0341C10.6613 14.8011 10.4724 14.6122 10.2394 14.6122Z" fill="#2E4BC1"/>
<path d="M14.8429 14.6122H12.1582C11.9252 14.6122 11.7363 14.8011 11.7363 15.0341V17.7188C11.7363 17.9518 11.9252 18.1406 12.1582 18.1406H14.8429C15.0759 18.1406 15.2648 17.9518 15.2648 17.7188V15.0341C15.2648 14.8011 15.0759 14.6122 14.8429 14.6122Z" fill="#2E4BC1"/>
<path d="M19.4445 14.6122H16.7598C16.5268 14.6122 16.3379 14.8011 16.3379 15.0341V17.7188C16.3379 17.9518 16.5268 18.1406 16.7598 18.1406H19.4445C19.6775 18.1406 19.8663 17.9518 19.8663 17.7188V15.0341C19.8663 14.8011 19.6775 14.6122 19.4445 14.6122Z" fill="#2E4BC1"/>
<path d="M24.046 14.6122H21.3613C21.1283 14.6122 20.9395 14.8011 20.9395 15.0341V17.7188C20.9395 17.9518 21.1283 18.1406 21.3613 18.1406H24.046C24.279 18.1406 24.4679 17.9518 24.4679 17.7188V15.0341C24.4679 14.8011 24.279 14.6122 24.046 14.6122Z" fill="#2E4BC1"/>
<path d="M5.63783 19.2528H2.95312C2.72013 19.2528 2.53125 19.4417 2.53125 19.6747V22.3594C2.53125 22.5924 2.72013 22.7813 2.95312 22.7813H5.63783C5.87083 22.7813 6.05971 22.5924 6.05971 22.3594V19.6747C6.05971 19.4417 5.87083 19.2528 5.63783 19.2528Z" fill="#2E4BC1"/>
<path d="M10.2394 19.2528H7.55469C7.32169 19.2528 7.13281 19.4417 7.13281 19.6747V22.3594C7.13281 22.5924 7.32169 22.7813 7.55469 22.7813H10.2394C10.4724 22.7813 10.6613 22.5924 10.6613 22.3594V19.6747C10.6613 19.4417 10.4724 19.2528 10.2394 19.2528Z" fill="#2E4BC1"/>
<path d="M14.8429 19.2528H12.1582C11.9252 19.2528 11.7363 19.4417 11.7363 19.6747V22.3594C11.7363 22.5924 11.9252 22.7813 12.1582 22.7813H14.8429C15.0759 22.7813 15.2648 22.5924 15.2648 22.3594V19.6747C15.2648 19.4417 15.0759 19.2528 14.8429 19.2528Z" fill="#2E4BC1"/>
<path d="M23.2031 2.95317H20.4609V2.36255C20.4783 1.54727 19.7612 0.826922 18.9464 0.843797C18.5437 0.844215 18.1577 1.00436 17.873 1.28909C17.5882 1.57382 17.4281 1.95988 17.4277 2.36255V2.95317H9.57023V2.36255C9.58764 1.54727 8.87045 0.826922 8.0557 0.843797C7.6534 0.844773 7.26788 1.00516 6.98361 1.28983C6.69934 1.5745 6.53948 1.96024 6.53906 2.36255V2.95317H3.79688C3.01391 2.95401 2.26326 3.26541 1.70963 3.81905C1.15599 4.37268 0.844588 5.12334 0.84375 5.9063V24.0158C0.844448 24.5833 1.07019 25.1273 1.47146 25.5286C1.87272 25.9299 2.41676 26.1556 2.98424 26.1563H24.0158C24.5832 26.1556 25.1273 25.9299 25.5285 25.5286C25.9298 25.1273 26.1556 24.5833 26.1562 24.0158V5.9063C26.1554 5.12334 25.844 4.37268 25.2904 3.81905C24.7367 3.26541 23.9861 2.95401 23.2031 2.95317ZM18.9464 6.20161C19.272 6.19998 19.5884 6.09341 19.8486 5.89771C20.1088 5.70201 20.2989 5.42763 20.3908 5.11528H20.4525C20.6085 5.11542 20.7582 5.17747 20.8685 5.28781C20.9788 5.39814 21.0409 5.54776 21.041 5.7038V6.04551C21.0414 6.20156 20.9799 6.35139 20.87 6.46212C20.76 6.57286 20.6107 6.63544 20.4546 6.63614H17.4382C17.2822 6.63544 17.1328 6.57286 17.0228 6.46212C16.9129 6.35139 16.8514 6.20156 16.8518 6.04551V5.7038C16.8519 5.54848 16.9134 5.39951 17.0228 5.28929C17.1323 5.17907 17.2808 5.11653 17.4361 5.11528H17.4973C17.5901 5.42796 17.7812 5.70244 18.0422 5.89809C18.3032 6.09373 18.6202 6.20016 18.9464 6.20161ZM9.50221 5.11528H9.56391C9.71995 5.11598 9.86934 5.17856 9.97928 5.2893C10.0892 5.40003 10.1507 5.54986 10.1503 5.70591V6.04762C10.1507 6.20367 10.0892 6.3535 9.97928 6.46423C9.86934 6.57497 9.71995 6.63755 9.56391 6.63825H6.5475C6.46988 6.63818 6.39304 6.62277 6.32139 6.59291C6.24974 6.56304 6.1847 6.51931 6.13001 6.46423C6.07532 6.40915 6.03206 6.3438 6.00271 6.27194C5.97336 6.20009 5.9585 6.12313 5.95898 6.04551V5.7038C5.95912 5.54776 6.02117 5.39814 6.13151 5.28781C6.24185 5.17747 6.39146 5.11542 6.5475 5.11528H6.60867C6.69906 5.42916 6.88908 5.70513 7.15005 5.90155C7.41103 6.09798 7.72881 6.2042 8.05544 6.2042C8.38207 6.2042 8.69985 6.09798 8.96082 5.90155C9.2218 5.70513 9.41182 5.42916 9.50221 5.11528ZM25.3125 19.9785L21.9707 19.9489C21.9152 19.9478 21.86 19.958 21.8085 19.9789C21.757 19.9997 21.7103 20.0308 21.6712 20.0702C21.5915 20.1486 21.5462 20.2554 21.5452 20.3671L21.5188 23.6229L1.6875 23.5945V9.01024H25.3125V19.9785ZM22.3673 23.0487L22.3857 20.7964L24.6945 20.8169L22.3673 23.0487ZM18.2714 2.36255C18.2714 2.27418 18.2888 2.18668 18.3226 2.10504C18.3564 2.0234 18.406 1.94922 18.4685 1.88674C18.531 1.82426 18.6052 1.77469 18.6868 1.74088C18.7684 1.70706 18.8559 1.68966 18.9443 1.68966C19.0327 1.68966 19.1202 1.70706 19.2018 1.74088C19.2834 1.77469 19.3576 1.82426 19.4201 1.88674C19.4826 1.94922 19.5322 2.0234 19.566 2.10504C19.5998 2.18668 19.6172 2.27418 19.6172 2.36255V4.68866C19.6172 4.86712 19.5463 5.03827 19.4201 5.16446C19.2939 5.29066 19.1228 5.36155 18.9443 5.36155C18.7658 5.36155 18.5947 5.29066 18.4685 5.16446C18.3423 5.03827 18.2714 4.86712 18.2714 4.68866V2.36255ZM7.38281 2.36255C7.38281 2.18408 7.45371 2.01293 7.5799 1.88674C7.70609 1.76055 7.87724 1.68966 8.0557 1.68966C8.23416 1.68966 8.40532 1.76055 8.53151 1.88674C8.6577 2.01293 8.72859 2.18408 8.72859 2.36255V4.68866C8.72891 4.77702 8.71181 4.86459 8.67828 4.94634C8.64475 5.0281 8.59545 5.10246 8.53319 5.16516C8.47092 5.22786 8.39692 5.27769 8.3154 5.31179C8.23388 5.3459 8.14644 5.36361 8.05808 5.36392C7.96971 5.36423 7.88215 5.34714 7.80039 5.31361C7.71863 5.28008 7.64428 5.23078 7.58158 5.16852C7.45494 5.04277 7.38344 4.87187 7.38281 4.69341V2.36255Z" fill="#2E4BC1"/>
</svg>
