<svg width="18" height="17" viewBox="0 0 18 17" fill="none" xmlns="http://www.w3.org/2000/svg">
<path d="M8.62232 5.66674C8.62232 2.53726 7.17347 0 5.38929 0C3.60442 0 2.15625 2.53726 2.15625 5.66674C2.15625 7.02865 3.02702 8.18254 4.24564 8.63833L3.95231 15.5833C3.95231 16.3657 4.59568 17 5.38929 17C6.18289 17 6.82626 16.3657 6.82626 15.5833L6.53293 8.63896C7.75243 8.18254 8.62232 7.02865 8.62232 5.66674Z" fill="#FDCE64"/>
<path d="M15.0876 5.13549L14.9081 0H14.0099L13.8304 5.13549H13.1118L12.9323 0H11.8546L11.675 5.13549H10.9564L10.7769 0H9.87876L9.69922 5.13549C9.69922 6.21583 10.356 7.14129 11.2961 7.55649L10.9564 15.5833C10.9564 16.3657 11.5998 17 12.3934 17C13.187 17 13.8304 16.3657 13.8304 15.5833L13.4907 7.55649C14.4309 7.14129 15.0876 6.21583 15.0876 5.13549Z" fill="#FDCE64"/>
</svg>
