<svg width="22" height="22" viewBox="0 0 22 22" fill="none" xmlns="http://www.w3.org/2000/svg">
  <path d="M10.1178 2.17676H8.35304C3.94128 2.17676 2.17657 3.94146 2.17657 8.35323V13.6473C2.17657 18.0591 3.94128 19.8238 8.35304 19.8238H13.6472C18.0589 19.8238 19.8236 18.0591 19.8236 13.6473V11.8826" stroke="#DDD" stroke-width="1.5" stroke-linecap="round" stroke-linejoin="round" />
  <path d="M14.5648 3.07675L7.61187 10.0297C7.34716 10.2944 7.08246 10.815 7.02952 11.1944L6.65011 13.8503C6.50893 14.812 7.18834 15.4826 8.15011 15.3503L10.806 14.9709C11.1766 14.9179 11.6972 14.6532 11.9707 14.3885L18.9236 7.43557C20.1236 6.23557 20.6883 4.84146 18.9236 3.07675C17.1589 1.31205 15.7648 1.87675 14.5648 3.07675Z" stroke="#DDD" stroke-width="1.5" stroke-miterlimit="10" stroke-linecap="round" stroke-linejoin="round" />
  <path d="M13.5677 4.07373C14.1589 6.18255 15.8089 7.83255 17.9266 8.43255" stroke="#DDD" stroke-width="1.5" stroke-miterlimit="10" stroke-linecap="round" stroke-linejoin="round" />
</svg>