<svg width="25" height="25" viewBox="0 0 25 25" fill="none" xmlns="http://www.w3.org/2000/svg">
<path d="M17.0469 14.774C17.0469 15.1687 16.7719 15.501 16.4573 15.676L14.8281 16.5823L15.551 18.5542C15.6906 18.9365 15.5646 19.3646 15.2396 19.6094C14.9073 19.8594 14.449 19.8563 14.1198 19.6021L12.499 18.349L10.8781 19.6021C10.549 19.8563 10.0906 19.8594 9.75833 19.6094C9.43333 19.3646 9.30729 18.9365 9.44687 18.5542L10.1698 16.5823L8.54062 15.676C8.22604 15.501 7.95104 15.1687 7.95104 14.774C7.95104 14.4396 8.24167 14.0698 8.7125 14.0698H11.0531L11.674 11.6917C11.7719 11.3146 12.1104 11.0521 12.499 11.0448C12.8875 11.0521 13.226 11.3146 13.324 11.6917L13.9448 14.0698H16.2854C16.7562 14.0698 17.0469 14.4385 17.0469 14.774ZM19.2708 2.08333H18.75V1.5625C18.75 0.698958 18.051 0 17.1875 0C16.324 0 15.625 0.698958 15.625 1.5625V2.08333H9.375V1.5625C9.375 0.698958 8.67604 0 7.8125 0C6.94896 0 6.25 0.698958 6.25 1.5625V2.08333H5.72917C2.56979 2.08333 0 4.65312 0 7.8125V19.2708C0 22.4302 2.56979 25 5.72917 25H19.2708C22.4302 25 25 22.4302 25 19.2708V7.8125C25 4.65312 22.4302 2.08333 19.2708 2.08333ZM19.2708 21.875H5.72917C4.29375 21.875 3.125 20.7062 3.125 19.2708V9.375H21.875V19.2708C21.875 20.7062 20.7062 21.875 19.2708 21.875Z" fill="#EE4F4E"/>
</svg>
