<svg width="25" height="23" viewBox="0 0 25 23" fill="none" xmlns="http://www.w3.org/2000/svg">
<path d="M24.3127 12.5045H15.6483C15.2696 12.5045 14.9609 12.8132 14.9609 13.1918C14.9609 13.3846 15.0429 13.5583 15.1707 13.6836L21.2717 19.7847C21.397 19.9197 21.5781 20.0042 21.7758 20.0042C22.0145 20.0042 22.2243 19.8836 22.3473 19.7003C23.8473 17.9592 24.8119 15.7479 24.9856 13.3147C24.9952 13.2737 25 13.2327 25 13.1917C25.0001 12.8132 24.6937 12.5045 24.3127 12.5045Z" fill="#38A9E7"/>
<path d="M13.0325 0.0491943C12.6539 0.0515094 12.3477 0.357865 12.3477 0.736449V10.3655C12.3477 10.7466 12.6539 11.0552 13.0325 11.0552H22.664C23.0427 11.0552 23.3513 10.7466 23.3513 10.3655C23.0112 4.82402 18.5765 0.389272 13.0325 0.0491943Z" fill="#38A9E7"/>
<path d="M18.3249 19.2228L11.2207 12.1186C11.1002 11.9956 11.0279 11.8243 11.0279 11.6387L11.0253 1.60442C11.0253 1.22583 10.7191 0.919556 10.3405 0.919556C4.56979 1.27167 0 6.06563 0 11.9233C0 18.0123 4.93641 22.951 11.0253 22.951C13.8034 22.951 16.3402 21.9237 18.2791 20.2284C18.4286 20.1029 18.5227 19.9149 18.5227 19.7051C18.5227 19.5193 18.4479 19.3481 18.3249 19.2228Z" fill="#38A9E7"/>
</svg>
