<svg width="16" height="16" viewBox="0 0 16 16" fill="none" xmlns="http://www.w3.org/2000/svg">
  <g clip-path="url(#clip0_873_1913)">
    <path d="M11.3334 3.3334C11.0474 3.3334 10.7828 3.1474 10.6954 2.8594C10.4468 2.03673 9.95475 1.5434 9.14675 1.30673C8.79342 1.2034 8.59075 0.832732 8.69409 0.479399C8.79809 0.126065 9.16942 -0.0759347 9.52142 0.026732C10.7501 0.386732 11.5974 1.23273 11.9728 2.47407C12.0794 2.82673 11.8794 3.19873 11.5274 3.3054C11.4634 3.32473 11.3981 3.33407 11.3341 3.33407L11.3334 3.3334ZM3.30675 14.8541C3.41009 14.5007 3.20742 14.1307 2.85409 14.0267C2.04609 13.7901 1.55342 13.2967 1.30542 12.4741C1.19875 12.1214 0.826753 11.9241 0.474086 12.0287C0.12142 12.1354 -0.0779138 12.5074 0.0287528 12.8601C0.403419 14.1014 1.25142 14.9474 2.48009 15.3074C2.54275 15.3254 2.60542 15.3347 2.66742 15.3347C2.95609 15.3347 3.22209 15.1454 3.30675 14.8541ZM15.3048 4.66673C15.3048 3.93007 14.7081 3.3334 13.9714 3.3334C13.2348 3.3334 12.6381 3.93007 12.6381 4.66673V6.56873L7.01209 0.959399C6.62142 0.568732 5.98875 0.568732 5.59809 0.959399C5.20742 1.3494 5.20742 1.9834 5.59809 2.3734L9.31075 6.07473C9.47209 6.23673 9.47209 6.4994 9.31075 6.66073C9.14942 6.82207 8.88542 6.82273 8.72342 6.66073C8.71675 6.65407 3.67942 1.62607 3.67942 1.62607C3.28875 1.2354 2.65609 1.2354 2.26542 1.62607C1.87475 2.01607 1.87475 2.65007 2.26542 3.04007L7.31342 8.07273C7.47475 8.23473 7.47475 8.4974 7.31342 8.65873C7.15142 8.82073 6.88809 8.82073 6.72609 8.65873C6.72275 8.6554 2.34675 4.29207 2.34675 4.29207C1.95609 3.9014 1.32342 3.9014 0.932753 4.29207C0.542086 4.68207 0.542086 5.31607 0.932753 5.70607C0.932753 5.70607 5.31342 10.0674 5.31542 10.0694C5.47742 10.2314 5.47742 10.4947 5.31542 10.6567C5.15342 10.8187 4.89142 10.8187 4.72942 10.6567L2.34742 8.2914C1.95742 7.90073 1.32409 7.90073 0.933419 8.2914C0.542753 8.68207 0.542753 9.31473 0.933419 9.7054L5.55275 14.3081C6.67942 15.4347 8.16009 15.9981 9.64009 15.9981C11.1201 15.9981 12.6008 15.4347 13.7274 14.3081C14.7461 13.2901 15.3068 11.9354 15.3068 10.4954V4.66673H15.3048Z" fill="#FFF" />
  </g>
  <defs>
    <clipPath id="clip0_873_1913">
      <rect width="16" height="16" fill="white" />
    </clipPath>
  </defs>
</svg>