<svg width="25" height="25" viewBox="0 0 25 25" fill="none" xmlns="http://www.w3.org/2000/svg">
<path d="M23.4366 4.29675H22.6543C22.9001 4.62341 23.046 5.02927 23.046 5.46863V23.4374C23.046 23.8767 22.9001 24.2826 22.6543 24.6093H23.4366C24.0838 24.6093 24.6085 24.0846 24.6085 23.4374V5.46863C24.6085 4.82141 24.0838 4.29675 23.4366 4.29675Z" fill="#F0AB25"/>
<path d="M21.0938 4.29675H20.9794C21.0535 4.04905 21.0938 3.78694 21.0938 3.5155C21.0938 2.00774 19.8671 0.781128 18.3594 0.781128C16.8516 0.781128 15.625 2.00774 15.625 3.5155C15.625 3.78694 15.6653 4.04905 15.7393 4.29675H16.5698C16.4649 4.05735 16.4062 3.79319 16.4062 3.5155C16.4062 2.43855 17.2824 1.56238 18.3594 1.56238C19.4363 1.56238 20.3125 2.43855 20.3125 3.5155C20.3125 3.79319 20.2539 4.05735 20.1489 4.29675H16.5698C16.8718 4.98582 17.5601 5.46863 18.3594 5.46863V6.24988C17.123 6.24988 16.0764 5.42493 15.7393 4.29675H13.9481C14.0222 4.04905 14.0625 3.78694 14.0625 3.5155C14.0625 2.00774 12.8358 0.781128 11.3281 0.781128C9.82031 0.781128 8.5937 2.00774 8.5937 3.5155C8.5937 3.78694 8.63403 4.04905 8.70801 4.29675H9.53853C9.43359 4.05735 9.37495 3.79319 9.37495 3.5155C9.37495 2.43855 10.2511 1.56238 11.3281 1.56238C12.405 1.56238 13.2812 2.43855 13.2812 3.5155C13.2812 3.79319 13.2226 4.05735 13.1176 4.29675H9.53853C9.84053 4.98582 10.5288 5.46863 11.3281 5.46863V6.24988C10.0917 6.24988 9.04507 5.42493 8.70801 4.29675H6.91685C6.99087 4.04905 7.03115 3.78694 7.03115 3.5155C7.03115 2.00774 5.80454 0.781128 4.29678 0.781128C2.78901 0.781128 1.5624 2.00774 1.5624 3.5155C1.5624 3.78694 1.60273 4.04905 1.67671 4.29675H2.50723C2.40229 4.05735 2.34365 3.79319 2.34365 3.5155C2.34365 2.43855 3.21982 1.56238 4.29678 1.56238C5.37373 1.56238 6.2499 2.43855 6.2499 3.5155C6.2499 3.79319 6.19126 4.05735 6.08633 4.29675H2.50732C2.80933 4.98582 3.49761 5.46863 4.29688 5.46863V6.24988C3.06055 6.24988 2.01387 5.42493 1.67681 4.29675H1.5625C0.915283 4.29675 0.390625 4.82141 0.390625 5.46863V7.81238H22.2656V5.46863C22.2656 4.82141 21.741 4.29675 21.0938 4.29675Z" fill="#F0AB25"/>
<path d="M0.390625 23.4374C0.390625 24.0846 0.915283 24.6093 1.5625 24.6093H3.90625V17.578L3.08228 17.0287C2.86494 16.8838 2.73438 16.6399 2.73438 16.3786V12.1093H3.51562V15.6249H4.29688V12.1093H5.07812V15.6249H5.85938V12.1093H6.64062V16.3786C6.64062 16.6399 6.51006 16.8838 6.29272 17.0287L5.46875 17.578V24.6093H9.375V12.1093C9.375 12.1093 11.5234 12.4999 11.5234 14.2577V18.7499H10.9375V24.6093H21.0938C21.741 24.6093 22.2656 24.0846 22.2656 23.4374V8.59363H0.390625V23.4374ZM20.7031 22.6561H17.5781V21.8749H20.7031V22.6561ZM20.7031 15.6249H16.4062V14.8436H20.7031V15.6249ZM15.2344 12.4999H20.7031V13.2811H15.2344V12.4999ZM13.6719 14.8436H15.625V15.6249H13.6719V14.8436ZM13.6719 17.1874H20.7031V17.9686H13.6719V17.1874ZM13.6719 19.5311H20.7031V20.3124H13.6719V19.5311ZM13.6719 21.8749H16.7969V22.6561H13.6719V21.8749ZM3.90625 9.7655H10.9375V10.5468H3.90625V9.7655Z" fill="#F0AB25"/>
</svg>
