<svg width="16" height="16" viewBox="0 0 16 16" fill="none" xmlns="http://www.w3.org/2000/svg">
<g clip-path="url(#clip0_869_1784)">
<path d="M9.76404 7.46875H7.91011C7.72264 7.46875 7.55366 7.35453 7.48191 7.17938C7.41019 7.00422 7.44984 6.80259 7.58239 6.66853L8.6451 5.59375H7.91011C7.65414 5.59375 7.44662 5.38388 7.44662 5.125C7.44662 4.86612 7.65414 4.65625 7.91011 4.65625H9.76404C9.9515 4.65625 10.1205 4.77047 10.1922 4.94562C10.264 5.12078 10.2243 5.32241 10.0918 5.45647L9.02905 6.53125H9.76404C10.02 6.53125 10.2275 6.74113 10.2275 7C10.2275 7.25887 10.02 7.46875 9.76404 7.46875Z" fill="#FFF"/>
<path d="M13.4719 3.71875H11.618C11.4305 3.71875 11.2615 3.60453 11.1898 3.42937C11.1181 3.25422 11.1577 3.05259 11.2903 2.91853L12.353 1.84375H11.618C11.362 1.84375 11.1545 1.63388 11.1545 1.375C11.1545 1.11612 11.362 0.90625 11.618 0.90625H13.4719C13.6594 0.90625 13.8283 1.02047 13.9001 1.19562C13.9718 1.37078 13.9322 1.57241 13.7996 1.70647L12.7369 2.78125H13.4719C13.7279 2.78125 13.9354 2.99113 13.9354 3.25C13.9354 3.50887 13.7279 3.71875 13.4719 3.71875Z" fill="#FFF"/>
<path d="M7.91011 16C3.54846 16 0 12.4041 0 7.98403C0 5.94307 0.759124 4.0021 2.13758 2.51869C3.56178 0.986035 5.5322 0.0916911 7.68591 0.000409819C7.87306 -0.00746518 8.04573 0.0987223 8.12498 0.269816C8.21474 0.463504 8.17748 0.718597 7.93023 0.880566C7.38913 1.23516 5.6236 2.5926 5.6236 5.17153C5.6236 7.99747 7.89683 10.2965 10.691 10.2965C13.1612 10.2965 14.487 8.67194 14.9424 7.97347C15.1654 7.63125 15.4623 7.7235 15.5535 7.76672C15.7226 7.84694 15.8276 8.022 15.8198 8.21075C15.7296 10.3868 14.8436 12.3814 13.3249 13.8271C11.8529 15.2283 9.92988 16 7.91011 16Z" fill="#FFF"/>
</g>
<defs>
<clipPath id="clip0_869_1784">
<rect width="15.8202" height="16" fill="white"/>
</clipPath>
</defs>
</svg>
