<svg width="21" height="24" viewBox="0 0 21 24" fill="none" xmlns="http://www.w3.org/2000/svg">
<path d="M13.6992 0.976808L19.4192 13.2511C21.1176 16.8956 19.5345 21.2419 15.8899 22.9403C12.2454 24.6387 7.89911 23.0556 6.20071 19.4111L0.920705 8.08099C-0.293696 5.47506 0.835658 2.37451 3.44159 1.16011C6.04751 -0.0542957 9.14807 1.07506 10.3625 3.68099L15.6425 15.0111C16.3685 16.569 15.6878 18.4376 14.1299 19.1636C12.5721 19.8896 10.7034 19.209 9.97741 17.6511L5.13741 7.26516C4.89541 6.74587 5.12229 6.12299 5.64159 5.88099C6.16088 5.63899 6.78376 5.86587 7.02576 6.38516L11.8658 16.7711C12.1078 17.2904 12.7306 17.5173 13.2499 17.2753C13.7692 17.0333 13.9961 16.4104 13.7541 15.8911L8.47412 4.56099C7.74812 3.0031 5.87948 2.32246 4.32159 3.04846C2.7637 3.77446 2.08306 5.6431 2.80906 7.20099L8.08906 18.5311C9.30346 21.137 12.404 22.2664 15.0099 21.052C17.6159 19.8376 18.7452 16.737 17.5308 14.1311L11.8108 1.85681C11.5688 1.33751 11.7957 0.714632 12.315 0.472631C12.8343 0.230631 13.4572 0.45751 13.6992 0.976808Z" fill="#87D733"/>
</svg>
