<svg xmlns="http://www.w3.org/2000/svg" width="64" height="64" viewBox="0 0 64 64" fill="none">
  <defs>
    <linearGradient id="primaryGradient" x1="0%" y1="0%" x2="100%" y2="100%">
      <stop offset="0%" stop-color="#3B82F6" />
      <stop offset="100%" stop-color="#2563EB" />
    </linearGradient>
    <filter id="shadow" x="-10%" y="-10%" width="120%" height="120%">
      <feDropShadow dx="0" dy="1" stdDeviation="1" flood-opacity="0.3" />
    </filter>
  </defs>
  <rect x="8" y="8" width="48" height="48" rx="8" fill="white" />
  <g filter="url(#shadow)">
    <rect x="12" y="12" width="40" height="40" rx="6" fill="url(#primaryGradient)" opacity="0.1" />
    <path
      d="M44 12H20C17.7909 12 16 13.7909 16 16V48C16 50.2091 17.7909 52 20 52H44C46.2091 52 48 50.2091 48 48V16C48 13.7909 46.2091 12 44 12Z"
      stroke="url(#primaryGradient)"
      stroke-width="3"
      stroke-linejoin="round"
    />
    <path
      d="M25 32L32 39L46 25"
      stroke="url(#primaryGradient)"
      stroke-width="3"
      stroke-linecap="round"
      stroke-linejoin="round"
    />
    <path
      d="M25 42L30 47L33 44"
      stroke="url(#primaryGradient)"
      stroke-width="3"
      stroke-linecap="round"
      stroke-linejoin="round"
    />
  </g>
</svg> 