<svg width="547" height="549" viewBox="0 0 547 549" fill="none" xmlns="http://www.w3.org/2000/svg">
<path d="M60.0804 0.00226826C44.9496 -0.239368 18.2849 18.8871 10.2039 27.6603C-0.346865 39.1101 -0.874404 48.98 0.612298 61.7682C2.81837 79.5935 5.40811 84.8166 30.5142 89.8723C50.3449 93.8686 62.5023 106.341 82.213 109.668C109.909 114.352 138.348 103.497 164.797 99.5378C194.339 95.1325 200.933 109.705 226.303 114.259C250.882 118.646 279.633 108.869 305.554 110.82C331.931 112.809 351.498 124.408 376.436 125.876C398.497 127.159 412 131.944 419.677 138.404C437.877 153.72 417.111 163.701 398.263 172.159C351.073 193.386 316.115 213.441 264.512 227.977C240.197 234.817 212.515 240.412 188.177 246.118C163.838 251.824 145.158 267.493 123.745 277.531C100.485 288.423 71.2306 291.099 49.2658 302.772C26.15 315.059 13.0814 337.549 8.21366 358.181C2.60256 382.029 6.3433 399.576 27.3969 417.661C48.1148 435.449 44.9736 451.118 53.2463 473.423C59.9365 491.49 73.7244 509.204 96.1449 517.903C124.92 529.055 141.897 515.858 169.497 515.263C197.097 514.669 217.455 542.271 275.508 536.1L366.005 430.152L339.916 414.501C323.131 397.977 355.191 375.375 354.303 355.672C353.2 329.445 334.449 330.263 312.964 316.639C263.759 285.17 331.715 247.995 363.919 233.348C409.335 212.735 466.262 216.508 510.335 191.583C526.593 182.4 546.879 165.281 546.999 148.608C547.167 124.11 522.588 122.233 498.825 121.824C483.742 121.564 473.911 119.965 462.689 112.121C459.428 109.835 456.79 105.895 452.953 103.924C445.328 100.021 439.789 103.032 432.547 100.3C424.154 97.14 423.555 90.3556 418.16 85.114C408.28 75.56 400.271 77.2143 386.196 75.5229C360.442 72.4373 356.006 51.192 327.375 49.296C295.986 47.2142 274.429 61.0061 246.038 67.0656C215.273 73.6269 181.414 59.3146 149.354 62.4559C120.58 65.2626 90.7736 84.0359 62.6701 72.7905C40.2737 63.8314 12.7217 63.9615 19.5078 38.7756C22.622 28.8306 29.6435 19.8807 39.6022 13.1621C45.5491 9.14727 57.9223 6.35916 60.0804 0.00226826Z" fill="#070000"/>
<path d="M12.1277 398.883C2.82253 382.056 6.89218 339.693 23.103 331.219C39.3138 322.745 97.3112 358.492 96.2008 363.249C93.935 372.956 78.1819 374.5 57.1819 391.5C36.1819 408.5 17.656 408.88 12.1277 398.883Z" fill="#313658"/>
<path d="M47.9181 7.00247C34.0874 6.76714 20.7138 23.3949 13.3272 31.9394C3.68294 43.0908 3.20073 52.7034 4.55969 65.1581C6.57621 82.5187 30.9434 87.6056 53.8923 92.5295C72.0191 96.4216 83.1319 99.5686 101.149 102.809C126.465 107.371 152.461 97.7989 176.637 93.943C203.641 89.6526 209.669 103.845 232.859 108.28C255.325 112.553 281.606 103.031 305.3 104.931C329.41 106.868 350.296 119.165 373.092 120.595C393.257 121.844 421.6 128.504 428.617 134.796C445.253 149.713 412.271 175.434 395.043 183.671C351.907 204.344 314.953 223.877 267.784 238.033C245.558 244.695 220.255 245.144 198.008 250.702C175.76 256.259 158.686 268.52 139.112 278.296C117.851 288.904 91.1103 300.511 71.0327 311.879C49.9031 323.845 151.957 340.749 147.508 360.844C142.379 384.069 31.7983 394.159 51.0429 411.773C69.9806 429.097 140.109 444.358 147.671 466.081C153.787 483.677 93.3898 500.929 113.884 509.401C140.186 520.263 155.705 507.41 180.933 506.83C206.162 506.251 224.771 533.134 277.836 527.124L360.557 423.938L336.709 408.695C321.366 392.602 350.672 370.589 349.861 351.4C348.852 325.857 325.712 328.653 306.073 315.384C261.096 284.736 329.213 250.53 358.65 236.265C400.164 216.189 452.199 215.864 492.486 191.588C507.346 182.645 525.89 165.973 525.999 149.734C526.153 125.875 503.686 124.047 481.965 123.648C468.178 123.395 459.191 121.838 448.933 114.199C445.952 111.972 443.541 108.134 440.034 106.215C433.064 102.414 428.001 105.346 421.381 102.685C413.71 99.6077 413.162 93.0002 408.23 87.8952C399.2 78.5904 391.879 80.2015 379.012 78.5542C355.472 75.5491 351.417 54.8576 325.246 53.0111C296.554 50.9836 276.849 64.4159 250.898 70.3174C222.776 76.7077 191.827 64.7685 162.521 67.8279C136.219 70.5614 101.149 83.5002 83.2853 82.8931C65.4216 82.2859 7.62863 67.2942 13.8316 42.7649C16.6783 33.0792 23.0964 24.3626 32.1995 17.8193C37.6353 13.9091 40.5 10.5002 47.9181 7.00247Z" fill="#313658"/>
<path d="M193.218 274.333C193.033 274.93 192.754 275.623 192.379 276.411C192.034 277.211 191.597 277.939 191.068 278.595C190.549 279.221 189.961 279.701 189.304 280.034C188.656 280.338 187.928 280.321 187.12 279.985C186.053 279.541 185.37 278.802 185.071 277.768C184.801 276.746 184.722 275.635 184.833 274.434C184.953 273.204 185.165 271.994 185.467 270.806C185.799 269.63 186.056 268.692 186.24 267.994C184.052 267.488 181.906 266.949 179.803 266.378C179.533 267.04 179.14 267.837 178.624 268.768C178.137 269.711 177.543 270.576 176.843 271.363C176.182 272.133 175.427 272.729 174.58 273.151C173.762 273.586 172.905 273.617 172.011 273.245C171.318 272.957 170.849 272.475 170.602 271.799C170.393 271.106 170.299 270.359 170.318 269.559C170.338 268.758 170.435 267.973 170.608 267.202C170.819 266.414 171.004 265.766 171.161 265.259C171.687 263.557 172.335 261.94 173.103 260.406C173.88 258.842 174.696 257.311 175.55 255.813C175.991 255.02 176.536 254.101 177.185 253.057C177.834 252.012 178.55 250.962 179.333 249.906C180.154 248.833 181.023 247.813 181.941 246.847C182.897 245.863 183.883 245.043 184.9 244.388C185.917 243.733 186.98 243.299 188.088 243.086C189.196 242.873 190.313 243 191.438 243.468C192.534 243.924 193.408 244.574 194.059 245.418C194.71 246.261 195.209 247.227 195.556 248.315C195.903 249.403 196.112 250.568 196.183 251.811C196.264 253.024 196.263 254.237 196.181 255.449C196.137 256.644 196.04 257.8 195.889 258.917C195.768 260.045 195.654 261.043 195.549 261.909C195.324 264.005 195.031 266.108 194.672 268.216C194.322 270.294 193.837 272.333 193.218 274.333ZM188.233 259.977C188.344 259.619 188.495 259.025 188.687 258.195C188.917 257.347 189.084 256.49 189.19 255.624C189.304 254.728 189.3 253.901 189.176 253.142C189.091 252.365 188.789 251.869 188.27 251.653C187.981 251.533 187.642 251.628 187.253 251.938C186.873 252.218 186.485 252.629 186.089 253.172C185.703 253.685 185.307 254.279 184.903 254.953C184.528 255.639 184.176 256.302 183.848 256.94C183.52 257.579 183.24 258.17 183.006 258.713C182.782 259.226 182.619 259.596 182.516 259.823C184.294 260.394 186.065 260.878 187.831 261.276L188.233 259.977Z" fill="#070000"/>
<path d="M189.663 272.858C189.478 273.455 189.199 274.148 188.824 274.936C188.479 275.736 188.042 276.464 187.513 277.12C186.994 277.746 186.406 278.226 185.749 278.559C185.101 278.863 184.373 278.846 183.566 278.51C182.498 278.066 181.815 277.327 181.516 276.293C181.246 275.271 181.167 274.16 181.278 272.959C181.398 271.729 181.61 270.519 181.912 269.331C182.244 268.155 182.502 267.217 182.685 266.519C180.497 266.013 178.351 265.474 176.248 264.902C175.978 265.565 175.585 266.362 175.069 267.293C174.582 268.236 173.988 269.101 173.288 269.888C172.627 270.658 171.872 271.254 171.025 271.676C170.207 272.111 169.35 272.142 168.456 271.77C167.763 271.482 167.294 271 167.047 270.324C166.838 269.631 166.744 268.884 166.763 268.084C166.783 267.283 166.88 266.498 167.053 265.727C167.264 264.939 167.449 264.291 167.606 263.784C168.133 262.082 168.78 260.465 169.548 258.931C170.325 257.367 171.141 255.836 171.995 254.338C172.436 253.545 172.981 252.626 173.63 251.581C174.279 250.537 174.995 249.487 175.778 248.431C176.599 247.357 177.468 246.338 178.386 245.372C179.342 244.388 180.328 243.568 181.345 242.913C182.362 242.258 183.425 241.824 184.533 241.611C185.641 241.398 186.758 241.525 187.883 241.993C188.979 242.449 189.853 243.099 190.504 243.943C191.155 244.786 191.654 245.752 192.001 246.84C192.348 247.928 192.557 249.093 192.629 250.336C192.709 251.549 192.708 252.762 192.626 253.974C192.582 255.169 192.485 256.325 192.334 257.441C192.213 258.57 192.1 259.568 191.994 260.434C191.769 262.53 191.476 264.633 191.117 266.741C190.767 268.819 190.282 270.858 189.663 272.858ZM184.678 258.502C184.789 258.144 184.94 257.55 185.132 256.72C185.362 255.872 185.53 255.015 185.635 254.149C185.749 253.253 185.745 252.426 185.621 251.667C185.536 250.89 185.234 250.394 184.715 250.178C184.426 250.058 184.087 250.153 183.698 250.462C183.318 250.743 182.931 251.154 182.534 251.697C182.148 252.21 181.752 252.804 181.348 253.478C180.973 254.164 180.621 254.827 180.293 255.465C179.965 256.104 179.685 256.695 179.451 257.238C179.227 257.751 179.064 258.121 178.961 258.348C180.739 258.919 182.51 259.403 184.276 259.801L184.678 258.502Z" fill="#EF7F7E"/>
<path d="M444.186 384.71C443.881 386.845 443.08 388.694 441.785 390.256C440.494 391.788 438.89 392.974 436.972 393.814C437.866 394.176 438.618 394.654 439.227 395.248C439.84 395.811 440.315 396.458 440.652 397.19C441.019 397.928 441.251 398.736 441.346 399.612C441.476 400.464 441.478 401.338 441.349 402.235C441.097 403.999 440.462 405.466 439.443 406.637C438.459 407.783 437.261 408.665 435.848 409.284C434.44 409.871 432.907 410.228 431.249 410.355C429.627 410.456 428.033 410.357 426.468 410.056C425.608 409.891 424.758 409.664 423.916 409.375C423.075 409.086 422.293 408.713 421.57 408.257C421.307 408.111 421.129 407.695 421.038 407.01C420.951 406.294 420.915 405.445 420.929 404.463C420.975 403.486 421.046 402.435 421.144 401.309C421.242 400.184 421.348 399.108 421.463 398.081C421.579 397.054 421.692 396.154 421.802 395.381C421.913 394.607 421.99 394.066 422.034 393.757C422.189 392.674 422.344 391.591 422.499 390.508C422.658 389.395 422.846 388.302 423.062 387.231C423.102 386.953 423.163 386.52 423.248 385.932C423.362 385.35 423.47 384.704 423.572 383.992C423.709 383.256 423.85 382.488 423.996 381.69C424.172 380.897 424.34 380.166 424.498 379.498C424.692 378.804 424.886 378.221 425.079 377.75C425.304 377.284 425.517 377.007 425.718 376.919C426.491 376.591 427.335 376.308 428.252 376.071C429.173 375.803 430.116 375.603 431.081 375.47C432.046 375.338 433.002 375.267 433.949 375.258C434.896 375.25 435.784 375.325 436.613 375.484C437.748 375.702 438.813 376.082 439.808 376.622C440.838 377.138 441.69 377.794 442.365 378.591C443.07 379.394 443.584 380.32 443.907 381.367C444.265 382.389 444.358 383.504 444.186 384.71ZM436.193 385.702C436.268 385.176 436.154 384.757 435.852 384.444C435.581 384.138 435.184 383.934 434.662 383.834C434.233 383.752 433.759 383.756 433.242 383.847C432.755 383.944 432.32 384.115 431.939 384.36C431.833 384.435 431.704 384.68 431.55 385.096C431.426 385.517 431.294 386 431.153 386.545C431.047 387.065 430.944 387.57 430.842 388.059C430.776 388.523 430.732 388.832 430.709 388.987C430.701 389.049 430.685 389.157 430.663 389.312C430.645 389.435 430.625 389.575 430.603 389.729C430.612 389.89 430.623 390.035 430.636 390.165C430.649 390.294 430.686 390.365 430.747 390.377C431.269 390.477 431.833 390.395 432.438 390.129C433.048 389.833 433.608 389.448 434.117 388.974C434.661 388.475 435.118 387.927 435.487 387.33C435.887 386.739 436.122 386.197 436.193 385.702ZM434.091 399.077C434.167 398.551 434.036 398.144 433.698 397.857C433.361 397.57 432.962 397.382 432.502 397.293C432.072 397.211 431.596 397.231 431.074 397.353C430.587 397.45 430.171 397.608 429.824 397.828C429.723 397.872 429.624 398.012 429.527 398.248C429.461 398.489 429.391 398.762 429.316 399.065C429.276 399.344 429.221 399.619 429.151 399.892C429.115 400.139 429.091 400.309 429.078 400.402C429.069 400.464 429.051 400.588 429.025 400.773C428.998 400.959 428.969 401.16 428.938 401.376C428.942 401.568 428.947 401.759 428.951 401.951C428.99 402.117 429.04 402.207 429.102 402.218C429.531 402.301 430.025 402.269 430.582 402.121C431.139 401.974 431.659 401.756 432.141 401.467C432.655 401.185 433.083 400.838 433.425 400.427C433.803 399.991 434.025 399.541 434.091 399.077Z" fill="#070000"/>
<path d="M440.454 383.989C440.148 386.123 439.348 387.972 438.053 389.535C436.762 391.067 435.157 392.252 433.24 393.092C434.134 393.454 434.886 393.932 435.494 394.526C436.108 395.089 436.583 395.737 436.919 396.469C437.287 397.207 437.518 398.014 437.614 398.891C437.744 399.742 437.745 400.616 437.617 401.514C437.365 403.277 436.73 404.744 435.711 405.915C434.727 407.061 433.529 407.943 432.116 408.562C430.708 409.15 429.175 409.507 427.517 409.633C425.895 409.735 424.301 409.635 422.736 409.334C421.876 409.169 421.026 408.942 420.184 408.653C419.343 408.365 418.56 407.992 417.837 407.535C417.574 407.389 417.397 406.974 417.306 406.289C417.219 405.573 417.183 404.723 417.197 403.741C417.242 402.764 417.314 401.713 417.412 400.588C417.509 399.462 417.616 398.386 417.731 397.359C417.846 396.333 417.959 395.432 418.07 394.659C418.181 393.886 418.258 393.344 418.302 393.035C418.457 391.952 418.612 390.869 418.767 389.787C418.926 388.673 419.113 387.581 419.33 386.51C419.369 386.231 419.431 385.798 419.515 385.21C419.63 384.629 419.738 383.982 419.84 383.27C419.977 382.534 420.118 381.766 420.264 380.968C420.44 380.175 420.608 379.445 420.766 378.776C420.96 378.082 421.154 377.5 421.347 377.028C421.571 376.563 421.784 376.286 421.986 376.197C422.758 375.869 423.603 375.586 424.52 375.349C425.441 375.081 426.384 374.881 427.349 374.748C428.314 374.616 429.27 374.545 430.217 374.537C431.164 374.528 432.052 374.603 432.881 374.762C434.016 374.98 435.081 375.36 436.076 375.901C437.106 376.416 437.958 377.073 438.632 377.87C439.337 378.673 439.852 379.598 440.175 380.645C440.533 381.668 440.626 382.782 440.454 383.989ZM432.461 384.98C432.536 384.454 432.422 384.035 432.12 383.723C431.848 383.416 431.452 383.213 430.93 383.113C430.501 383.03 430.027 383.034 429.509 383.126C429.022 383.223 428.588 383.394 428.206 383.638C428.101 383.713 427.971 383.959 427.817 384.374C427.694 384.795 427.562 385.278 427.421 385.823C427.315 386.343 427.211 386.848 427.11 387.337C427.044 387.801 426.999 388.11 426.977 388.265C426.968 388.327 426.953 388.435 426.931 388.59C426.913 388.714 426.893 388.853 426.871 389.008C426.88 389.168 426.891 389.313 426.904 389.443C426.917 389.573 426.954 389.643 427.015 389.655C427.537 389.755 428.1 389.673 428.706 389.408C429.316 389.112 429.875 388.727 430.385 388.252C430.929 387.753 431.386 387.205 431.755 386.608C432.154 386.018 432.39 385.475 432.461 384.98ZM430.359 398.355C430.434 397.829 430.303 397.423 429.966 397.135C429.629 396.848 429.23 396.66 428.77 396.572C428.34 396.489 427.864 396.509 427.342 396.631C426.855 396.728 426.438 396.887 426.092 397.106C425.991 397.15 425.892 397.29 425.795 397.526C425.729 397.767 425.659 398.04 425.584 398.343C425.544 398.622 425.489 398.897 425.418 399.17C425.383 399.417 425.359 399.588 425.345 399.68C425.337 399.742 425.319 399.866 425.292 400.052C425.266 400.237 425.237 400.438 425.206 400.655C425.21 400.846 425.214 401.038 425.219 401.229C425.258 401.396 425.308 401.485 425.37 401.497C425.799 401.579 426.293 401.547 426.85 401.4C427.407 401.252 427.927 401.034 428.409 400.746C428.923 400.463 429.351 400.116 429.693 399.705C430.071 399.269 430.293 398.819 430.359 398.355Z" fill="#FDCE64"/>
<path d="M175.654 367.504C175.946 368.021 176.192 368.612 176.39 369.278C176.613 369.925 176.738 370.588 176.766 371.267C176.794 371.945 176.701 372.599 176.487 373.228C176.273 373.857 175.88 374.388 175.307 374.823C174.436 375.484 173.697 375.812 173.089 375.807C172.466 375.774 171.922 375.566 171.456 375.181C170.989 374.796 170.582 374.328 170.235 373.775C169.897 373.176 169.569 372.628 169.252 372.13C168.935 371.632 168.61 371.276 168.276 371.063C167.952 370.804 167.566 370.844 167.118 371.184C166.62 371.562 166.3 372.097 166.157 372.789C165.999 373.453 165.959 374.202 166.039 375.036C166.119 375.869 166.282 376.756 166.528 377.696C166.8 378.618 167.096 379.52 167.417 380.404C167.748 381.241 168.088 382.032 168.438 382.778C168.773 383.496 169.063 384.072 169.309 384.508C169.631 385.079 170.028 385.75 170.499 386.52C170.994 387.272 171.549 387.939 172.163 388.522C172.762 389.079 173.406 389.464 174.096 389.679C174.771 389.866 175.482 389.677 176.229 389.11C176.727 388.732 177.174 388.296 177.57 387.801C177.966 387.306 178.354 386.797 178.735 386.275C179.1 385.725 179.481 385.203 179.877 384.708C180.298 384.194 180.757 383.748 181.255 383.37C181.828 382.936 182.447 382.835 183.112 383.069C183.762 383.275 184.264 383.691 184.617 384.317C185.109 385.188 185.321 386.193 185.254 387.333C185.171 388.445 184.917 389.571 184.493 390.709C184.094 391.828 183.551 392.882 182.865 393.87C182.203 394.839 181.523 395.587 180.826 396.117C179.034 397.477 177.262 398.18 175.51 398.227C173.774 398.301 172.128 397.937 170.573 397.135C169.002 396.306 167.558 395.166 166.241 393.717C164.934 392.221 163.797 390.616 162.828 388.902C162.183 387.759 161.576 386.432 161.006 384.92C160.437 383.408 159.967 381.821 159.597 380.158C159.212 378.468 158.956 376.757 158.831 375.025C158.731 373.274 158.816 371.597 159.084 369.994C159.352 368.39 159.827 366.902 160.51 365.529C161.217 364.137 162.193 362.968 163.437 362.024C164.657 361.098 165.87 360.663 167.075 360.72C168.266 360.75 169.402 361.093 170.484 361.749C171.55 362.378 172.529 363.229 173.419 364.302C174.295 365.348 175.04 366.415 175.654 367.504Z" fill="#070000"/>
<path d="M172.495 369.906C172.787 370.423 173.032 371.014 173.231 371.68C173.454 372.327 173.579 372.99 173.607 373.669C173.635 374.348 173.542 375.001 173.328 375.63C173.114 376.259 172.721 376.791 172.148 377.225C171.277 377.887 170.538 378.214 169.93 378.209C169.307 378.177 168.763 377.968 168.296 377.583C167.83 377.199 167.423 376.73 167.076 376.177C166.737 375.579 166.41 375.03 166.093 374.532C165.776 374.034 165.451 373.679 165.117 373.465C164.793 373.206 164.407 373.247 163.959 373.587C163.461 373.965 163.14 374.499 162.998 375.191C162.839 375.855 162.8 376.604 162.88 377.438C162.959 378.272 163.123 379.158 163.369 380.099C163.641 381.02 163.937 381.922 164.258 382.806C164.589 383.643 164.929 384.435 165.279 385.18C165.613 385.898 165.903 386.475 166.149 386.91C166.472 387.482 166.869 388.152 167.339 388.923C167.835 389.674 168.39 390.341 169.004 390.925C169.602 391.481 170.247 391.867 170.937 392.081C171.612 392.269 172.323 392.079 173.07 391.512C173.567 391.134 174.014 390.698 174.41 390.203C174.807 389.708 175.195 389.199 175.576 388.677C175.941 388.128 176.322 387.605 176.718 387.11C177.139 386.596 177.598 386.15 178.096 385.773C178.669 385.338 179.288 385.238 179.953 385.471C180.603 385.678 181.105 386.094 181.458 386.719C181.95 387.59 182.162 388.595 182.095 389.735C182.012 390.848 181.758 391.973 181.334 393.111C180.935 394.231 180.392 395.284 179.705 396.272C179.043 397.241 178.364 397.99 177.667 398.519C175.875 399.879 174.103 400.583 172.351 400.63C170.615 400.703 168.969 400.339 167.414 399.537C165.843 398.708 164.399 397.569 163.082 396.119C161.775 394.623 160.637 393.018 159.669 391.304C159.024 390.161 158.416 388.834 157.847 387.322C157.278 385.811 156.808 384.224 156.438 382.561C156.052 380.871 155.797 379.16 155.672 377.427C155.572 375.676 155.656 373.999 155.924 372.396C156.193 370.793 156.668 369.305 157.35 367.931C158.058 366.539 159.034 365.371 160.278 364.426C161.498 363.5 162.711 363.066 163.916 363.123C165.107 363.152 166.243 363.495 167.324 364.151C168.391 364.78 169.369 365.631 170.26 366.704C171.135 367.75 171.881 368.818 172.495 369.906Z" fill="#46B17B"/>
<path d="M144.898 398.215L80.0625 322.864L61 339.266L125.835 414.617L144.898 398.215Z" fill="#FDCE64"/>
<path d="M85.771 329.501L80.45 334.084" stroke="#070000" stroke-width="2" stroke-linecap="round" stroke-linejoin="round"/>
<path d="M90.6529 335.165L83.6196 341.215" stroke="#070000" stroke-width="2" stroke-linecap="round" stroke-linejoin="round"/>
<path d="M95.5264 340.828L90.1965 345.412" stroke="#070000" stroke-width="2" stroke-linecap="round" stroke-linejoin="round"/>
<path d="M100.4 346.5L93.375 352.542" stroke="#070000" stroke-width="2" stroke-linecap="round" stroke-linejoin="round"/>
<path d="M105.273 352.164L99.9429 356.748" stroke="#070000" stroke-width="2" stroke-linecap="round" stroke-linejoin="round"/>
<path d="M110.146 357.828L103.122 363.877" stroke="#070000" stroke-width="2" stroke-linecap="round" stroke-linejoin="round"/>
<path d="M115.019 363.5L109.698 368.074" stroke="#070000" stroke-width="2" stroke-linecap="round" stroke-linejoin="round"/>
<path d="M119.892 369.163L112.868 375.204" stroke="#070000" stroke-width="2" stroke-linecap="round" stroke-linejoin="round"/>
<path d="M124.766 374.826L119.445 379.41" stroke="#070000" stroke-width="2" stroke-linecap="round" stroke-linejoin="round"/>
<path d="M129.648 380.49L122.615 386.54" stroke="#070000" stroke-width="2" stroke-linecap="round" stroke-linejoin="round"/>
<path d="M134.521 386.163L129.191 390.746" stroke="#070000" stroke-width="2" stroke-linecap="round" stroke-linejoin="round"/>
<path d="M139.394 391.826L132.37 397.867" stroke="#070000" stroke-width="2" stroke-linecap="round" stroke-linejoin="round"/>
<path d="M393.726 336.605C383.092 333.971 377.358 338.168 374.742 341.206C371.651 338.651 365.303 335.49 355.258 339.845C336.687 347.914 345.652 385.724 366.672 394.996C366.672 394.996 373.758 398.578 379.264 394.504C385.41 397.595 391.759 392.88 391.759 392.88C410.874 380.227 413.385 341.443 393.726 336.605Z" fill="#EF7F7E"/>
<path d="M369.886 343.884C369.886 343.884 375.321 347.396 380.081 343.006" stroke="#070000" stroke-width="2" stroke-linecap="round" stroke-linejoin="round"/>
<path d="M375.067 345.087C375.067 345.087 374.926 334.796 367.603 330.274" stroke="#070000" stroke-width="2" stroke-linecap="round" stroke-linejoin="round"/>
<path d="M374.865 342.101C374.865 342.101 377.367 330.019 387.474 329.966C397.58 329.913 402.48 336.718 403.665 341.276C404.851 345.833 408.582 346.316 408.582 346.316C408.582 346.316 403.604 353.788 395.912 350.109C388.22 346.43 383.601 337.351 374.865 342.101Z" fill="#46B17B"/>
<path d="M374.865 342.101C374.865 342.101 380.449 332.25 388.914 336.06C397.378 339.871 399.512 347.554 408.547 346.316" stroke="#070000" stroke-width="2" stroke-linecap="round" stroke-linejoin="round"/>
<path d="M373.916 391.826C373.916 391.826 379.413 397.973 384.119 390.948" stroke="#070000" stroke-width="2" stroke-linecap="round" stroke-linejoin="round"/>
<path d="M118.151 193.931C128.125 186.621 130.284 172.609 122.973 162.636C115.663 152.662 101.651 150.503 91.6775 157.813C81.7037 165.124 79.5447 179.135 86.855 189.109C94.1654 199.083 108.177 201.242 118.151 193.931Z" fill="#FBFFFF"/>
<path d="M127.422 187.6C129.683 183.261 130.642 178.36 130.183 173.489C129.724 168.617 127.866 163.982 124.834 160.141C121.802 156.3 117.725 153.418 113.093 151.84C108.461 150.263 103.471 150.058 98.7255 151.25C93.9796 152.442 89.6795 154.981 86.3427 158.56C83.0059 162.139 80.7746 166.606 79.9175 171.424C79.0604 176.241 79.614 181.204 81.5116 185.714C83.4092 190.225 86.57 194.091 90.6135 196.846L87.1978 203.406L83.2904 205.583L71.1995 228.79L80.9548 233.848L93.0457 210.641L92.5364 206.163L95.8818 199.612C101.699 201.806 108.118 201.795 113.928 199.582C119.738 197.369 124.537 193.108 127.422 187.6ZM87.6983 166.913C89.4714 163.509 92.214 160.708 95.5794 158.863C98.9448 157.017 102.782 156.212 106.605 156.547C110.428 156.883 114.066 158.345 117.059 160.748C120.051 163.151 122.264 166.387 123.417 170.048C124.57 173.709 124.612 177.629 123.537 181.314C122.462 184.998 120.319 188.281 117.378 190.747C114.437 193.213 110.831 194.752 107.016 195.169C103.2 195.585 99.3471 194.861 95.9433 193.088C91.3823 190.707 87.9525 186.614 86.4067 181.706C84.8609 176.799 85.3254 171.478 87.6983 166.913Z" fill="#5B6CB1"/>
<path d="M481.347 548.42L397.536 509.698L402.058 499.916C412.209 477.964 441.062 469.561 463.048 479.72C485.035 489.88 496.011 516.643 485.878 538.621L481.347 548.42ZM417.767 499.793L475.789 526.574C478.687 512.973 470.521 498.028 457.403 491.952C444.284 485.876 426.249 488.756 417.767 499.793Z" fill="#46B17B"/>
<path d="M409.671 505.447L405.913 513.587" stroke="#070000" stroke-width="2" stroke-linecap="round" stroke-linejoin="round"/>
<path d="M415.519 510.619L412.692 516.722" stroke="#070000" stroke-width="2" stroke-linecap="round" stroke-linejoin="round"/>
<path d="M423.237 511.717L419.479 519.856" stroke="#070000" stroke-width="2" stroke-linecap="round" stroke-linejoin="round"/>
<path d="M429.085 516.88L426.267 522.991" stroke="#070000" stroke-width="2" stroke-linecap="round" stroke-linejoin="round"/>
<path d="M436.812 517.977L433.054 526.125" stroke="#070000" stroke-width="2" stroke-linecap="round" stroke-linejoin="round"/>
<path d="M442.66 523.149L439.842 529.261" stroke="#070000" stroke-width="2" stroke-linecap="round" stroke-linejoin="round"/>
<path d="M450.387 524.247L446.62 532.386" stroke="#070000" stroke-width="2" stroke-linecap="round" stroke-linejoin="round"/>
<path d="M456.226 529.418L453.408 535.521" stroke="#070000" stroke-width="2" stroke-linecap="round" stroke-linejoin="round"/>
<path d="M463.953 530.516L460.195 538.656" stroke="#070000" stroke-width="2" stroke-linecap="round" stroke-linejoin="round"/>
<path d="M469.801 535.679L466.982 541.791" stroke="#070000" stroke-width="2" stroke-linecap="round" stroke-linejoin="round"/>
<path d="M477.528 536.776L473.77 544.925" stroke="#070000" stroke-width="2" stroke-linecap="round" stroke-linejoin="round"/>
<path d="M135.711 455.534C121.013 441.169 97.858 440.309 80.3933 452.268C62.033 465.044 66.3443 482.289 75.3094 491.043C79.3929 495.047 84.7546 497.487 90.456 497.936C93.0031 498.162 95.4124 499.192 97.3351 500.878C99.2578 502.564 100.594 504.818 101.151 507.314C102.074 511.174 104.078 514.692 106.928 517.455C114.98 525.358 127.616 525.454 135.149 517.745C154.897 497.541 151.183 470.672 135.711 455.534ZM111.354 506.392C103.451 507.507 105.401 494.977 101.23 494.898C91.334 494.784 82.6851 486.547 95.0834 481.349C95.0834 481.349 106.34 476.081 112.645 483.035C120.459 491.614 119.256 505.285 111.354 506.392Z" fill="#FBFFFF"/>
<path d="M112.179 458.441C114.48 463.516 109.492 466.633 104.417 468.925C99.342 471.217 96.5849 472.437 90.7195 466.291C86.8823 462.252 88.0853 456.386 93.2044 454.086C98.3235 451.785 109.888 453.366 112.179 458.441Z" fill="#5B6CB1"/>
<path d="M138.846 466.071C141.182 471.243 140.831 478.908 135.659 481.253C130.487 483.597 118.87 479.497 116.526 474.316C114.181 469.136 120.038 463.279 125.245 460.943C126.475 460.386 127.802 460.077 129.151 460.033C130.5 459.989 131.845 460.212 133.108 460.688C134.371 461.165 135.528 461.885 136.513 462.809C137.497 463.732 138.29 464.841 138.846 466.071Z" fill="#EF7F7E"/>
<path d="M143.614 492.009C145.572 496.338 140.787 501.667 136.133 503.801C131.479 505.935 126.114 504.108 124.165 499.788C122.216 495.468 122.189 488.777 126.799 486.679C131.409 484.58 141.647 487.689 143.614 492.009Z" fill="#46B17B"/>
<path d="M85.3545 464.578C85.5791 465.075 85.6513 465.628 85.5619 466.166C85.4724 466.704 85.2254 467.204 84.852 467.601C84.4786 467.999 83.9956 468.277 83.4641 468.4C82.9327 468.523 82.3767 468.486 81.8665 468.293C81.3563 468.1 80.9148 467.76 80.5979 467.316C80.281 466.872 80.103 466.344 80.0863 465.798C80.0696 465.253 80.215 464.715 80.5041 464.253C80.7932 463.79 81.2131 463.424 81.7105 463.2C82.0401 463.05 82.3961 462.967 82.7579 462.956C83.1198 462.944 83.4803 463.004 83.8189 463.132C84.1576 463.26 84.4675 463.454 84.731 463.702C84.9945 463.95 85.2064 464.248 85.3545 464.578Z" fill="#5B6CB1"/>
<path d="M132.199 508.946C132.447 509.497 132.527 510.109 132.427 510.705C132.328 511.301 132.054 511.854 131.64 512.294C131.226 512.734 130.692 513.042 130.103 513.178C129.515 513.315 128.899 513.274 128.334 513.06C127.769 512.847 127.28 512.471 126.928 511.98C126.577 511.489 126.379 510.904 126.359 510.301C126.339 509.697 126.499 509.101 126.818 508.588C127.137 508.075 127.601 507.668 128.151 507.419C128.517 507.252 128.912 507.158 129.314 507.145C129.716 507.131 130.117 507.197 130.493 507.339C130.87 507.481 131.214 507.697 131.507 507.972C131.8 508.248 132.035 508.579 132.199 508.946Z" fill="#46B17B"/>
<path d="M393.234 279.688L436.259 245.997C436.259 245.997 446.322 240.342 453.162 248.692C460.002 257.043 452.495 265.376 452.495 265.376L406.677 298.101L388.651 299.857L385.244 294.721L393.234 279.688Z" fill="#EF7F7E"/>
<path d="M453.17 248.692C446.33 240.342 436.268 245.997 436.268 245.997L427.487 252.863C430.569 255.55 439.069 263.523 442.361 272.637L452.494 265.402C452.494 265.402 460.019 257.043 453.17 248.692Z" fill="#FBFFFF"/>
<path d="M453.171 248.692C446.33 240.342 436.268 245.997 436.268 245.997L431.939 249.386C435.623 251.584 438.837 254.487 441.398 257.928C443.96 261.369 445.818 265.281 446.866 269.441L452.521 265.402C452.521 265.402 460.019 257.043 453.171 248.692Z" fill="#5B6CB1"/>
<path d="M393.234 279.688L399.24 283.736L404.789 291.235L406.686 298.128L388.659 299.875L385.252 294.738L393.234 279.688Z" fill="#F8B193"/>
<path d="M399.24 283.737L433.361 258.633" stroke="#070000" stroke-width="2" stroke-linecap="round" stroke-linejoin="round"/>
<path d="M404.789 291.235L439.165 266.192" stroke="#070000" stroke-width="2" stroke-linecap="round" stroke-linejoin="round"/>
<path d="M385.252 294.739C385.883 294.581 386.547 294.613 387.159 294.832C387.772 295.051 388.306 295.446 388.694 295.968C390.248 298.374 388.694 299.875 388.694 299.875C388.694 299.875 383.356 301.956 382.434 300.753C381.512 299.551 385.252 294.739 385.252 294.739Z" fill="#070000"/>
<path d="M412.613 188.115C417.53 187.167 424.739 183.637 434.503 176.595C451.388 164.416 465.85 149.006 462.934 144.985C460.019 140.963 440.834 149.779 423.948 161.984C414.184 169.009 408.521 174.725 406.106 179.089L412.613 188.115Z" fill="#EF7F7E"/>
<path d="M412.613 188.115L401.031 193.717L396.448 187.351L406.106 179.088L412.613 188.115Z" fill="#FBFFFF"/>
<path d="M401.031 193.717C401.031 193.717 400.697 202.428 393.313 204.307C385.928 206.186 377.508 203.279 377.508 203.279C377.508 203.279 376.946 184.84 396.474 187.351L401.031 193.717Z" fill="#070000"/>
<path d="M109.953 302.351L93.3662 292.877L148.632 267.457L145.751 317.498L128.664 311.852L115.09 324.312L109.953 302.351Z" fill="#FBFFFF"/>
<path d="M148.632 267.457L109.953 302.351L115.09 324.312L148.632 267.457Z" fill="#FDCE64"/>
<path d="M128.664 311.852L123.449 310.148L115.09 324.312L128.664 311.852Z" fill="#5B6CB1"/>
<path d="M250.595 189.337C248.738 193.354 245.362 196.468 241.209 197.995C237.057 199.522 232.467 199.337 228.451 197.48L195.191 182.105L209.163 151.882L242.454 167.272C246.45 169.129 249.549 172.492 251.074 176.626C252.599 180.76 252.427 185.33 250.595 189.337Z" fill="#FBFFFF"/>
<path d="M223.145 196.007L237.113 165.792L209.169 152.874L195.201 183.089L223.145 196.007Z" fill="#46B17B"/>
<path d="M225.607 189.695L237.117 164.796L209.174 151.878L197.663 176.777L225.607 189.695Z" fill="#C1D57E"/>
<path d="M252.513 185.177C251.665 187.012 250.463 188.663 248.976 190.033C247.489 191.404 245.747 192.469 243.848 193.166C241.95 193.863 239.933 194.179 237.912 194.097C235.891 194.014 233.907 193.534 232.072 192.684L197.652 176.773" stroke="#070000" stroke-width="2" stroke-linecap="round" stroke-linejoin="round"/>
<path d="M435.188 283.161C437.228 287.004 437.194 292.046 436.672 296.158C435.761 303.381 433.24 310.01 427.398 314.675C424.35 317.216 420.586 318.754 416.623 319.079C413.049 319.314 408.808 318.568 405.916 316.269C403.025 313.97 399.635 309.464 403.058 306.201C407.274 302.182 415.662 303.591 420.763 304.942C424.539 305.919 427.849 308.189 430.113 311.352C432.178 314.297 432.532 317.703 431.799 321.286C431.004 325.098 429.346 328.679 426.951 331.757C423.739 336.053 418.605 339.308 413.968 341.825" stroke="#FBFFFF" stroke-width="2" stroke-linecap="round" stroke-linejoin="round"/>
<path d="M278.317 179.433C282.414 175.44 289.437 174.307 294.799 173.678C302.673 172.755 312.209 173.124 318.759 178.276C321.659 180.558 323.969 184.224 322.975 187.983C321.837 192.304 316.112 194.058 312.183 194.595C308.971 195.022 302.378 195.375 299.976 192.447C296.199 187.84 304.376 182.622 307.201 181.002C311.849 178.411 316.884 176.576 322.115 175.566C327.68 174.71 333.334 174.575 338.934 175.163" stroke="#FBFFFF" stroke-width="2" stroke-linecap="round" stroke-linejoin="round"/>
<path d="M123.343 328.678C126.354 325.612 130.108 323.37 134.244 322.167C140.988 320.145 149.604 320.883 155.481 325.053C160.539 328.602 163.557 334.685 161.643 340.718C159.957 345.945 155.337 348.47 150.144 349.435C146.426 350.123 142.059 349.51 140.575 345.567C138.13 339.09 144.858 333.343 149.385 329.835C152.869 327.094 156.731 324.865 160.851 323.216C162.565 322.342 164.42 321.775 166.331 321.538" stroke="#FBFFFF" stroke-width="2" stroke-linecap="round" stroke-linejoin="round"/>
<path d="M166.972 185.105L171.693 190.072L178.48 189.007L175.2 195.014L178.311 201.106L171.558 199.855L166.693 204.68L165.8 197.909L159.688 194.796L165.884 191.86L166.972 185.105Z" stroke="#FBFFFF" stroke-width="2" stroke-linecap="round" stroke-linejoin="round"/>
<path d="M360.947 253.242L360.492 260.063L365.879 264.3L359.219 265.978L356.833 272.389L353.174 266.599L346.311 266.322L350.703 261.07L348.857 254.492L355.231 257.026L360.947 253.242Z" stroke="#FBFFFF" stroke-width="2" stroke-linecap="round" stroke-linejoin="round"/>
<path d="M331.81 368.372L333.403 375.017L339.811 377.475L333.951 381.041L333.581 387.871L328.362 383.424L321.727 385.178L324.357 378.868L320.631 373.129L327.477 373.675L331.81 368.372Z" stroke="#FBFFFF" stroke-width="2" stroke-linecap="round" stroke-linejoin="round"/>
<path d="M239.621 240.762L231.955 225" stroke="#FBFFFF" stroke-width="2" stroke-linecap="round" stroke-linejoin="round"/>
<path d="M230.657 245.121L216.776 228.8" stroke="#FBFFFF" stroke-width="2" stroke-linecap="round" stroke-linejoin="round"/>
<path d="M228.078 252.038L213 249.734" stroke="#FBFFFF" stroke-width="2" stroke-linecap="round" stroke-linejoin="round"/>
<path d="M303.06 228.902L303.248 212.842" stroke="#FBFFFF" stroke-width="2" stroke-linecap="round" stroke-linejoin="round"/>
<path d="M312.813 231.002L317.757 218.165" stroke="#FBFFFF" stroke-width="2" stroke-linecap="round" stroke-linejoin="round"/>
<path d="M319.091 235.648L329.554 229.346" stroke="#FBFFFF" stroke-width="2" stroke-linecap="round" stroke-linejoin="round"/>
<path d="M231.981 328.896C223.441 334.702 203.797 355.829 207.532 366.753C211.267 377.677 217.489 378.767 228.305 378.625C236.694 378.524 258.066 378.776 263.85 378.893C265.975 378.962 268.064 378.323 269.784 377.079C271.505 375.834 272.76 374.055 273.351 372.022C273.402 371.812 273.452 371.602 273.494 371.384C274.278 367.617 277.642 353.505 280.18 342.127C281.664 335.482 279.91 330.583 270.189 328.359C270.156 328.359 240.859 322.906 231.981 328.896Z" fill="#EF7F7E"/>
<path d="M231.981 328.896C231.981 328.896 242.174 328.578 237.621 340.265C233.069 351.953 224.79 382.837 214.698 376.007" stroke="#070000" stroke-width="2" stroke-linecap="round" stroke-linejoin="round"/>
<path d="M227.032 402.277C227.032 402.277 217.641 402.277 213.88 409.929C210.12 417.581 207.49 419.854 206.925 428.832L236.804 429.276L227.032 402.277Z" fill="#EF7F7E"/>
<path d="M229.806 409.928C229.806 409.928 219.689 419.459 224.351 429.091L236.804 429.276L229.806 409.928Z" fill="#F8B193"/>
<path d="M261.793 334.022C261.793 334.022 246.196 334.476 237.116 348.613C228.584 361.895 219.58 374.79 223.087 394.759C225.093 406.465 228.37 417.921 232.858 428.924L289.951 434.377C289.951 434.377 301.754 428.143 294.217 415.181C286.68 402.218 283.966 395.732 283.966 395.732L307.437 383.424C307.437 383.424 297.37 349.611 280.205 339.635L261.793 334.022Z" fill="#46B17B"/>
<path d="M287.911 369.614C287.911 369.614 287.068 344.645 280.205 339.636C280.205 339.636 288.29 343.285 291.831 349.704C291.831 349.754 295.01 358.069 287.911 369.614Z" fill="#EF7F7E"/>
<path d="M261.792 334.022C261.792 334.022 256.801 356.164 265.089 359.906C273.376 363.648 277.204 351.977 277.204 351.977C277.204 351.977 281.082 361.081 286.975 360.082C293.568 358.966 290.103 347.967 280.231 339.635L261.792 334.022Z" fill="#FBFFFF"/>
<path d="M249.391 333.15L263.58 358.899C263.58 358.899 264.811 339.015 258.42 332.277L249.391 333.15Z" fill="#EF7F7E"/>
<path d="M223.348 366.107C226.305 367.329 229.475 367.959 232.677 367.959C235.879 367.959 239.049 367.329 242.005 366.107V374.413C242.005 374.413 229.418 377.333 221.873 373.314L223.348 366.107Z" fill="#EF7F7E"/>
<path d="M236.837 385.262C236.837 385.262 259.466 399.726 279.944 396.605" stroke="#070000" stroke-width="2" stroke-linecap="round" stroke-linejoin="round"/>
<path d="M229.73 301.863C225.765 301.595 221.789 302.19 218.079 303.608C211.815 305.974 206.554 316.722 206.554 316.722L200.653 319.239C200.653 319.239 190.73 315.422 189.288 318.4C188.445 320.212 192.981 323.703 192.981 323.703C192.981 323.703 188.192 327 189.145 329.181C190.097 331.363 197.803 328.745 197.803 328.745C197.803 328.745 195.923 334.358 198.646 334.727C201.369 335.097 204.657 327.126 204.657 327.126L209.716 323.636C209.716 323.636 220.423 326.69 226.577 322.948C230.233 320.745 233.272 317.66 235.413 313.978L229.73 301.863Z" fill="#070000"/>
<path d="M200.695 319.264C200.695 319.264 198.722 324.986 204.733 327.167L209.792 323.677C209.792 323.677 206.343 320.741 206.537 316.722L200.695 319.264Z" fill="#46B17B"/>
<path d="M243.945 295.503C243.945 295.503 229.663 269.695 249.956 253.804C270.249 237.913 317.039 240.682 325.082 270.886C325.082 270.886 327.561 287.105 327.94 290.1C327.94 290.1 339.743 295.52 336.017 312.913C332.56 328.904 300.692 332.546 283.965 333.293L280.205 340.777C280.205 340.777 282.279 350.845 277.204 351.994C272.129 353.144 261.793 334.039 261.793 334.039L264.423 327.688C264.423 327.688 254.306 321.89 249.585 315.346L243.945 295.503Z" fill="#F8B193"/>
<path d="M249.956 253.804C229.663 269.695 243.945 295.503 243.945 295.503L244.729 298.272C253.117 296.913 273.393 291.081 275.509 266.515C275.509 266.515 301.409 279.327 325.082 270.869C317.039 240.682 270.249 237.904 249.956 253.804Z" fill="black"/>
<path d="M253.497 299.413C256.397 308.348 253.21 317.376 246.39 319.549C239.569 321.722 231.678 316.269 228.778 307.333C225.878 298.398 229.064 289.37 235.885 287.197C242.705 285.024 250.597 290.444 253.497 299.413Z" fill="#F8B193"/>
<path d="M253.05 313.315C252.479 314.563 251.713 315.712 250.782 316.722" stroke="#070000" stroke-width="2" stroke-linecap="round" stroke-linejoin="round"/>
<path d="M280.205 340.76L277.204 347.112" stroke="#070000" stroke-width="2" stroke-linecap="round" stroke-linejoin="round"/>
<path d="M283.965 333.276C280.153 332.997 276.41 332.114 272.879 330.658C272.879 330.658 278.182 337.32 281.453 338.285L283.965 333.276Z" fill="#070000"/>
<path d="M235.489 296.25L248.826 303.356" stroke="#070000" stroke-width="2" stroke-linecap="round" stroke-linejoin="round"/>
<path d="M242.157 299.799C242.157 299.799 236.618 305.043 243.565 308.97" stroke="#070000" stroke-width="2" stroke-linecap="round" stroke-linejoin="round"/>
<path d="M290.356 281.164C291.549 279.383 293.389 278.132 295.49 277.674" stroke="#070000" stroke-width="2" stroke-linecap="round" stroke-linejoin="round"/>
<path d="M322.553 280.485C321.148 278.875 319.173 277.868 317.039 277.674" stroke="#070000" stroke-width="2" stroke-linecap="round" stroke-linejoin="round"/>
<path d="M325.183 305.328C331.576 305.328 336.759 297.466 336.759 287.768C336.759 278.069 331.576 270.207 325.183 270.207C318.79 270.207 313.608 278.069 313.608 287.768C313.608 297.466 318.79 305.328 325.183 305.328Z" stroke="white" stroke-width="2" stroke-linecap="round" stroke-linejoin="round"/>
<path d="M308.642 286.593C308.642 286.593 311.762 285.284 313.642 286.593" stroke="white" stroke-width="2" stroke-linecap="round" stroke-linejoin="round"/>
<path d="M276.1 287.575L265.409 288.145" stroke="white" stroke-width="2" stroke-linecap="round" stroke-linejoin="round"/>
<path d="M311.593 296.25C311.593 296.25 316.095 292.138 318.338 294.756C320.58 297.374 314.4 303.356 314.4 303.356" fill="#F2A56D"/>
<path d="M311.593 296.25C311.593 296.25 316.095 292.138 318.338 294.756C320.58 297.374 314.4 303.356 314.4 303.356" fill="#F8B193"/>
<path d="M311.593 296.25C311.593 296.25 316.095 292.138 318.338 294.756C320.58 297.374 314.4 303.356 314.4 303.356" stroke="#070000" stroke-width="2" stroke-linecap="round" stroke-linejoin="round"/>
<path d="M308.642 286.593C308.642 286.593 310.328 292.668 313.397 294.933" stroke="#070000" stroke-width="2" stroke-linecap="round" stroke-linejoin="round"/>
<path d="M292.498 305.135C301.549 305.135 308.887 297.273 308.887 287.574C308.887 277.876 301.549 270.014 292.498 270.014C283.446 270.014 276.108 277.876 276.108 287.574C276.108 297.273 283.446 305.135 292.498 305.135Z" stroke="white" stroke-width="2" stroke-linecap="round" stroke-linejoin="round"/>
<path d="M298.686 307.157C299.534 306.958 300.306 306.516 300.905 305.885C301.504 305.254 301.905 304.463 302.058 303.608" stroke="#070000" stroke-width="2" stroke-linecap="round" stroke-linejoin="round"/>
<path d="M300.911 305.831C300.911 305.831 309.064 313.021 317.022 307.786" stroke="#070000" stroke-width="2" stroke-linecap="round" stroke-linejoin="round"/>
<path d="M296.494 293.137C297.741 293.137 298.753 292.13 298.753 290.888C298.753 289.646 297.741 288.64 296.494 288.64C295.246 288.64 294.234 289.646 294.234 290.888C294.234 292.13 295.246 293.137 296.494 293.137Z" fill="#070000"/>
<path d="M320.294 292.256C321.541 292.256 322.553 291.25 322.553 290.008C322.553 288.766 321.541 287.759 320.294 287.759C319.046 287.759 318.034 288.766 318.034 290.008C318.034 291.25 319.046 292.256 320.294 292.256Z" fill="#070000"/>
<path d="M242.806 382.308L241.188 358.396" stroke="#070000" stroke-width="2" stroke-linecap="round" stroke-linejoin="round"/>
<path d="M266.91 373.314L263.58 358.899C263.58 358.899 260.798 350.853 256.54 348.739" stroke="#070000" stroke-width="2" stroke-linecap="round" stroke-linejoin="round"/>
<path d="M257.389 384.559C264.046 382.076 268.306 377.044 266.904 373.321C265.502 369.599 258.968 368.594 252.31 371.078C245.653 373.562 241.392 378.593 242.795 382.316C244.197 386.039 250.731 387.043 257.389 384.559Z" fill="#070000"/>
<path d="M307.437 383.424C308.229 384.959 303.744 388.827 297.421 392.049C291.098 395.271 285.323 396.638 284.53 395.103C283.738 393.568 288.223 389.691 294.546 386.469C300.869 383.248 306.644 381.88 307.437 383.424Z" fill="#070000"/>
<path d="M252.586 413.52L244.577 376.2C244.577 376.2 246.196 373.029 253.455 370.704C253.455 370.704 257.805 368.917 261.953 369.949L270.628 413.52H252.586Z" fill="#F8B193"/>
<path d="M263.049 375.428L261.953 369.933C257.805 368.901 253.455 370.688 253.455 370.688C246.196 373.012 244.577 376.183 244.577 376.183L245.622 381.033C247.797 378.709 253.311 374.153 263.049 375.428Z" fill="#FBFFFF"/>
<path d="M287.911 390.572L297.682 418.671C297.682 418.671 297.497 428.269 304.073 428.831L317.983 423.109C318.634 423.437 319.349 423.617 320.078 423.637C320.807 423.657 321.531 423.517 322.199 423.227C324.357 422.195 324.357 420.793 324.357 420.793C324.666 421.283 325.128 421.657 325.672 421.86C326.215 422.063 326.811 422.084 327.367 421.918C329.247 421.263 328.96 419.854 328.96 419.854C328.96 419.854 331.877 422.27 332.999 419.384C334.12 416.498 333.471 409.316 331.405 408.921C329.34 408.527 326.347 409.928 326.347 409.928C325.626 409.41 324.794 409.064 323.916 408.918C323.039 408.773 322.139 408.831 321.288 409.089C320.965 408.362 320.384 407.78 319.656 407.452C318.928 407.124 318.105 407.073 317.343 407.31C314.341 407.965 310.598 411.279 310.598 411.279L301.678 383.533C296.732 385.111 292.081 387.49 287.911 390.572Z" fill="#F8B193"/>
<path d="M301.619 383.55C296.695 385.129 292.064 387.502 287.911 390.572L289.681 395.648C293.38 391.821 297.759 388.709 302.597 386.47L301.619 383.55Z" fill="#FBFFFF"/>
<path d="M287.911 369.613C287.911 369.613 288.155 384.078 283.965 395.732" stroke="#070000" stroke-width="2" stroke-linecap="round" stroke-linejoin="round"/>
<path d="M310.539 411.296L306.391 414.812" stroke="#070000" stroke-width="2" stroke-linecap="round" stroke-linejoin="round"/>
<path d="M306.813 419.737C306.813 419.737 316.019 416.615 316.93 420.173C317.697 423.277 313.557 424.93 313.557 424.93" stroke="#070000" stroke-width="2" stroke-linecap="round" stroke-linejoin="round"/>
<path d="M321.263 409.106C322.88 412.826 323.925 416.766 324.366 420.794" stroke="#070000" stroke-width="2" stroke-linecap="round" stroke-linejoin="round"/>
<path d="M326.339 409.928C326.339 409.928 328.935 414.87 328.969 419.854" stroke="#070000" stroke-width="2" stroke-linecap="round" stroke-linejoin="round"/>
<path d="M316.5 419.392C315.45 418.08 314.811 416.49 314.662 414.819" stroke="#070000" stroke-width="2" stroke-linecap="round" stroke-linejoin="round"/>
<path d="M251.043 286.962C251.043 286.962 248.809 282.079 253.362 280.326C257.577 278.698 261 280.762 259.997 286.366C259.997 286.366 263.951 279.889 267.77 285.871C271.016 290.956 266.261 291.912 263.63 291.912C263.63 291.912 270.021 295.47 265.013 299.833C260.3 303.935 257.619 298.213 257.619 298.213C257.619 298.213 256.388 303.247 252.047 301.704C247.831 300.21 247.477 295.344 249.517 294.471C249.517 294.471 243.531 295.117 244.324 290.167C245.344 283.472 251.043 286.962 251.043 286.962Z" fill="#FBFFFF"/>
<path d="M256.026 296.25C258.778 296.25 261.008 294.03 261.008 291.291C261.008 288.553 258.778 286.333 256.026 286.333C253.274 286.333 251.043 288.553 251.043 291.291C251.043 294.03 253.274 296.25 256.026 296.25Z" fill="#FDCE64"/>
<path d="M284.378 439.495L325.411 417.991V449.404H283.839L284.378 439.495Z" fill="#EF7F7E"/>
<path d="M303.693 445.663C303.693 445.663 293.576 421.163 264.347 414.812C235.117 408.46 208.805 425.35 182.122 415.777L147.26 463.232L160.75 493.344L290.398 500.056L388.111 489.988L413.664 453.34V424.905C402.305 424.438 390.998 423.117 379.84 420.953C362.135 417.43 322.612 396.857 303.693 445.663Z" fill="#FBFFFF"/>
<path d="M182.122 415.776L192.272 448.339L160.699 493.344L147.26 463.231L182.122 415.776Z" fill="#F8B193"/>
<path d="M182.122 415.776L192.272 448.347" stroke="#070000" stroke-width="2" stroke-linecap="round" stroke-linejoin="round"/>
<path d="M155.818 495.961L189.06 443.942L287.911 453.667C287.911 453.667 294.833 464.515 307.437 463.022C320.041 461.528 324.366 454.791 324.366 454.791L419.254 448.809L420.384 454.296L379.419 502.288L300.169 509.772C300.169 509.772 292.523 521.61 278.249 519.118C263.032 516.467 260.688 509.394 260.688 509.394L157.066 502.195L155.818 495.961Z" fill="#5B6CB1"/>
<path d="M269.49 491.699C269.49 491.699 287.473 506.197 308.895 494.048L303.66 503.521C303.66 503.521 283.738 513.186 265.721 499.25L269.49 491.699Z" fill="#FDCE64"/>
<path d="M157.066 502.229L192.273 450.713L285.938 458.566C285.938 458.566 293.526 470.564 310.539 468.634C322.815 467.267 327.654 460.034 327.654 460.034L420.392 454.304" stroke="#070000" stroke-width="2" stroke-linecap="round" stroke-linejoin="round"/>
<path d="M419.254 448.842L324.366 454.824C324.366 454.824 320.041 461.536 307.437 463.055C294.833 464.573 287.911 453.7 287.911 453.7L189.06 443.976L155.818 495.995" stroke="#070000" stroke-width="2" stroke-linecap="round" stroke-linejoin="round"/>
<path d="M287.911 453.7C289.793 451.295 292.181 449.329 294.907 447.941C297.634 446.552 300.633 445.775 303.693 445.662C314.409 445.1 324.366 454.824 324.366 454.824C324.366 454.824 316.694 463.894 305.143 463.214C290.356 462.308 287.911 453.7 287.911 453.7Z" fill="#070000"/>
<path d="M260.688 509.428L285.938 458.566" stroke="#070000" stroke-width="2" stroke-linecap="round" stroke-linejoin="round"/>
<path d="M300.195 509.805L327.654 460.06" stroke="#070000" stroke-width="2" stroke-linecap="round" stroke-linejoin="round"/>
<path d="M310.539 446.568C310.539 446.568 321.634 424.88 340.89 423.034C364.378 420.794 384.486 434.688 413.614 432.951" stroke="#070000" stroke-width="2" stroke-linecap="round" stroke-linejoin="round"/>
<path d="M315.581 448.641C319.314 443.143 324.244 438.555 330.006 435.216" stroke="#070000" stroke-width="2" stroke-linecap="round" stroke-linejoin="round"/>
<path d="M320.58 451.728C320.58 451.728 333.125 430.61 368.712 438.186C395.96 443.976 413.622 443.413 413.622 443.413" stroke="#070000" stroke-width="2" stroke-linecap="round" stroke-linejoin="round"/>
<path d="M332.476 454.312C332.476 454.312 343.908 447.533 357.06 447.349C370.212 447.164 387.748 450.83 387.748 450.83L332.476 454.312Z" fill="#070000"/>
<path d="M336.784 439.529C336.784 439.529 336.017 435.25 341.657 433.37L362.076 433.068L362.608 436.878C362.608 436.878 347.786 434.495 336.784 439.529Z" fill="#070000"/>
<path d="M341.657 433.37C341.657 433.37 352.297 435.25 350.864 449.522C349.548 462.493 339.583 470.724 342.593 482.31C342.593 482.31 347.854 476.144 352.55 473.92C352.55 473.92 354.236 481.22 359.126 483.46C359.126 483.46 360.365 474.331 366.351 463.265C373.222 450.554 369.723 437.339 362.077 433.06L341.657 433.37Z" fill="#FDCE64"/>
<path d="M160.758 458.566L150.869 471.311" stroke="#070000" stroke-width="2" stroke-linecap="round" stroke-linejoin="round"/>
<path d="M233.659 425.971C232.437 426.172 231.206 426.399 229.958 426.65C203.047 432.062 185.511 426.65 185.511 426.65L167.865 449.404" stroke="#070000" stroke-width="2" stroke-linecap="round" stroke-linejoin="round"/>
<path d="M297.539 447.341C284.893 432.045 269.237 425.023 250.757 424.628" stroke="#070000" stroke-width="2" stroke-linecap="round" stroke-linejoin="round"/>
<path d="M264.878 437.725C256.486 435.316 247.642 434.911 239.063 436.542C209.598 442.499 189.06 438.027 189.06 438.027L155.818 481.589" stroke="#070000" stroke-width="2" stroke-linecap="round" stroke-linejoin="round"/>
<path d="M292.548 451.728C286.889 447.289 280.649 443.636 274 440.872" stroke="#070000" stroke-width="2" stroke-linecap="round" stroke-linejoin="round"/>
<path d="M278.797 452.811C278.797 452.811 268.2 446.845 256.346 445.637C247.479 444.828 238.537 445.629 229.958 448.003L278.797 452.811Z" fill="#070000"/>
<path d="M189.06 443.976L192.272 450.713" stroke="#070000" stroke-width="2" stroke-linecap="round" stroke-linejoin="round"/>
<path d="M252.586 413.519C252.586 413.519 256.979 406.035 263.9 406.597C270.822 407.159 284.716 409.777 286.225 416.883C287.734 423.99 285.475 429.972 282.178 428.848C282.178 428.848 280.585 431.281 278.334 430.719C277.723 430.604 277.165 430.298 276.742 429.845C276.318 429.392 276.052 428.816 275.982 428.202C274.909 428.551 273.745 428.486 272.718 428.019C271.692 427.553 270.88 426.72 270.443 425.685C270.443 425.685 268.09 426.624 264.895 423.067C261.7 419.51 260.106 414.089 260.106 414.089L252.586 413.519Z" fill="#F8B193"/>
<path d="M252.586 413.519C252.586 413.519 256.979 406.035 263.9 406.597C270.822 407.159 284.716 409.777 286.225 416.883" stroke="#070000" stroke-width="2" stroke-linecap="round" stroke-linejoin="round"/>
<path d="M270.443 425.651C270.443 425.651 269.406 413.301 265.738 406.765" stroke="#070000" stroke-width="2" stroke-linecap="round" stroke-linejoin="round"/>
<path d="M275.981 428.177C275.981 428.177 276.04 415.735 271.96 407.814" stroke="#070000" stroke-width="2" stroke-linecap="round" stroke-linejoin="round"/>
<path d="M282.178 428.831C282.178 428.831 282.642 415.248 278.806 409.928" stroke="#070000" stroke-width="2" stroke-linecap="round" stroke-linejoin="round"/>
<path d="M260.106 414.056L259.069 411.254" stroke="#070000" stroke-width="2" stroke-linecap="round" stroke-linejoin="round"/>
<path d="M258.565 135.901L260.649 136.48L258.565 137.059C257.81 137.269 257.129 137.698 256.601 138.294C256.073 138.89 255.72 139.63 255.583 140.426L254.803 144.96L254.024 140.426C253.883 139.63 253.528 138.891 252.999 138.295C252.469 137.699 251.788 137.271 251.033 137.059L249 136.48L251.076 135.901C251.83 135.689 252.512 135.26 253.041 134.665C253.57 134.069 253.926 133.33 254.066 132.534L254.846 128L255.625 132.534C255.759 133.325 256.106 134.06 256.626 134.656C257.146 135.252 257.818 135.683 258.565 135.901Z" fill="#FBFFFF"/>
<path d="M326.616 85.8923L328.7 86.4711L326.616 87.0498C325.861 87.2594 325.179 87.6875 324.651 88.2839C324.123 88.8804 323.77 89.6205 323.634 90.4172L322.846 94.9422L322.066 90.4172C321.93 89.6205 321.577 88.8804 321.049 88.2839C320.521 87.6875 319.839 87.2594 319.084 87.0498L317 86.4711L319.084 85.8923C319.84 85.6812 320.522 85.2514 321.05 84.6535C321.578 84.0555 321.931 83.3141 322.066 82.5162L322.846 78L323.634 82.5249C323.771 83.3213 324.124 84.0608 324.652 84.6571C325.18 85.2534 325.861 85.6818 326.616 85.8923Z" fill="#FBFFFF"/>
<path d="M201.616 297.901L203.7 298.48L201.616 299.059C200.861 299.269 200.18 299.698 199.652 300.294C199.124 300.89 198.771 301.63 198.634 302.426L197.854 306.96L197.066 302.426C196.929 301.63 196.576 300.89 196.048 300.294C195.52 299.698 194.839 299.269 194.084 299.059L192 298.48L194.084 297.901C194.839 297.691 195.52 297.262 196.048 296.666C196.576 296.07 196.929 295.33 197.066 294.534L197.854 290L198.634 294.534C198.771 295.33 199.124 296.07 199.652 296.666C200.18 297.262 200.861 297.691 201.616 297.901Z" fill="#FBFFFF"/>
<path d="M129.413 95.2265L130.803 95.6123L129.413 95.9982C128.904 96.1438 128.446 96.4377 128.093 96.8449C127.74 97.2522 127.507 97.7557 127.422 98.2957L126.897 101.312L126.38 98.2957C126.288 97.7636 126.052 97.2695 125.7 96.8706C125.348 96.4717 124.893 96.1844 124.389 96.042L123 95.6562L124.389 95.2703C124.892 95.1286 125.346 94.8426 125.698 94.4453C126.05 94.0481 126.287 93.5558 126.38 93.0254L126.897 90L127.422 93.0254C127.523 93.5479 127.763 94.0308 128.115 94.4197C128.467 94.8086 128.916 95.088 129.413 95.2265Z" fill="#FBFFFF"/>
<path d="M400.616 114.884L402.691 115.462L400.616 116.041C399.859 116.252 399.176 116.681 398.646 117.279C398.117 117.877 397.762 118.619 397.625 119.417L396.846 123.942L396.066 119.417C395.929 118.621 395.576 117.881 395.048 117.285C394.52 116.689 393.839 116.26 393.084 116.05L391 115.471L393.084 114.892C393.839 114.683 394.521 114.255 395.049 113.658C395.577 113.062 395.93 112.322 396.066 111.525L396.846 107L397.625 111.525C397.764 112.321 398.12 113.059 398.649 113.654C399.179 114.249 399.861 114.675 400.616 114.884Z" fill="#FBFFFF"/>
<path d="M394.565 244.901L396.649 245.48L394.565 246.059C393.81 246.269 393.129 246.698 392.601 247.294C392.073 247.89 391.72 248.63 391.583 249.426L390.803 253.96L390.024 249.426C389.883 248.63 389.528 247.891 388.999 247.295C388.469 246.699 387.788 246.271 387.033 246.059L385 245.48L387.076 244.901C387.83 244.689 388.512 244.26 389.041 243.665C389.57 243.069 389.926 242.33 390.066 241.534L390.846 237L391.625 241.534C391.759 242.325 392.106 243.06 392.626 243.656C393.146 244.252 393.818 244.683 394.565 244.901Z" fill="#FBFFFF"/>
<path d="M167.616 157.892L169.7 158.471L167.616 159.05C166.861 159.259 166.179 159.687 165.651 160.284C165.123 160.88 164.77 161.62 164.634 162.417L163.846 166.942L163.066 162.417C162.93 161.62 162.577 160.88 162.049 160.284C161.521 159.687 160.839 159.259 160.084 159.05L158 158.471L160.084 157.892C160.84 157.681 161.522 157.251 162.05 156.653C162.578 156.056 162.931 155.314 163.066 154.516L163.846 150L164.634 154.525C164.771 155.321 165.124 156.061 165.652 156.657C166.18 157.253 166.861 157.682 167.616 157.892Z" fill="#FBFFFF"/>
<path d="M139.616 360.901L141.7 361.48L139.616 362.059C138.861 362.269 138.18 362.698 137.652 363.294C137.124 363.89 136.771 364.63 136.634 365.426L135.854 369.96L135.066 365.426C134.929 364.63 134.576 363.89 134.048 363.294C133.52 362.698 132.839 362.269 132.084 362.059L130 361.48L132.084 360.901C132.839 360.691 133.52 360.262 134.048 359.666C134.576 359.07 134.929 358.33 135.066 357.534L135.854 353L136.634 357.534C136.771 358.33 137.124 359.07 137.652 359.666C138.18 360.262 138.861 360.691 139.616 360.901Z" fill="#FBFFFF"/>
<path d="M360.413 183.977L361.803 184.363L360.413 184.749C359.904 184.894 359.446 185.188 359.093 185.595C358.74 186.003 358.507 186.506 358.422 187.046L357.897 190.063L357.38 187.046C357.288 186.514 357.052 186.02 356.7 185.621C356.348 185.222 355.893 184.935 355.389 184.792L354 184.407L355.389 184.021C355.892 183.879 356.346 183.593 356.698 183.196C357.05 182.799 357.287 182.306 357.38 181.776L357.897 178.75L358.422 181.776C358.523 182.298 358.763 182.781 359.115 183.17C359.467 183.559 359.916 183.839 360.413 183.977Z" fill="#FBFFFF"/>
<path d="M456.982 196.415L459.058 196.994L456.982 197.573C456.225 197.783 455.542 198.213 455.012 198.811C454.483 199.409 454.129 200.15 453.991 200.949L453.212 205.474L452.433 200.949C452.295 200.153 451.942 199.413 451.414 198.817C450.886 198.22 450.205 197.792 449.45 197.582L447.366 197.003L449.45 196.424C450.205 196.215 450.887 195.786 451.415 195.19C451.944 194.593 452.296 193.853 452.433 193.057L453.212 188.532L453.991 193.057C454.131 193.853 454.486 194.591 455.015 195.186C455.545 195.78 456.227 196.207 456.982 196.415Z" fill="#FBFFFF"/>
</svg>
