<svg width="346" height="140" viewBox="0 0 346 140" fill="none" xmlns="http://www.w3.org/2000/svg">
<rect width="346" height="140" rx="18" fill="#C0E6F8"/>
<path fill-rule="evenodd" clip-rule="evenodd" d="M346 98.9055C340.77 99.6271 335.428 100 330 100C271.363 100 222.888 56.4935 215.094 0L196.183 0C196.246 0.531405 196.312 1.06251 196.382 1.59327C196.454 2.14088 196.068 2.64293 195.52 2.71463C194.973 2.78633 194.471 2.40052 194.399 1.85291C194.318 1.2357 194.241 0.618051 194.169 0H18C8.05887 0 0 8.05888 0 18V122C0 131.941 8.05887 140 18 140H328C337.941 140 346 131.941 346 122V119.831C342.665 120.222 339.317 120.49 335.966 120.635C335.414 120.659 334.948 120.231 334.924 119.679C334.9 119.128 335.328 118.661 335.879 118.637C339.26 118.49 342.636 118.217 346 117.817V98.9055ZM197.222 12.413C197.761 12.294 198.295 12.6347 198.414 13.174C199.257 16.9941 200.268 20.7846 201.446 24.5337C201.612 25.0605 201.319 25.6219 200.792 25.7875C200.266 25.9532 199.704 25.6603 199.538 25.1335C198.342 21.3286 197.316 17.4818 196.461 13.605C196.342 13.0657 196.682 12.532 197.222 12.413ZM204.155 35.0438C204.665 34.8327 205.25 35.0752 205.461 35.5855C206.954 39.1933 208.61 42.7494 210.429 46.2425C210.684 46.7323 210.494 47.3362 210.004 47.5914C209.515 47.8465 208.911 47.6563 208.656 47.1665C206.809 43.6211 205.128 40.0119 203.613 36.3502C203.402 35.8398 203.644 35.255 204.155 35.0438ZM214.931 56.1133C215.397 55.8161 216.015 55.9526 216.312 56.4181C218.407 59.6999 220.658 62.9108 223.066 66.0404C223.402 66.4781 223.32 67.106 222.883 67.4427C222.445 67.7794 221.817 67.6976 221.48 67.2598C219.037 64.0838 216.753 60.825 214.626 57.4943C214.329 57.0287 214.466 56.4104 214.931 56.1133ZM229.222 74.9817C229.629 74.6083 230.262 74.6355 230.635 75.0424C231.955 76.4813 233.313 77.8985 234.707 79.2929C236.101 80.6872 237.519 82.0446 238.958 83.365C239.365 83.7384 239.392 84.3709 239.018 84.7779C238.645 85.1848 238.012 85.212 237.605 84.8386C236.145 83.4988 234.707 82.1217 233.293 80.7071C231.878 79.2925 230.501 77.8546 229.161 76.3946C228.788 75.9877 228.815 75.3551 229.222 74.9817ZM246.557 91.1173C246.894 90.6796 247.522 90.5977 247.96 90.9344C251.089 93.3417 254.3 95.5928 257.582 97.6877C258.047 97.9848 258.184 98.6031 257.887 99.0686C257.59 99.5342 256.971 99.6707 256.506 99.3735C253.175 97.2473 249.916 94.9627 246.74 92.5197C246.302 92.1829 246.221 91.5551 246.557 91.1173ZM266.409 103.996C266.664 103.506 267.268 103.315 267.757 103.571C271.251 105.39 274.807 107.046 278.414 108.539C278.925 108.75 279.167 109.335 278.956 109.845C278.745 110.356 278.16 110.598 277.65 110.387C273.988 108.872 270.379 107.191 266.833 105.344C266.344 105.089 266.153 104.485 266.409 103.996ZM288.212 113.208C288.378 112.681 288.939 112.388 289.466 112.554C293.215 113.732 297.006 114.743 300.826 115.586C301.365 115.705 301.706 116.239 301.587 116.778C301.468 117.318 300.934 117.658 300.395 117.539C296.518 116.684 292.671 115.658 288.866 114.461C288.34 114.296 288.047 113.734 288.212 113.208ZM311.285 118.48C311.357 117.932 311.859 117.546 312.407 117.618C316.297 118.127 320.206 118.467 324.121 118.637C324.672 118.661 325.1 119.128 325.076 119.679C325.052 120.231 324.586 120.659 324.034 120.635C320.061 120.463 316.095 120.118 312.147 119.601C311.599 119.529 311.214 119.027 311.285 118.48Z" fill="#42B0ED"/>
<rect width="346" height="140" rx="18" fill="#C0E6F8"/>
<path fill-rule="evenodd" clip-rule="evenodd" d="M346 98.9055C340.77 99.6271 335.428 100 330 100C271.363 100 222.888 56.4935 215.094 0L196.183 0C196.246 0.531405 196.312 1.06251 196.382 1.59327C196.454 2.14088 196.068 2.64293 195.52 2.71463C194.973 2.78633 194.471 2.40052 194.399 1.85291C194.318 1.2357 194.241 0.618051 194.169 0H18C8.05887 0 0 8.05888 0 18V122C0 131.941 8.05887 140 18 140H328C337.941 140 346 131.941 346 122V119.831C342.665 120.222 339.317 120.49 335.966 120.635C335.414 120.659 334.948 120.231 334.924 119.679C334.9 119.128 335.328 118.661 335.879 118.637C339.26 118.49 342.636 118.217 346 117.817V98.9055ZM197.222 12.413C197.761 12.294 198.295 12.6347 198.414 13.174C199.257 16.9941 200.268 20.7846 201.446 24.5337C201.612 25.0605 201.319 25.6219 200.792 25.7875C200.266 25.9532 199.704 25.6603 199.538 25.1335C198.342 21.3286 197.316 17.4818 196.461 13.605C196.342 13.0657 196.682 12.532 197.222 12.413ZM204.155 35.0438C204.665 34.8327 205.25 35.0752 205.461 35.5855C206.954 39.1933 208.61 42.7494 210.429 46.2425C210.684 46.7323 210.494 47.3362 210.004 47.5914C209.515 47.8465 208.911 47.6563 208.656 47.1665C206.809 43.6211 205.128 40.0119 203.613 36.3502C203.402 35.8398 203.644 35.255 204.155 35.0438ZM214.931 56.1133C215.397 55.8161 216.015 55.9526 216.312 56.4181C218.407 59.6999 220.658 62.9108 223.066 66.0404C223.402 66.4781 223.32 67.106 222.883 67.4427C222.445 67.7794 221.817 67.6976 221.48 67.2598C219.037 64.0838 216.753 60.825 214.626 57.4943C214.329 57.0287 214.466 56.4104 214.931 56.1133ZM229.222 74.9817C229.629 74.6083 230.262 74.6355 230.635 75.0424C231.955 76.4813 233.313 77.8985 234.707 79.2929C236.101 80.6872 237.519 82.0446 238.958 83.365C239.365 83.7384 239.392 84.3709 239.018 84.7779C238.645 85.1848 238.012 85.212 237.605 84.8386C236.145 83.4988 234.707 82.1217 233.293 80.7071C231.878 79.2925 230.501 77.8546 229.161 76.3946C228.788 75.9877 228.815 75.3551 229.222 74.9817ZM246.557 91.1173C246.894 90.6796 247.522 90.5977 247.96 90.9344C251.089 93.3417 254.3 95.5928 257.582 97.6877C258.047 97.9848 258.184 98.6031 257.887 99.0686C257.59 99.5342 256.971 99.6707 256.506 99.3735C253.175 97.2473 249.916 94.9627 246.74 92.5197C246.302 92.1829 246.221 91.5551 246.557 91.1173ZM266.409 103.996C266.664 103.506 267.268 103.315 267.757 103.571C271.251 105.39 274.807 107.046 278.414 108.539C278.925 108.75 279.167 109.335 278.956 109.845C278.745 110.356 278.16 110.598 277.65 110.387C273.988 108.872 270.379 107.191 266.833 105.344C266.344 105.089 266.153 104.485 266.409 103.996ZM288.212 113.208C288.378 112.681 288.939 112.388 289.466 112.554C293.215 113.732 297.006 114.743 300.826 115.586C301.365 115.705 301.706 116.239 301.587 116.778C301.468 117.318 300.934 117.658 300.395 117.539C296.518 116.684 292.671 115.658 288.866 114.461C288.34 114.296 288.047 113.734 288.212 113.208ZM311.285 118.48C311.357 117.932 311.859 117.546 312.407 117.618C316.297 118.127 320.206 118.467 324.121 118.637C324.672 118.661 325.1 119.128 325.076 119.679C325.052 120.231 324.586 120.659 324.034 120.635C320.061 120.463 316.095 120.118 312.147 119.601C311.599 119.529 311.214 119.027 311.285 118.48Z" fill="#42B0ED"/>
<path d="M283.978 26.3489L275.701 23.5876L272.94 31.8642L281.216 34.6254L283.978 26.3489Z" fill="#EF7F7E"/>
<path d="M281.583 35.6759L272.662 32.6997L269.901 40.9762L278.822 43.9525L281.583 35.6759Z" fill="#5B6CB1"/>
<path d="M279.436 45.0807L269.621 41.8062L266.86 50.0827L276.675 53.3572L279.436 45.0807Z" fill="#46B17B"/>
<path d="M239.968 5.83292L281.171 19.5792L261.694 77.9595L220.491 64.2132C218.239 63.4618 216.377 61.8466 215.316 59.7229C214.255 57.5992 214.081 55.141 214.832 52.8889L228.644 11.4913C229.395 9.23927 231.01 7.37794 233.134 6.31679C235.258 5.25564 237.716 5.08158 239.968 5.83292Z" fill="#C1D57E"/>
<path d="M214.959 53.8805C215.569 52.0307 216.88 50.5019 218.603 49.6305C220.325 48.7591 222.32 48.6163 224.146 49.2336L266.748 63.6524" stroke="#070000" stroke-linecap="round" stroke-linejoin="round"/>
<path d="M219.945 61.806C218.655 61.3665 217.589 60.4261 216.981 59.191C216.373 57.9559 216.273 56.5268 216.702 55.2168L216.901 54.6207C217.335 53.3172 218.259 52.2404 219.472 51.6252C220.685 51.01 222.089 50.9063 223.377 51.3367L266.009 65.7659L262.567 76.2298L219.945 61.806Z" fill="#FBFFFF"/>
<path d="M237.155 5.20477L223.098 49.5954" stroke="#070000" stroke-linecap="round" stroke-linejoin="round"/>
<path d="M216.439 54.7742L263.789 70.3109" stroke="#070000" stroke-linecap="round" stroke-linejoin="round"/>
<path d="M216.439 56.9938L243.074 66.6117" stroke="#070000" stroke-linecap="round" stroke-linejoin="round"/>
<path d="M251.881 78.4493L248.354 75.696L243.812 75.8719L248.322 62.9126L256.39 65.4952L251.881 78.4493Z" fill="#EF7F7E"/>
<path d="M240.113 59.9531L265.268 68.0914" stroke="#070000" stroke-linecap="round" stroke-linejoin="round"/>
<path d="M217.918 52.5548L231.235 56.254" stroke="#070000" stroke-linecap="round" stroke-linejoin="round"/>
<path d="M245.794 21.5955C245.705 21.8635 245.611 22.1301 245.513 22.3952C245.415 22.6604 245.317 22.9255 245.219 23.1907C245.054 23.6259 244.898 24.0639 244.751 24.5049C244.607 24.9372 244.448 25.3695 244.275 25.8018C244.218 25.9459 244.143 26.1418 244.05 26.3897C243.961 26.6289 243.846 26.8595 243.704 27.0814C243.575 27.2975 243.419 27.4762 243.237 27.6173C243.058 27.7499 242.861 27.7801 242.645 27.708C242.437 27.6387 242.292 27.5133 242.208 27.3317C242.128 27.1415 242.084 26.9253 242.079 26.6832C242.085 26.4353 242.119 26.173 242.183 25.8963C242.249 25.611 242.321 25.3372 242.399 25.0749C242.489 24.8069 242.575 24.5619 242.659 24.34C242.742 24.1181 242.804 23.9466 242.845 23.8256C243.041 23.2377 243.237 22.6497 243.433 22.0618C243.638 21.4767 243.843 20.8917 244.048 20.3066C243.924 20.102 243.845 19.8786 243.81 19.6364C243.787 19.3886 243.813 19.1522 243.888 18.9274C244.006 18.5729 244.211 18.3049 244.502 18.1234C244.802 17.9448 245.138 17.9175 245.51 18.0415C245.829 18.1483 246.04 18.353 246.141 18.6556C246.241 18.9583 246.274 19.2912 246.24 19.6544C246.214 20.0204 246.15 20.3836 246.049 20.7438C245.951 21.0954 245.866 21.3793 245.794 21.5955ZM254.382 30.2403C254.299 30.491 254.149 30.6668 253.933 30.7676C253.716 30.8684 253.484 30.9015 253.236 30.8669C252.957 30.8408 252.644 30.799 252.298 30.7412C251.955 30.6748 251.605 30.6013 251.248 30.5205C250.899 30.4425 250.557 30.3574 250.223 30.2651C249.889 30.1728 249.588 30.0819 249.32 29.9925C249.25 29.9694 249.152 29.9319 249.026 29.88C248.905 29.8396 248.778 29.7877 248.645 29.7243C248.518 29.6724 248.399 29.6132 248.286 29.5469C248.183 29.4835 248.108 29.42 248.062 29.3566C248.018 29.2846 247.985 29.1966 247.962 29.0929C247.951 28.9833 247.945 28.8709 247.945 28.7556C247.948 28.6317 247.958 28.515 247.975 28.4054C247.993 28.2959 248.014 28.2023 248.04 28.1244C248.081 28.0034 248.13 27.8996 248.187 27.8132C248.257 27.721 248.349 27.6461 248.464 27.5884C248.605 27.5107 248.75 27.4386 248.897 27.3724C249.047 27.2975 249.191 27.2255 249.329 27.1563C249.493 27.067 249.71 26.9518 249.978 26.8106C250.249 26.6608 250.54 26.4937 250.851 26.3093C251.174 26.1192 251.495 25.919 251.815 25.7086C252.147 25.4926 252.454 25.2779 252.736 25.0647C253.019 24.8515 253.257 24.6426 253.45 24.438C253.652 24.2363 253.782 24.049 253.839 23.876C253.894 23.7118 253.891 23.5619 253.831 23.4264C253.773 23.2823 253.662 23.1828 253.498 23.128C253.316 23.0674 253.126 23.076 252.927 23.1538C252.728 23.2316 252.525 23.3223 252.318 23.426C252.113 23.5211 251.898 23.6031 251.673 23.6723C251.457 23.7443 251.237 23.7428 251.012 23.6678C250.744 23.5783 250.558 23.4299 250.454 23.2223C250.359 23.0176 250.355 22.7856 250.441 22.5262C250.568 22.1458 250.767 21.823 251.038 21.5579C251.321 21.2871 251.639 21.0811 251.994 20.9399C252.348 20.7988 252.72 20.7211 253.109 20.7068C253.501 20.6838 253.879 20.7329 254.242 20.8541C254.614 20.9781 254.945 21.1367 255.236 21.3299C255.527 21.5231 255.759 21.7494 255.932 22.0089C256.105 22.2683 256.209 22.5623 256.243 22.8909C256.289 23.2138 256.246 23.574 256.113 23.9717C256.009 24.283 255.844 24.5928 255.616 24.9012C255.4 25.2037 255.143 25.4977 254.846 25.7829C254.558 26.0711 254.239 26.3491 253.89 26.6171C253.553 26.8793 253.211 27.1256 252.866 27.3561C252.52 27.5866 252.181 27.7955 251.849 27.9828C251.518 28.17 251.22 28.3299 250.954 28.4624C251.395 28.5519 251.858 28.6486 252.342 28.7525C252.826 28.8564 253.285 28.9804 253.717 29.1246C253.968 29.2083 254.161 29.3496 254.296 29.5485C254.443 29.7416 254.472 29.9722 254.382 30.2403ZM264.443 31.5788C264.281 32.063 264.037 32.4766 263.712 32.8195C263.386 33.1624 263.012 33.4318 262.592 33.6277C262.174 33.8149 261.725 33.92 261.247 33.9429C260.766 33.9745 260.296 33.9138 259.838 33.761C259.665 33.7033 259.454 33.6139 259.206 33.4927C258.964 33.3832 258.741 33.2462 258.536 33.0818C258.332 32.9175 258.172 32.7344 258.057 32.5326C257.941 32.3309 257.923 32.1132 258.001 31.8798C258.084 31.6291 258.214 31.4562 258.39 31.3611C258.574 31.2689 258.792 31.2646 259.043 31.3483C259.293 31.4319 259.527 31.5386 259.743 31.6684C259.971 31.7924 260.21 31.8962 260.461 31.9799C260.651 32.0433 260.851 32.0765 261.062 32.0795C261.272 32.0824 261.469 32.0522 261.654 31.9888C261.85 31.9197 262.021 31.8232 262.168 31.6993C262.318 31.5668 262.428 31.3967 262.497 31.1892C262.535 31.0768 262.559 30.9313 262.571 30.7526C262.582 30.5739 262.572 30.4024 262.541 30.2381C262.512 30.0651 262.459 29.908 262.381 29.7668C262.303 29.6255 262.195 29.5318 262.057 29.4857C261.927 29.4424 261.79 29.4208 261.646 29.4207C261.51 29.4236 261.365 29.4279 261.209 29.4336C261.065 29.4335 260.917 29.4321 260.764 29.4291C260.611 29.4262 260.461 29.4002 260.314 29.3512C260.124 29.2877 260.007 29.1623 259.964 28.975C259.933 28.7818 259.943 28.6075 259.995 28.4518C260.116 28.0887 260.362 27.8971 260.734 27.877C260.93 27.8655 261.176 27.8469 261.473 27.821C261.782 27.7894 262.087 27.7376 262.39 27.6656C262.693 27.5936 262.966 27.4928 263.212 27.3632C263.459 27.2249 263.621 27.0434 263.696 26.8186C263.754 26.6456 263.741 26.454 263.657 26.2435C263.574 26.0331 263.437 25.8962 263.247 25.8327C263.056 25.7692 262.862 25.762 262.663 25.8109C262.464 25.8599 262.261 25.9218 262.053 25.9967C261.857 26.0658 261.655 26.1234 261.448 26.1695C261.249 26.2184 261.054 26.2111 260.864 26.1477C260.769 26.1159 260.675 26.0655 260.583 25.9963C260.494 25.9184 260.416 25.8348 260.35 25.7455C260.286 25.6475 260.24 25.5408 260.212 25.4255C260.191 25.3131 260.199 25.205 260.233 25.1012C260.274 24.9802 260.341 24.8635 260.437 24.7511C260.532 24.6387 260.63 24.5465 260.731 24.4745C261.175 24.123 261.676 23.9156 262.235 23.8523C262.803 23.7919 263.346 23.8483 263.865 24.0213C264.661 24.2867 265.22 24.7134 265.542 25.3015C265.874 25.8925 265.908 26.5813 265.646 27.3681C265.49 27.835 265.253 28.2125 264.936 28.5007C264.628 28.7917 264.214 28.9372 263.695 28.937C263.929 29.0726 264.112 29.2441 264.244 29.4517C264.388 29.6535 264.488 29.874 264.542 30.1132C264.597 30.3525 264.611 30.5975 264.585 30.8482C264.568 31.1019 264.52 31.3454 264.443 31.5788Z" fill="#FBFFFF"/>
<path d="M260.405 40.6467L241.609 34.3759C240.506 34.0078 239.313 34.6039 238.945 35.7073L237.427 40.2576C237.059 41.3611 237.655 42.554 238.758 42.9222L257.554 49.1929C258.657 49.561 259.85 48.965 260.218 47.8615L261.736 43.3112C262.105 42.2077 261.508 41.0148 260.405 40.6467Z" fill="#FBFFFF"/>
<path d="M340.455 39.3441L333.88 58.9714L310.094 51.0035C308.213 50.3733 306.659 49.0215 305.774 47.2455C304.89 45.4696 304.747 43.4149 305.377 41.5336L307.199 36.0936C307.829 34.2123 309.181 32.6583 310.957 31.7736C312.733 30.8889 314.788 30.746 316.669 31.3762L340.455 39.3441Z" fill="#FDCE64"/>
<path d="M306.189 38.8259C305.935 39.5811 305.832 40.3788 305.888 41.1733C305.943 41.9679 306.156 42.7437 306.514 43.4566C306.872 44.1695 307.368 44.8055 307.973 45.3282C308.578 45.8509 309.281 46.2501 310.042 46.503L335.167 54.8678" stroke="#070000" stroke-linecap="round" stroke-linejoin="round"/>
<path d="M329.886 58.8994L337.146 37.2239L318.88 31.105L311.619 52.7806L329.886 58.8994Z" fill="#7BC9EF"/>
<path d="M313.623 46.6076L311.566 52.748L329.833 58.8669L331.89 52.7265L313.623 46.6076Z" fill="#5B6CB1"/>
<path d="M322.708 122.515C323.612 123.783 324.983 124.645 326.523 124.912C328.062 125.18 329.646 124.831 330.929 123.943L334.09 121.723C335.373 120.823 336.245 119.453 336.513 117.914C336.781 116.376 336.423 114.794 335.519 113.517L307.822 74.4063L296.649 69.0741L294.303 65.7666C294.166 65.5723 293.992 65.4069 293.79 65.2798C293.589 65.1527 293.364 65.0665 293.129 65.0262C292.894 64.9858 292.653 64.9922 292.42 65.0448C292.187 65.0974 291.968 65.1953 291.773 65.3328C291.577 65.4683 291.41 65.6413 291.282 65.8416C291.153 66.0419 291.066 66.2656 291.026 66.4996C290.985 66.7336 290.992 66.9734 291.045 67.2048C291.099 67.4363 291.198 67.6549 291.337 67.8479L293.677 71.1554L294.941 83.4169L322.708 122.515Z" fill="#FDCE64"/>
<path d="M331.124 123.855L334.177 121.49C335.416 120.531 336.257 119.072 336.516 117.433C336.774 115.794 336.429 114.109 335.557 112.749L333.407 109.4L321 118.985L323.149 122.334C323.581 123.009 324.131 123.583 324.766 124.025C325.4 124.466 326.108 124.766 326.849 124.907C327.59 125.048 328.348 125.028 329.082 124.848C329.815 124.667 330.509 124.33 331.124 123.855Z" fill="#EF7F7E"/>
<path d="M329.4 121.4C328.654 121.4 327.729 121.4 326.83 121.4C325.93 121.4 325.129 121.4 324.6 121.4" stroke="#FBFFFF" stroke-width="1.5" stroke-linecap="round" stroke-linejoin="round"/>
<path d="M294.497 65.7423C294.202 65.3623 293.754 65.1045 293.251 65.0255C292.748 64.9465 292.232 65.0528 291.815 65.3211C291.398 65.5894 291.115 65.9976 291.028 66.456C290.941 66.9145 291.058 67.3855 291.352 67.7655L293.849 71L297 68.9769L294.497 65.7423Z" fill="#070000"/>
<path d="M307.801 73.9581L305.944 78.299L300.382 77.2627L299.305 82.2544L294.703 83L293.401 70.6788L296.411 68.6L307.801 73.9581Z" fill="#F8B193"/>
<path d="M319.473 119.993L334.24 109.594L330.452 104.215L315.685 114.613L319.473 119.993Z" fill="white"/>
<path d="M333 107L317.4 116.6" stroke="#070000" stroke-width="1.5" stroke-linecap="round" stroke-linejoin="round"/>
<path d="M329.4 104.989L316.2 114.2L327.419 102.2L329.4 104.989Z" fill="#070000"/>
<path d="M305.401 78.2L325.801 105.8" stroke="#070000" stroke-width="1.5" stroke-linecap="round" stroke-linejoin="round"/>
<path d="M299.401 81.8L319.801 110.6" stroke="#070000" stroke-width="1.5" stroke-linecap="round" stroke-linejoin="round"/>
</svg>
