<svg width="346" height="140" viewBox="0 0 346 140" fill="none" xmlns="http://www.w3.org/2000/svg">
<rect width="346" height="140" rx="18" fill="#C6C5F6"/>
<path fill-rule="evenodd" clip-rule="evenodd" d="M0 18C0 8.05888 8.05887 0 18 0H328C337.941 0 346 8.05888 346 18V20.2595C343.689 20.0875 341.355 20 339 20C287.638 20 246 61.6375 246 113C246 122.39 247.392 131.455 249.98 140H18C8.05887 140 0 131.941 0 122V18ZM257.684 40.3578C259.04 38.8428 260.446 37.3566 261.901 35.9013C263.357 34.446 264.843 33.0402 266.358 31.684C266.769 31.3157 267.402 31.3506 267.77 31.7621C268.138 32.1736 268.103 32.8058 267.692 33.1742C266.204 34.5058 264.745 35.8863 263.316 37.3155C261.886 38.7447 260.506 40.2042 259.174 41.6917C258.806 42.1032 258.174 42.1382 257.762 41.7698C257.351 41.4015 257.316 40.7693 257.684 40.3578ZM275.703 25.4204C275.383 24.9703 275.489 24.346 275.939 24.0259C279.299 21.6356 282.765 19.4579 286.317 17.4928C286.8 17.2254 287.409 17.4004 287.676 17.8837C287.943 18.3669 287.768 18.9754 287.285 19.2428C283.799 21.1716 280.397 23.3093 277.098 25.6557C276.648 25.9758 276.023 25.8705 275.703 25.4204ZM251.42 49.7033C251.871 50.0234 251.976 50.6478 251.656 51.0978C249.309 54.3968 247.172 57.7987 245.243 61.285C244.976 61.7682 244.367 61.9433 243.884 61.6759C243.401 61.4085 243.226 60.8 243.493 60.3168C245.458 56.7649 247.636 53.2993 250.026 49.9386C250.346 49.4886 250.97 49.3832 251.42 49.7033ZM239.479 70.8223C239.989 71.0334 240.232 71.6183 240.021 72.1286C238.479 75.8543 237.157 79.6492 236.053 83.4938C235.9 84.0246 235.346 84.3314 234.816 84.179C234.285 84.0265 233.978 83.4727 234.13 82.9418C235.255 79.0255 236.602 75.1595 238.173 71.364C238.384 70.8536 238.969 70.6111 239.479 70.8223ZM296.822 13.479C296.611 12.9687 296.854 12.3838 297.364 12.1727C301.16 10.6023 305.026 9.25485 308.942 8.13036C309.473 7.97794 310.027 8.28471 310.179 8.81555C310.331 9.34639 310.025 9.90028 309.494 10.0527C305.649 11.1566 301.854 12.4793 298.129 14.0207C297.618 14.2319 297.034 13.9893 296.822 13.479ZM232.565 94.0807C233.11 94.1728 233.477 94.6889 233.385 95.2334C232.714 99.1977 232.268 103.192 232.044 107.197C232.013 107.749 231.541 108.171 230.99 108.14C230.438 108.109 230.016 107.637 230.047 107.086C230.275 103.007 230.73 98.938 231.413 94.9001C231.505 94.3555 232.021 93.9887 232.565 94.0807ZM320.081 6.56516C319.989 6.02059 320.356 5.50451 320.9 5.41246C324.938 4.72991 329.007 4.27479 333.086 4.0471C333.637 4.01632 334.109 4.43838 334.14 4.98981C334.171 5.54123 333.749 6.01321 333.197 6.04399C329.192 6.26754 325.198 6.71438 321.234 7.38449C320.689 7.47654 320.173 7.10971 320.081 6.56516ZM230.99 118.294C231.541 118.263 232.013 118.685 232.044 119.236C232.268 123.241 232.714 127.236 233.385 131.2C233.477 131.745 233.11 132.261 232.565 132.353C232.021 132.445 231.505 132.078 231.413 131.534C230.73 127.496 230.275 123.427 230.047 119.348C230.016 118.797 230.438 118.325 230.99 118.294Z" fill="#9998EF"/>
<path d="M323.483 27.4841L325.19 18.7705C325.318 18.0379 325.194 17.2823 324.839 16.6332C324.484 15.9841 323.92 15.4817 323.244 15.2122C322.568 14.9463 321.823 14.9298 321.137 15.1656C320.45 15.4014 319.865 15.8748 319.481 16.5047L314.992 24.0905L313.047 23.3169L297.836 63.3516L310.207 68.2973L325.404 28.2626L323.483 27.4841Z" fill="#9EBE34"/>
<path d="M322.648 17.7567C322.961 17.8506 323.221 18.0252 323.384 18.2505C323.548 18.4757 323.604 18.7377 323.544 18.9914L322.926 21.4324" stroke="#FBFFFF" stroke-width="2" stroke-linecap="round" stroke-linejoin="round"/>
<path d="M323.91 32.5896L311.404 27.719L299.387 58.5745L311.892 63.4451L323.91 32.5896Z" fill="#C1D57E"/>
<path d="M311.621 27.8648L323.567 32.4594" stroke="#070000" stroke-miterlimit="10"/>
<path d="M322.648 36.135L309.783 31.5404" stroke="#070000" stroke-miterlimit="10"/>
<path d="M300.594 55.4326L313.459 60.0272" stroke="#070000" stroke-miterlimit="10"/>
<path d="M311.62 63.7027L299.674 59.1082" stroke="#070000" stroke-miterlimit="10"/>
<path d="M315.297 24.1893L323.567 27.8649" stroke="#070000" stroke-linecap="round" stroke-linejoin="round"/>
<path d="M315.277 46.5373C316.669 42.9626 316.239 39.4577 314.316 38.7089C312.393 37.96 309.706 40.2508 308.314 43.8255C306.922 47.4001 307.352 50.905 309.274 51.6539C311.197 52.4027 313.884 50.112 315.277 46.5373Z" fill="#FBFFFF"/>
<path d="M301.512 64.9526C301.512 64.9526 307.649 62.0975 315.296 55.4326L310.216 68.2974L301.512 64.9526Z" fill="#070000"/>
<path d="M334.611 51.1003L339.581 43.8396C339.986 43.2234 340.166 42.4843 340.09 41.7488C340.015 41.0133 339.69 40.327 339.169 39.8075C338.649 39.2888 337.966 38.9694 337.238 38.9042C336.51 38.8391 335.783 39.0322 335.18 39.4504L328.076 44.5785L326.605 43.0907L296.918 73.4975L306.455 83L336.108 52.5931L334.611 51.1003Z" fill="#5B6CB1"/>
<path d="M337.885 41.6486C338.098 41.7935 338.232 41.9862 338.263 42.193C338.293 42.3998 338.219 42.6076 338.052 42.7799L336.432 44.4053" stroke="#FBFFFF" stroke-width="2" stroke-linecap="round" stroke-linejoin="round"/>
<path d="M333.044 55.6194L323.486 46.1979L300.24 69.7795L309.797 79.2009L333.044 55.6194Z" fill="#7BC9EF"/>
<path d="M323.566 46.2433L332.756 55.4325" stroke="#070000" stroke-miterlimit="10"/>
<path d="M330 58.1892L320.811 49" stroke="#070000" stroke-miterlimit="10"/>
<path d="M302.432 67.3785L312.54 76.5677" stroke="#070000" stroke-miterlimit="10"/>
<path d="M309.782 79.3244L299.674 70.1352" stroke="#070000" stroke-miterlimit="10"/>
<path d="M328.162 44.4055L334.595 50.838" stroke="#070000" stroke-linecap="round" stroke-linejoin="round"/>
<path d="M319.774 65.1248C317.107 68.0348 313.757 69.1463 312.299 67.5996C310.84 66.0528 311.811 62.4403 314.493 59.5251C317.175 56.6098 320.516 55.5035 321.974 57.0503C323.432 58.597 322.447 62.2096 319.774 65.1248Z" fill="#FBFFFF"/>
<path d="M305.777 110.723C308.109 96.2105 298.235 82.5552 283.723 80.2229C269.211 77.8906 255.555 87.7645 253.223 102.277C250.891 116.789 260.765 130.445 275.277 132.777C289.789 135.109 303.445 125.235 305.777 110.723Z" fill="#EF7F7E"/>
<path d="M257.654 91.9321C268.208 89.73 278.762 94.7784 282.244 104.255C285.924 114.28 280.383 125.656 269.796 130.454" stroke="#070000" stroke-linecap="round" stroke-linejoin="round"/>
<path d="M304.673 110.05C300.464 108.021 297.151 104.428 295.396 99.9876C293.64 95.5476 293.571 90.5875 295.203 86.0973" stroke="#070000" stroke-linecap="round" stroke-linejoin="round"/>
<path d="M302.898 96.7429C295.776 101.464 286.837 105.533 276.796 108.307C269.399 110.385 261.781 111.565 254.105 111.824" stroke="#070000" stroke-linecap="round" stroke-linejoin="round"/>
<path d="M276.285 80.7744C276.285 80.7744 285.005 87.6174 290.037 103.278C295.411 120.017 292.175 128.68 292.175 128.68" stroke="#070000" stroke-linecap="round" stroke-linejoin="round"/>
<path d="M253.415 37.312L241.547 44.4366L232.001 13L279.449 21.6937L266.766 29.3029L264.722 45L253.415 37.312Z" fill="#FDCE64"/>
<path d="M266.207 29.3029L232 13L256.436 35.2522L264.196 45L266.207 29.3029Z" fill="#DDB04B"/>
<path d="M252.966 37.1675L256.304 35.069L264 45L252.966 37.1675Z" fill="#070000"/>
</svg>
