<svg width="346" height="140" viewBox="0 0 346 140" fill="none" xmlns="http://www.w3.org/2000/svg">
<rect width="346" height="140" rx="18" fill="#C6F891"/>
<path fill-rule="evenodd" clip-rule="evenodd" d="M57.787 140H77.8151C80.3057 137.193 82.6468 134.251 84.8258 131.185C85.1458 130.735 85.7701 130.63 86.2202 130.95C86.6704 131.27 86.7759 131.894 86.4559 132.344C84.5762 134.989 82.5781 137.543 80.4695 140H328C337.941 140 346 131.941 346 122V18C346 8.05888 337.941 0 328 0H55.3145C76.425 16.4703 89.9996 42.1499 89.9996 71C89.9996 98.7074 77.479 123.491 57.787 140ZM77.6266 0.287922C78.0383 -0.0802307 78.6704 -0.0449409 79.0386 0.366741C81.6787 3.31902 84.1559 6.42015 86.456 9.65602C86.7759 10.1062 86.6704 10.7305 86.2202 11.0505C85.7701 11.3704 85.1458 11.2649 84.8258 10.8147C82.569 7.63974 80.1384 4.59684 77.5478 1.69994C77.1796 1.28826 77.2149 0.656075 77.6266 0.287922ZM91.431 19.3263C91.9141 19.0587 92.5227 19.2334 92.7903 19.7166C94.7041 23.1721 96.4305 26.7459 97.9559 30.4242C98.1674 30.9344 97.9254 31.5194 97.4152 31.731C96.9051 31.9425 96.32 31.7005 96.1084 31.1903C94.612 27.5818 92.9183 24.0757 91.0407 20.6856C90.7731 20.2024 90.9478 19.5938 91.431 19.3263ZM100.644 40.9594C101.175 40.8068 101.729 41.1133 101.882 41.6441C102.97 45.4259 103.852 49.2944 104.518 53.2368C104.61 53.7814 104.243 54.2974 103.698 54.3892C103.153 54.4811 102.637 54.1142 102.546 53.5696C101.893 49.7019 101.027 45.9068 99.9597 42.1969C99.8071 41.6661 100.114 41.1121 100.644 40.9594ZM104.782 64.1109C105.333 64.0804 105.805 64.5027 105.836 65.0541C105.944 67.0224 106 69.0048 106 71C106 72.9952 105.944 74.9776 105.836 76.9458C105.805 77.4973 105.333 77.9196 104.782 77.8891C104.231 77.8586 103.808 77.3868 103.839 76.8354C103.946 74.9039 104 72.9583 104 71C104 69.0416 103.946 67.096 103.839 65.1646C103.808 64.6131 104.231 64.1414 104.782 64.1109ZM103.698 87.6108C104.243 87.7026 104.61 88.2186 104.518 88.7632C103.852 92.7056 102.97 96.5741 101.882 100.356C101.729 100.887 101.175 101.193 100.644 101.041C100.114 100.888 99.8071 100.334 99.9597 99.8031C101.027 96.0932 101.893 92.2981 102.546 88.4304C102.637 87.8858 103.153 87.5189 103.698 87.6108ZM97.4152 110.269C97.9254 110.481 98.1674 111.066 97.9559 111.576C96.4305 115.254 94.7041 118.828 92.7902 122.283C92.5227 122.767 91.9141 122.941 91.431 122.674C90.9478 122.406 90.7731 121.798 91.0407 121.314C92.9183 117.924 94.612 114.418 96.1084 110.81C96.32 110.3 96.9051 110.057 97.4152 110.269Z" fill="#95D354"/>
<path d="M75.2552 53.1113C76.4579 50.5486 78.3143 48.3566 80.6331 46.7613C82.9519 45.166 85.6492 44.2251 88.4471 44.0356C91.245 43.8461 94.0423 44.4149 96.5506 45.6832C99.0589 46.9516 101.188 48.8737 102.717 51.2514C104.247 53.6292 105.122 56.3765 105.252 59.2104C105.383 62.0442 104.764 64.8621 103.46 67.3735C102.156 69.8849 100.213 71.999 97.8324 73.4979C95.4516 74.9969 92.7188 75.8265 89.9156 75.9012L88.3122 79.3217L75.4293 73.1388L77.0328 69.7182C75.2485 67.3867 74.1377 64.6005 73.8239 61.6689C73.5101 58.7374 74.0056 55.7752 75.2552 53.1113Z" fill="#FDCE64"/>
<path d="M83.8242 50.3073C82.9983 50.625 82.2095 50.9284 81.4694 51.2131" stroke="#FBFFFF" stroke-linecap="round" stroke-linejoin="round"/>
<path d="M93.916 50.3075C91.5601 49.1199 88.9093 48.7585 86.3471 49.2757" stroke="#FBFFFF" stroke-linecap="round" stroke-linejoin="round"/>
<path d="M73.7407 72.2608L89.5195 79.7498L86.0114 87.1412L70.2326 79.6522L73.7407 72.2608Z" fill="#7BC9EF"/>
<path d="M87.6094 83.1061L72.4715 75.5372" stroke="#070000" stroke-linecap="round" stroke-linejoin="round"/>
<path d="M84.3965 86.38L71.6379 80.3245L71.0638 81.5343C70.5166 82.6871 70.4498 84.0102 70.8781 85.2123C71.3064 86.4144 72.1947 87.3972 73.3476 87.9443L77.4122 89.8735C78.5651 90.4207 79.8882 90.4875 81.0903 90.0592C82.2924 89.6309 83.2751 88.7426 83.8223 87.5897L84.3965 86.38Z" fill="#5B6CB1"/>
<path d="M80.0391 84.3677L70.9738 80.5832L69.9471 82.4858C69.9471 82.4858 74.1391 82.3859 80.0391 84.3677Z" fill="#070000"/>
<path d="M78.7777 74.3381L82.9568 65.4178C83.103 65.1057 83.1545 64.7567 83.1049 64.415C83.0553 64.0732 82.9068 63.754 82.6782 63.4977C82.4495 63.2414 82.151 63.0596 81.8203 62.9752C81.4897 62.8908 81.1418 62.9076 80.8206 63.0235C80.4994 63.1394 80.2193 63.3492 80.0157 63.6264C79.8122 63.9036 79.6944 64.2356 79.6771 64.5807C79.6599 64.9257 79.744 65.2681 79.9188 65.5647C80.0937 65.8613 80.3514 66.0987 80.6594 66.2469L88.9257 70.2371C89.2336 70.3859 89.578 70.4389 89.9156 70.3894C90.2531 70.3398 90.5686 70.19 90.822 69.9588C91.0755 69.7276 91.2556 69.4254 91.3395 69.0905C91.4235 68.7556 91.4075 68.403 91.2936 68.0773C91.1797 67.7516 90.973 67.4674 90.6997 67.2607C90.4263 67.0541 90.0987 66.9341 89.758 66.9162C89.4174 66.8982 89.0792 66.983 88.7862 67.1598C88.4932 67.3366 88.2585 67.5975 88.1118 67.9095L83.9327 76.7986" stroke="#070000" stroke-linecap="round" stroke-linejoin="round"/>
<path d="M25.1331 89.6891L16.204 97.3806L16.1341 124.54L42.7193 124.562L51.6485 116.871L51.7183 89.7111L25.1331 89.6891Z" fill="#EF7F7E"/>
<path d="M42.8119 97.2607L15.5176 97.2176L15.4744 124.512L42.7687 124.555L42.8119 97.2607Z" fill="#F8B193"/>
<path d="M33.6656 105.493C33.6641 106.437 33.4304 107.298 32.9643 108.076C32.4982 108.841 31.8752 109.483 31.095 110.001C31.5051 110.084 31.8603 110.228 32.1608 110.434C32.4612 110.625 32.707 110.865 32.8979 111.152C33.1025 111.44 33.2524 111.768 33.3475 112.138C33.4563 112.493 33.5104 112.869 33.5098 113.266C33.5086 114.045 33.3229 114.728 32.9528 115.316C32.5965 115.889 32.1309 116.367 31.5561 116.749C30.9812 117.117 30.3382 117.396 29.627 117.587C28.9294 117.763 28.232 117.851 27.5348 117.85C27.152 117.849 26.7692 117.821 26.3865 117.766C26.0037 117.711 25.6416 117.615 25.3 117.477C25.177 117.436 25.0747 117.272 24.9932 116.985C24.9116 116.684 24.8438 116.321 24.7898 115.897C24.7495 115.474 24.716 115.015 24.6894 114.523C24.6629 114.031 24.6431 113.559 24.6302 113.108C24.6172 112.657 24.611 112.26 24.6115 111.919C24.6121 111.577 24.6124 111.338 24.6127 111.201C24.6134 110.722 24.6142 110.244 24.6149 109.765C24.6157 109.273 24.6301 108.788 24.6582 108.309C24.6584 108.186 24.6587 107.995 24.6592 107.735C24.6732 107.475 24.6805 107.188 24.681 106.874C24.6952 106.546 24.7094 106.204 24.7237 105.849C24.7516 105.493 24.7794 105.165 24.8072 104.864C24.8488 104.55 24.897 104.283 24.9521 104.065C25.0208 103.846 25.0962 103.709 25.1783 103.655C25.4931 103.45 25.842 103.259 26.2251 103.082C26.6082 102.892 27.005 102.728 27.4153 102.592C27.8257 102.456 28.236 102.347 28.6463 102.266C29.0566 102.184 29.4463 102.144 29.8155 102.145C30.3213 102.145 30.8066 102.221 31.2712 102.373C31.7495 102.51 32.1593 102.723 32.5006 103.01C32.8556 103.298 33.1353 103.654 33.3398 104.078C33.5579 104.488 33.6665 104.96 33.6656 105.493ZM30.2596 106.575C30.26 106.343 30.1851 106.172 30.0349 106.062C29.8983 105.952 29.7138 105.897 29.4814 105.897C29.29 105.897 29.0849 105.937 28.866 106.019C28.6608 106.101 28.4829 106.21 28.3323 106.346C28.2912 106.387 28.25 106.503 28.2087 106.695C28.181 106.886 28.1533 107.105 28.1256 107.351C28.1115 107.583 28.0975 107.809 28.0835 108.028C28.0832 108.233 28.083 108.369 28.0829 108.438C28.0828 108.465 28.0827 108.513 28.0826 108.581C28.0825 108.636 28.0824 108.698 28.0823 108.766C28.0959 108.834 28.1095 108.896 28.1231 108.951C28.1366 109.005 28.1571 109.033 28.1845 109.033C28.4169 109.033 28.6563 108.951 28.9026 108.788C29.149 108.61 29.3681 108.399 29.5599 108.153C29.7654 107.894 29.9299 107.62 30.0534 107.333C30.1905 107.047 30.2593 106.794 30.2596 106.575ZM30.1682 112.502C30.1686 112.269 30.0868 112.105 29.9229 112.009C29.759 111.913 29.5745 111.865 29.3694 111.865C29.178 111.864 28.9729 111.912 28.754 112.007C28.5488 112.089 28.3777 112.191 28.2408 112.314C28.1997 112.341 28.1654 112.41 28.1379 112.519C28.1241 112.628 28.1102 112.751 28.0963 112.888C28.0961 113.011 28.0891 113.134 28.0752 113.257C28.0751 113.367 28.0749 113.442 28.0749 113.483C28.0748 113.51 28.0748 113.565 28.0746 113.647C28.0745 113.729 28.0744 113.818 28.0742 113.913C28.0877 113.995 28.1013 114.077 28.1148 114.16C28.1421 114.228 28.1694 114.262 28.1967 114.262C28.3881 114.263 28.6001 114.208 28.8327 114.099C29.0653 113.99 29.2774 113.854 29.4691 113.69C29.6744 113.526 29.8388 113.342 29.9621 113.137C30.0992 112.919 30.1679 112.707 30.1682 112.502Z" fill="#FBFFFF"/>
<path d="M52.6863 89.7483L42.6537 97.3069L42.7198 124.165" stroke="#070000" stroke-linecap="round" stroke-linejoin="round"/>
<path d="M36.6587 95.4295L49.9062 89.6418L24.0134 89.5001L16.283 95.3153L36.6587 95.4295Z" fill="#070000"/>
<path d="M18.2421 60.1952L8.98135 67.8739L8.95371 95.0349L36.5599 95.096L45.8157 87.417L45.8483 60.2562L18.2421 60.1952Z" fill="#5B6CB1"/>
<path d="M36.8451 68.5134L9.55078 68.4703L9.50764 95.7646L36.802 95.8077L36.8451 68.5134Z" fill="#7BC9EF"/>
<path d="M28.162 85.835C28.1616 86.1084 28.1337 86.4365 28.0784 86.8193C28.0368 87.202 27.9474 87.571 27.8101 87.9263C27.6728 88.2678 27.4878 88.5615 27.255 88.8072C27.0222 89.0393 26.7144 89.155 26.3316 89.1544C25.8257 89.1536 25.4432 88.9684 25.184 88.5989C24.9385 88.2293 24.7615 87.7915 24.6529 87.2855C24.5443 86.7658 24.4768 86.2393 24.4503 85.7061C24.4375 85.1729 24.4245 84.749 24.4113 84.4345C23.4267 84.5971 22.4557 84.7391 21.4985 84.8606C21.4707 85.175 21.4085 85.5646 21.3121 86.0293C21.2293 86.494 21.0919 86.9449 20.8998 87.3821C20.7214 87.8057 20.4816 88.1744 20.1803 88.4884C19.8927 88.8024 19.537 88.9591 19.1131 88.9584C18.785 88.9579 18.5254 88.8413 18.3344 88.6085C18.157 88.3622 18.0208 88.0748 17.9256 87.7466C17.8304 87.4183 17.7694 87.0832 17.7426 86.7414C17.7295 86.3859 17.7231 86.0919 17.7235 85.8595C17.7247 85.0802 17.7875 84.3147 17.9117 83.5629C18.036 82.7975 18.1807 82.039 18.346 81.2873C18.4286 80.8909 18.5387 80.4262 18.6763 79.8932C18.8138 79.3603 18.9788 78.8136 19.1711 78.2534C19.377 77.6795 19.6104 77.1193 19.871 76.5729C20.1453 76.0128 20.4537 75.5142 20.7962 75.0773C21.1387 74.6403 21.5289 74.2854 21.9668 74.0127C22.4048 73.74 22.8903 73.604 23.4235 73.6048C23.9431 73.6057 24.3941 73.7226 24.7765 73.9556C25.1589 74.1886 25.4934 74.4968 25.7799 74.8801C26.0664 75.2633 26.305 75.7012 26.4956 76.1937C26.6863 76.6725 26.8427 77.1649 26.965 77.671C27.1009 78.1634 27.2095 78.6489 27.2908 79.1276C27.3857 79.6062 27.4671 80.0302 27.5349 80.3994C27.7112 81.2884 27.8602 82.191 27.9818 83.1072C28.1034 84.0097 28.1635 84.919 28.162 85.835ZM24.2119 80.8454C24.2122 80.6813 24.1989 80.4147 24.1721 80.0455C24.1591 79.6627 24.1187 79.2866 24.0509 78.9174C23.9831 78.5344 23.8743 78.1993 23.7243 77.912C23.5881 77.611 23.3969 77.4603 23.1508 77.4599C23.0141 77.4597 22.8841 77.5552 22.7607 77.7464C22.6374 77.9239 22.5277 78.1562 22.4315 78.4431C22.3354 78.7164 22.246 79.0239 22.1635 79.3656C22.0946 79.7072 22.0325 80.0353 21.9773 80.3496C21.9221 80.664 21.8807 80.951 21.8529 81.2108C21.8252 81.4568 21.8044 81.6345 21.7905 81.7439C22.611 81.6768 23.4178 81.5756 24.211 81.4401L24.2119 80.8454Z" fill="#FBFFFF"/>
<path d="M45.4624 60.2417L36.8076 68.1707L36.6813 96.0958" stroke="#070000" stroke-linecap="round" stroke-linejoin="round"/>
<path d="M8.95465 68.5886L36.8056 68.262" stroke="#FBFFFF" stroke-linecap="round" stroke-linejoin="round"/>
<path d="M16.1773 98.0951L42.6384 97.7154" stroke="#FBFFFF" stroke-linecap="round" stroke-linejoin="round"/>
<path d="M44.1708 26.6142L41.9519 19.976L40.8241 20.357L39.7871 17.2602L49.4545 14.0017L50.4881 17.0988L49.3604 17.4798L51.5786 24.1113C54.873 24.0037 58.0974 25.0929 60.6617 27.1797C63.226 29.2665 64.9588 32.2113 65.543 35.4753C66.1273 38.7393 65.5239 42.1043 63.8434 44.9546C62.1628 47.8049 59.5174 49.9499 56.3912 50.9971C53.2649 52.0444 49.8669 51.9238 46.8188 50.6576C43.7707 49.3914 41.2763 47.0641 39.7921 44.1015C38.3078 41.139 37.9329 37.7393 38.736 34.5245C39.5391 31.3097 41.4664 28.4947 44.1653 26.5946L44.1708 26.6142Z" fill="#7BC9EF"/>
<path d="M55.8103 48.2676C58.4465 47.351 60.6169 45.3735 61.8448 42.7695C63.0727 40.1655 63.2576 37.1479 62.359 34.3793C60.4879 28.6236 40.6019 35.5223 42.4698 41.2783C43.3735 44.0445 45.2854 46.3337 47.7862 47.6439C50.2871 48.9542 53.1726 49.1784 55.8103 48.2676Z" fill="#EF7F7E"/>
<path d="M53.6704 41.4009C48.4007 43.2873 43.5488 43.1935 42.4147 41.2649C41.6738 35.4094 59.8343 28.909 62.5679 34.053C62.7505 36.3215 58.9434 39.5142 53.6704 41.4009Z" fill="#F8B193"/>
<path d="M50.011 17.7478L44.8225 19.5776L50.5339 19.5944L50.011 17.7478Z" fill="#070000"/>
<path d="M43.3945 32.7386C43.0692 33.0757 42.7888 33.4243 42.5559 33.7811" stroke="#FBFFFF" stroke-linecap="round" stroke-linejoin="round"/>
<path d="M49.5703 28.2629C47.4751 28.7815 45.5911 29.6448 44.1308 30.7555" stroke="#FBFFFF" stroke-linecap="round" stroke-linejoin="round"/>
<path d="M52.0032 32.7713C52.1293 33.2193 52.3581 33.6169 52.6604 33.9136C52.9628 34.2103 53.3249 34.3926 53.701 34.4374C54.077 34.4823 54.4499 34.3876 54.7722 34.1654C55.0945 33.9431 55.3518 33.6035 55.5112 33.1895C55.6707 32.7755 55.7251 32.306 55.6677 31.8405C55.6102 31.375 55.4434 30.9347 55.1885 30.5754C54.9336 30.2161 54.6021 29.9541 54.2361 29.8228C53.8701 29.6914 53.4862 29.6966 53.1331 29.8376C52.6648 30.0247 52.2835 30.4376 52.072 30.9867C51.8605 31.5358 51.8358 32.177 52.0032 32.7713Z" fill="#EF7F7E"/>
<path d="M48.653 37.1404C48.7143 37.3168 48.8263 37.4711 48.9751 37.5839C49.1238 37.6967 49.3026 37.7629 49.4889 37.7743C49.6752 37.7856 49.8607 37.7416 50.0221 37.6477C50.1834 37.5538 50.3133 37.4143 50.3955 37.2466C50.4777 37.079 50.5085 36.8908 50.484 36.7057C50.4595 36.5206 50.3807 36.3469 50.2577 36.2065C50.1347 36.0661 49.9729 35.9652 49.7927 35.9166C49.6125 35.8679 49.4219 35.8737 49.245 35.9332C49.1263 35.9727 49.0166 36.0355 48.9224 36.1178C48.8282 36.2001 48.7513 36.3004 48.6962 36.4128C48.6411 36.5251 48.6089 36.6473 48.6015 36.7722C48.5941 36.8972 48.6116 37.0223 48.653 37.1404Z" fill="#EF7F7E"/>
<path d="M35.4368 11.3887C35.6178 11.9186 35.9517 12.3831 36.3964 12.7237C36.8411 13.0644 37.3766 13.266 37.9357 13.3031C38.4949 13.3402 39.0525 13.2113 39.5385 12.9325C40.0244 12.6536 40.417 12.2374 40.6669 11.7362C40.9167 11.2349 41.0126 10.671 40.9425 10.1155C40.8723 9.55996 40.6393 9.03759 40.2728 8.61413C39.9062 8.19068 39.4225 7.88506 38.8824 7.73574C38.3424 7.58642 37.7702 7.60007 37.2378 7.77497C36.5203 8.01671 35.9278 8.53277 35.5902 9.21012C35.2527 9.88747 35.1975 10.6709 35.4368 11.3887Z" fill="#EF7F7E"/>
<path d="M42.2818 13.2861C42.4014 13.6406 42.6234 13.9517 42.9197 14.18C43.216 14.4084 43.5734 14.5437 43.9466 14.5691C44.3198 14.5944 44.6922 14.5085 45.0166 14.3223C45.3411 14.136 45.603 13.8578 45.7694 13.5227C45.9357 13.1876 45.999 12.8108 45.9513 12.4397C45.9035 12.0687 45.7469 11.7201 45.5011 11.4381C45.2553 11.1561 44.9314 10.9533 44.5704 10.8553C44.2093 10.7573 43.8273 10.7685 43.4727 10.8875C43.2369 10.9666 43.019 11.0915 42.8315 11.2549C42.644 11.4183 42.4905 11.6171 42.3799 11.8399C42.2693 12.0627 42.2037 12.3051 42.1869 12.5532C42.17 12.8014 42.2023 13.0504 42.2818 13.2861Z" fill="#EF7F7E"/>
</svg>
