<svg width="373" height="349" viewBox="0 0 373 349" fill="none" xmlns="http://www.w3.org/2000/svg">
<g opacity="0.4">
<path d="M110.443 195.087V85.4277" stroke="#5B6CB1" stroke-width="2" stroke-linecap="round" stroke-linejoin="round"/>
<path d="M110.443 226.554C124.687 226.554 136.234 215.477 136.234 201.812C136.234 188.147 124.687 177.069 110.443 177.069C96.1985 177.069 84.6514 188.147 84.6514 201.812C84.6514 215.477 96.1985 226.554 110.443 226.554Z" fill="#5B6CB1"/>
</g>
<g opacity="0.4">
<path d="M345.923 158.731V55.3225" stroke="#5B6CB1" stroke-width="2" stroke-linecap="round" stroke-linejoin="round"/>
<path d="M352.465 176.974C361.264 173.396 365.373 163.651 361.643 155.21C357.913 146.768 347.756 142.826 338.956 146.405C330.157 149.983 326.048 159.727 329.778 168.169C333.508 176.61 343.665 180.552 352.465 176.974Z" fill="#5B6CB1"/>
</g>
<path d="M324.092 204.046V48.1978" stroke="#FBFFFF" stroke-width="2" stroke-linecap="round" stroke-linejoin="round"/>
<path d="M345.238 243.833C359.691 232.876 362.147 212.753 350.725 198.889C339.303 185.024 318.328 182.667 303.876 193.625C289.424 204.582 286.967 224.705 298.389 238.569C309.811 252.434 330.786 254.791 345.238 243.833Z" fill="#F8B193"/>
<path d="M333.566 243.139C330.47 245.364 327.636 247.907 325.116 250.722C331.216 250.619 337.17 248.918 342.335 245.803C346.94 240.148 351.324 233.686 349.276 230.127C346.287 227.566 340.97 238.067 333.566 243.139Z" fill="#EF7F7E"/>
<path d="M356.869 210.799C356.152 208.093 355.065 205.49 353.638 203.056C339.286 210.494 320.329 221.489 318.63 219.226C315.528 215.042 331.92 202.001 334.332 200.022C336.054 198.603 339.984 195.888 343.989 192.745C341.714 191.185 339.245 189.904 336.638 188.931C328.689 193.8 320.86 198.857 313.039 203.922C305.863 208.572 298.43 213.063 291.216 217.844C291.046 223.527 292.458 229.151 295.304 234.137C300.516 231.459 306.599 228.315 308.078 229.516C309.269 230.47 305.295 235.927 300.781 241.16C304.318 244.601 308.616 247.235 313.358 248.866C326.367 237.725 344.763 222.355 356.975 211.214C356.937 211.083 356.907 210.938 356.869 210.799Z" fill="#EF7F7E"/>
<path d="M357.704 222.312C357.817 221.366 357.878 220.405 357.901 219.444C349.883 223.134 339.134 226.722 327.452 229.589C315.77 232.456 304.544 234.261 295.668 234.719C296.169 235.556 296.715 236.371 297.292 237.157C306.258 236.568 317.31 234.675 328.104 232.027C338.248 229.626 348.153 226.375 357.704 222.312Z" fill="#070000"/>
<path d="M355.784 207.488C356.103 208.303 356.376 209.133 356.634 209.984C366.852 209.599 370.061 211.287 370.349 212.357C370.637 213.426 368.642 216.41 359.372 220.82C351.263 224.67 340.097 228.432 327.938 231.423C315.778 234.414 304.111 236.24 295.069 236.597C284.73 237.004 281.491 235.302 281.203 234.232C280.914 233.162 282.894 230.2 292.042 225.834C291.845 224.982 291.671 224.124 291.542 223.272L291.018 223.513C281.961 227.821 277.804 231.634 278.661 234.858C280.512 241.793 305.211 239.602 328.59 233.853C340.924 230.833 352.265 226.998 360.533 223.076C369.59 218.768 373.747 214.955 372.89 211.731C371.957 208.238 365.229 207.059 355.784 207.488Z" fill="#FBFFFF"/>
<path d="M64.2082 223.44V62.8398" stroke="#FBFFFF" stroke-width="2" stroke-linecap="round" stroke-linejoin="round"/>
<path d="M64.2082 281.293C86.4456 281.293 104.473 263.999 104.473 242.666C104.473 221.333 86.4456 204.039 64.2082 204.039C41.9707 204.039 23.9437 221.333 23.9437 242.666C23.9437 263.999 41.9707 281.293 64.2082 281.293Z" fill="#5B6CB1"/>
<path d="M56.395 204.774C48.4835 206.282 41.2257 210.033 35.5607 215.542C29.8957 221.05 26.084 228.063 24.6188 235.673C28.2523 235.389 29.6177 238.256 32.3941 240.279C39.919 245.781 43.0139 241.312 50.2734 239.726C56.5391 238.351 63.7455 241.713 66.9618 233.904C69.7153 227.151 62.4711 222.261 61.3863 216.192C60.3547 210.45 59.5885 207.219 56.395 204.774Z" fill="#C1D57E"/>
<path d="M103.062 252.825C102.505 252.569 101.97 252.273 101.461 251.937C99.1324 250.38 96.7505 249.026 94.308 247.25C92.586 245.984 91.3192 244.682 89.0587 244.478C83.0509 243.925 80.98 249.106 78.4388 252.941C75.1012 257.926 70.0416 260.851 69.2527 266.877C68.5562 271.583 68.1938 276.329 68.1679 281.082C76.2812 280.311 83.9599 277.198 90.19 272.153C96.42 267.108 100.908 260.368 103.062 252.825Z" fill="#C1D57E"/>
<path d="M47.6867 251.093C34.2601 251.093 38.8949 267.488 48.3239 270.159C54.2103 271.826 59.8237 268.158 60.1574 262.387C60.6429 254.441 53.52 253.349 47.6867 251.093Z" fill="#C1D57E"/>
<path d="M84.0977 223.44C83.5743 223.527 83.0053 224.299 82.8309 224.713C81.9585 226.809 82.1785 229.436 84.348 230.761C86.0244 231.794 89.438 232.216 90.2572 229.975C90.6003 228.929 90.5736 227.803 90.1813 226.773C89.309 224.517 87.3974 223.862 85.1445 223.44H84.0977Z" fill="#C1D57E"/>
<path d="M186.056 349C237.9 349 279.928 346.719 279.928 343.906C279.928 341.093 237.9 338.812 186.056 338.812C134.212 338.812 92.184 341.093 92.184 343.906C92.184 346.719 134.212 349 186.056 349Z" fill="#070000"/>
<path d="M286.38 244.643L270.477 241.785L258.698 302.104L274.602 304.962L286.38 244.643Z" fill="#FDCE64"/>
<path d="M286.375 244.642L280.119 243.518L268.341 303.837L274.596 304.961L286.375 244.642Z" fill="#EF7F7E"/>
<path d="M281.051 248.146L285.519 248.946" stroke="#070000" stroke-width="2" stroke-miterlimit="10"/>
<path d="M279.928 253.865L284.404 254.666" stroke="#070000" stroke-width="2" stroke-miterlimit="10"/>
<path d="M278.813 259.585L283.289 260.393" stroke="#070000" stroke-width="2" stroke-miterlimit="10"/>
<path d="M277.698 265.312L282.166 266.113" stroke="#070000" stroke-width="2" stroke-miterlimit="10"/>
<path d="M276.575 271.032L281.051 271.833" stroke="#070000" stroke-width="2" stroke-miterlimit="10"/>
<path d="M275.46 276.752L279.936 277.56" stroke="#070000" stroke-width="2" stroke-miterlimit="10"/>
<path d="M274.345 282.472L278.813 283.28" stroke="#070000" stroke-width="2" stroke-miterlimit="10"/>
<path d="M273.223 288.199L277.698 289" stroke="#070000" stroke-width="2" stroke-miterlimit="10"/>
<path d="M272.107 293.919L276.583 294.726" stroke="#070000" stroke-width="2" stroke-miterlimit="10"/>
<path d="M270.992 299.639L275.46 300.447" stroke="#070000" stroke-width="2" stroke-miterlimit="10"/>
<path d="M136.962 297.289L124.696 301.095L111.232 261.07C110.971 260.297 110.873 259.482 110.941 258.673C111.009 257.863 111.243 257.074 111.629 256.351C112.015 255.628 112.546 254.985 113.191 254.458C113.836 253.932 114.583 253.533 115.388 253.284C116.194 253.034 117.044 252.939 117.888 253.005C118.732 253.07 119.554 253.294 120.308 253.665C121.061 254.035 121.732 254.544 122.28 255.163C122.829 255.782 123.245 256.498 123.505 257.271L136.962 297.289Z" fill="#FDCE64"/>
<path d="M115.388 253.313C114.583 253.562 113.836 253.961 113.191 254.487C112.546 255.014 112.015 255.657 111.629 256.38C111.243 257.103 111.009 257.892 110.941 258.702C110.873 259.511 110.971 260.326 111.232 261.099L112.513 264.905L124.787 261.106L123.543 257.3C123.283 256.523 122.866 255.803 122.315 255.181C121.763 254.559 121.089 254.048 120.331 253.678C119.573 253.307 118.746 253.084 117.898 253.021C117.05 252.959 116.197 253.058 115.388 253.313Z" fill="#EF7F7E"/>
<path d="M116.321 256.085C116.748 255.952 117.198 255.901 117.645 255.936C118.093 255.97 118.529 256.089 118.928 256.285C119.327 256.481 119.683 256.75 119.973 257.078C120.264 257.406 120.485 257.785 120.622 258.195" stroke="#FBFFFF" stroke-width="2" stroke-linecap="round" stroke-linejoin="round"/>
<path d="M124.785 261.11L112.513 264.91L114.085 269.584L126.357 265.784L124.785 261.11Z" fill="#FBFFFF"/>
<path d="M118.18 268.318L128.785 299.828" stroke="#070000" stroke-width="2" stroke-miterlimit="10"/>
<path d="M122.989 266.826L133.594 298.336" stroke="#070000" stroke-width="2" stroke-miterlimit="10"/>
<path d="M116.534 284.721H148.902V328.144H127.472C124.571 328.144 121.789 327.038 119.738 325.07C117.686 323.102 116.534 320.433 116.534 317.65V284.721Z" fill="#94533F"/>
<path d="M148.902 328.144V284.721H133.473C133.473 297.579 127.472 328.144 127.472 328.144H148.902Z" fill="#070000"/>
<path d="M270.203 328.144H248.774V284.721H281.149V317.65C281.149 319.029 280.866 320.394 280.316 321.668C279.766 322.941 278.959 324.099 277.943 325.073C276.926 326.048 275.72 326.82 274.392 327.347C273.064 327.874 271.64 328.145 270.203 328.144Z" fill="#94533F"/>
<path d="M248.774 328.144V284.721H264.203C264.203 297.579 270.203 328.144 270.203 328.144H248.774Z" fill="#070000"/>
<path d="M184.539 186.719H213.364C226.908 186.719 239.897 191.881 249.474 201.068C259.051 210.255 264.431 222.716 264.431 235.709V329.839C264.431 333.7 262.832 337.401 259.987 340.131C257.142 342.86 253.283 344.394 249.26 344.394H148.644C144.62 344.394 140.761 342.86 137.916 340.131C135.071 337.401 133.473 333.7 133.473 329.839V235.709C133.473 222.716 138.853 210.255 148.43 201.068C158.006 191.881 170.995 186.719 184.539 186.719Z" fill="#5B6CB1"/>
<path d="M209.989 228.686H184.903V252.752H209.989V228.686Z" fill="#070000"/>
<path d="M211.506 227.231H186.42V251.297H211.506V227.231Z" fill="#94533F"/>
<path d="M193.657 233.729V245.373" stroke="#070000" stroke-width="2" stroke-linecap="round" stroke-linejoin="round"/>
<path d="M204.277 233.729V245.373" stroke="#070000" stroke-width="2" stroke-linecap="round" stroke-linejoin="round"/>
<path d="M254.592 250.278L213.721 243.867C206.411 242.72 199.713 239.254 194.7 234.022C189.687 228.791 186.648 222.097 186.071 215.013L184.554 196.179L254.592 250.278Z" fill="#7BC9EF"/>
<path d="M143.334 250.278V235.723C143.346 225.243 147.691 215.195 155.416 207.785C163.141 200.374 173.614 196.205 184.539 196.194H213.364C224.289 196.205 234.763 200.374 242.487 207.785C250.212 215.195 254.557 225.243 254.569 235.723V250.278" stroke="#070000" stroke-width="2" stroke-linecap="round" stroke-linejoin="round"/>
<path d="M254.592 250.278V235.723C254.58 225.243 250.235 215.195 242.51 207.785C234.785 200.374 224.312 196.205 213.387 196.194H184.562L254.592 250.278Z" fill="#070000"/>
<path d="M133.473 323.53V329.839C133.473 333.699 135.071 337.401 137.916 340.131C140.761 342.86 144.62 344.393 148.644 344.393H249.282C253.306 344.393 257.165 342.86 260.01 340.131C262.855 337.401 264.454 333.699 264.454 329.839V323.53H133.473Z" fill="#F8B193"/>
<path d="M159.142 293.454V328.719C159.142 330.552 159.902 332.311 161.253 333.607C162.604 334.904 164.437 335.632 166.349 335.632H231.585C233.496 335.632 235.329 334.904 236.681 333.607C238.032 332.311 238.791 330.552 238.791 328.719V293.454H159.142Z" fill="#070000"/>
<path d="M157.056 288.723V325.837C157.056 327.767 157.855 329.618 159.278 330.982C160.701 332.347 162.63 333.114 164.642 333.114H233.292C235.304 333.114 237.233 332.347 238.656 330.982C240.078 329.618 240.877 327.767 240.877 325.837V288.723H157.056Z" fill="#94533F"/>
<path d="M157.056 302.914C157.948 305.318 159.593 307.399 161.766 308.871C163.939 310.343 166.533 311.134 169.193 311.137H228.74C231.4 311.134 233.995 310.343 236.168 308.871C238.34 307.399 239.985 305.318 240.877 302.914V288.723H157.056V302.914Z" fill="#070000"/>
<path d="M170.521 308.248V333.114" stroke="#070000" stroke-width="2" stroke-linecap="round" stroke-linejoin="round"/>
<path d="M227.413 308.248V333.114" stroke="#070000" stroke-width="2" stroke-linecap="round" stroke-linejoin="round"/>
<path d="M156.298 276.716H241.636V295.877C241.636 299.158 240.277 302.304 237.859 304.624C235.441 306.944 232.16 308.248 228.74 308.248H169.193C165.773 308.248 162.493 306.944 160.075 304.624C157.656 302.304 156.298 299.158 156.298 295.877V276.716Z" fill="#F8B193"/>
<path d="M236.326 276.716V295.877C236.326 297.807 235.527 299.658 234.104 301.022C232.682 302.387 230.752 303.154 228.74 303.154H169.193C167.181 303.154 165.252 302.387 163.829 301.022C162.407 299.658 161.608 297.807 161.608 295.877V276.716" stroke="#070000" stroke-width="2" stroke-linecap="round" stroke-linejoin="round"/>
<path d="M170.521 297.361C172.247 297.361 173.646 296.019 173.646 294.363C173.646 292.707 172.247 291.365 170.521 291.365C168.795 291.365 167.395 292.707 167.395 294.363C167.395 296.019 168.795 297.361 170.521 297.361Z" fill="#FBFFFF"/>
<path d="M227.413 297.361C229.139 297.361 230.538 296.019 230.538 294.363C230.538 292.707 229.139 291.365 227.413 291.365C225.687 291.365 224.288 292.707 224.288 294.363C224.288 296.019 225.687 297.361 227.413 297.361Z" fill="#FBFFFF"/>
<path d="M174.579 208.136L178.076 210.588C178.325 210.762 178.607 210.886 178.907 210.952C179.207 211.018 179.518 211.025 179.82 210.973C180.123 210.92 180.412 210.81 180.669 210.647C180.926 210.485 181.145 210.274 181.315 210.028L186.663 202.256C187.254 201.438 187.489 200.431 187.316 199.45C187.144 198.469 186.579 197.591 185.741 197.004C184.904 196.417 183.86 196.167 182.833 196.308C181.806 196.449 180.878 196.97 180.246 197.759L174.177 204.999C173.982 205.228 173.837 205.492 173.751 205.776C173.665 206.06 173.64 206.357 173.678 206.65C173.716 206.944 173.815 207.226 173.97 207.482C174.125 207.737 174.332 207.96 174.579 208.136ZM183.735 199.643C184.054 199.867 184.297 200.175 184.433 200.531C184.569 200.887 184.592 201.273 184.499 201.641C184.406 202.009 184.201 202.343 183.91 202.599C183.62 202.855 183.256 203.023 182.866 203.081C182.476 203.139 182.076 203.085 181.718 202.925C181.36 202.766 181.06 202.508 180.855 202.184C180.65 201.86 180.55 201.486 180.567 201.107C180.584 200.729 180.718 200.364 180.951 200.058C181.263 199.65 181.732 199.377 182.254 199.299C182.775 199.221 183.308 199.345 183.735 199.643Z" fill="#FBFFFF"/>
<path d="M133.594 279.095C133.594 275.332 135.152 271.722 137.926 269.061C140.7 266.4 144.463 264.905 148.386 264.905H249.662C253.585 264.905 257.347 266.4 260.121 269.061C262.895 271.722 264.454 275.332 264.454 279.095" stroke="#070000" stroke-width="2" stroke-linecap="round" stroke-linejoin="round"/>
<path d="M184.114 190.474L174.01 193.494V182.251H184.114V190.474Z" fill="#94533F"/>
<path d="M224.075 193.494L213.964 190.474V182.251H224.075V193.494Z" fill="#94533F"/>
<path d="M218.826 176.844H179.221C178.532 176.844 177.85 176.974 177.214 177.227C176.577 177.481 175.999 177.852 175.512 178.319C175.025 178.787 174.64 179.342 174.377 179.953C174.114 180.564 173.979 181.219 173.98 181.88V188.466C173.979 188.069 174.059 187.677 174.217 187.31C174.374 186.944 174.605 186.611 174.897 186.331C175.189 186.05 175.535 185.828 175.917 185.676C176.298 185.524 176.707 185.446 177.12 185.446H220.927C221.762 185.446 222.563 185.764 223.153 186.33C223.744 186.897 224.075 187.665 224.075 188.466V181.88C224.075 180.544 223.522 179.263 222.538 178.319C221.553 177.375 220.218 176.844 218.826 176.844Z" fill="#F8B193"/>
<path d="M0 -2V95.9866C17.683 100.993 42.486 89.8388 59.2421 91.8663C124.031 99.7073 41.2474 135.293 99.1262 159.957C127.17 171.911 172.85 144.115 193.524 159.23C218.935 177.783 186.949 198.922 186.949 198.922L225.244 224C245.654 183.029 284.541 203.413 296.202 179.672C314.898 141.652 264.132 137.088 269.577 106.277C274.726 77.1436 342.537 86.0455 345.871 51.0991C348.052 28.1576 321.964 33.8039 317.687 19.1248C314.859 9.40174 318.372 3.80624 323.14 -1.94913L0 -2Z" fill="#070000"/>
<path opacity="0.5" d="M329.053 29.4811C320.208 33.3962 311.644 38.0827 305.977 40.3968C296.556 44.2319 251.361 66.5 242.524 55.1258C230.546 39.6982 261.283 11.8848 276.014 -2H154.758C147.551 2.16254 140.345 6.22321 132.972 10.1674C130.355 11.5719 110.503 23.0189 112.673 11.5283C113.606 6.57979 116.921 2.02428 120.076 -1.86173L120.19 -2H84.7198C61.4774 20.239 13.7486 62.3011 44.6904 73.4789C70.7698 82.8882 139.898 43.5988 168.397 38.4684C240.126 25.5514 178.653 58.4442 153.119 80.1447C137.372 93.5202 102.614 121.377 89.3546 149.518C92.6543 153.215 97.805 156.795 105.527 160.186C119.242 166.197 137.281 162.173 154.394 158.593C182.332 122.149 211.286 76.7099 231.312 87.9531C239.383 92.4796 197.814 117.222 216.247 131.18C223.074 136.368 239.163 121.537 245.436 132.831C246.567 134.869 219.736 155.311 222.255 164.851C226.268 180.133 280.156 166.066 291.549 165.521C294.682 165.375 298.005 165.404 301.411 165.521C302.662 139.985 266.919 132.861 271.47 106.372C276.484 77.1975 342.517 86.112 345.764 51.1161C347.152 36.569 337.412 33.5272 329.053 29.4811Z" fill="#5B6CB1"/>
<path d="M130.582 17.5681L136.552 18.3031L133.677 23.3753L134.785 29.0515L128.868 27.9963L123.588 30.7616L122.807 25.0418L118.43 21.0757L123.862 18.5942L126.441 13.3765L130.582 17.5681Z" fill="#FDCE64"/>
<path d="M221.489 149.409L224.075 152.618L220.017 153.782L217.643 157.13L215.238 153.789L211.18 152.654L213.751 149.43L213.622 145.377L217.605 146.723L221.587 145.355L221.489 149.409Z" fill="#FDCE64"/>
<path d="M288.06 12.0086L291.094 15.1887L286.907 16.7606L284.692 20.5083L281.847 17.1754L277.44 16.3167L279.868 12.6854L279.359 8.3991L283.706 9.49067L287.794 7.70776L288.06 12.0086Z" fill="#FDCE64"/>
<path d="M31.6203 72.7727L35.7848 74.4028L32.7051 77.5393L32.3789 81.8401L28.313 79.9989L23.9513 81.0323L24.5202 76.7533L22.1459 73.0929L26.5607 72.2924L29.4584 68.9958L31.6203 72.7727Z" fill="#FDCE64"/>
<path d="M238.602 5.33519C238.59 5.61871 238.492 5.89271 238.32 6.12347C238.147 6.35423 237.909 6.53169 237.633 6.63401C237.357 6.73633 237.056 6.75904 236.767 6.69937C236.478 6.6397 236.213 6.50023 236.005 6.29813C235.798 6.09603 235.656 5.84011 235.598 5.56186C235.54 5.28361 235.568 4.99516 235.679 4.73201C235.789 4.46885 235.978 4.24247 236.221 4.08071C236.464 3.91894 236.751 3.82886 237.047 3.82153C237.253 3.82151 237.457 3.86081 237.647 3.93714C237.837 4.01348 238.01 4.12532 238.154 4.26617C238.299 4.40702 238.413 4.57406 238.49 4.75758C238.567 4.94111 238.605 5.13745 238.602 5.33519Z" fill="#FBFFFF"/>
<path d="M278.714 34.8446C278.714 35.1325 278.625 35.4138 278.459 35.6532C278.292 35.8925 278.055 36.0791 277.778 36.1892C277.501 36.2994 277.196 36.3282 276.901 36.2721C276.607 36.2159 276.337 36.0773 276.125 35.8737C275.912 35.6702 275.768 35.4109 275.709 35.1285C275.651 34.8462 275.681 34.5536 275.796 34.2876C275.91 34.0217 276.105 33.7944 276.354 33.6344C276.604 33.4745 276.897 33.3892 277.197 33.3892C277.6 33.3892 277.986 33.5425 278.27 33.8154C278.555 34.0884 278.714 34.4586 278.714 34.8446Z" fill="#FBFFFF"/>
<path d="M33.7671 13.3768C33.7596 13.663 33.6643 13.9408 33.4931 14.1753C33.322 14.4098 33.0825 14.5907 32.8047 14.6953C32.5269 14.7999 32.2231 14.8235 31.9314 14.7633C31.6396 14.7031 31.3729 14.5617 31.1645 14.3568C30.9561 14.1519 30.8153 13.8926 30.7598 13.6113C30.7042 13.33 30.7364 13.0392 30.8523 12.7754C30.9681 12.5116 31.1625 12.2864 31.4111 12.128C31.6597 11.9696 31.9515 11.8851 32.2499 11.885C32.6557 11.8945 33.0416 12.0559 33.3251 12.3346C33.6086 12.6134 33.7672 12.9874 33.7671 13.3768Z" fill="#FBFFFF"/>
<path d="M170.028 60.9037C170.028 61.19 169.939 61.4699 169.774 61.7084C169.609 61.9469 169.375 62.1333 169.1 62.2445C168.825 62.3556 168.521 62.3865 168.228 62.3332C167.935 62.28 167.665 62.1449 167.451 61.945C167.237 61.7451 167.09 61.4892 167.027 61.2093C166.965 60.9294 166.989 60.6379 167.098 60.3715C167.207 60.105 167.396 59.8752 167.64 59.711C167.885 59.5468 168.174 59.4554 168.473 59.4482C168.879 59.4481 169.268 59.6003 169.559 59.8722C169.85 60.1442 170.018 60.5144 170.028 60.9037Z" fill="#FBFFFF"/>
<path d="M205.824 86.381C205.824 86.6688 205.735 86.9502 205.569 87.1896C205.402 87.4289 205.165 87.6155 204.888 87.7256C204.61 87.8358 204.305 87.8646 204.011 87.8084C203.717 87.7523 203.447 87.6137 203.234 87.4101C203.022 87.2066 202.878 86.9472 202.819 86.6649C202.761 86.3826 202.791 86.0899 202.905 85.824C203.02 85.5581 203.215 85.3308 203.464 85.1708C203.714 85.0109 204.007 84.9255 204.307 84.9255C204.709 84.9255 205.095 85.0789 205.38 85.3518C205.664 85.6248 205.824 85.995 205.824 86.381Z" fill="#FBFFFF"/>
<path d="M264.802 127.185C264.795 127.471 264.7 127.749 264.529 127.983C264.357 128.218 264.118 128.399 263.84 128.503C263.562 128.608 263.259 128.631 262.967 128.571C262.675 128.511 262.408 128.37 262.2 128.165C261.991 127.96 261.851 127.7 261.795 127.419C261.74 127.138 261.772 126.847 261.888 126.583C262.004 126.319 262.198 126.094 262.447 125.936C262.695 125.777 262.987 125.693 263.285 125.693C263.488 125.693 263.688 125.732 263.875 125.807C264.061 125.882 264.23 125.993 264.372 126.132C264.513 126.271 264.624 126.436 264.698 126.617C264.772 126.797 264.808 126.991 264.802 127.185Z" fill="#FBFFFF"/>
<path d="M99.5496 132.213C99.5421 132.498 99.4477 132.774 99.2781 133.008C99.1086 133.241 98.8713 133.422 98.5957 133.528C98.3201 133.633 98.0183 133.659 97.7275 133.602C97.4368 133.544 97.17 133.407 96.9602 133.205C96.7503 133.004 96.6066 132.748 96.5469 132.469C96.4871 132.19 96.514 131.901 96.6241 131.636C96.7341 131.372 96.9227 131.144 97.1663 130.982C97.4099 130.819 97.6978 130.728 97.9945 130.721C98.2002 130.716 98.4047 130.751 98.5957 130.825C98.7867 130.898 98.9602 131.007 99.1057 131.147C99.2512 131.287 99.3655 131.453 99.4418 131.636C99.5181 131.819 99.5548 132.016 99.5496 132.213Z" fill="#FBFFFF"/>
<path d="M35.3146 56.545C35.3146 56.8329 35.2256 57.1143 35.0589 57.3536C34.8922 57.593 34.6552 57.7795 34.378 57.8897C34.1008 57.9998 33.7957 58.0287 33.5015 57.9725C33.2072 57.9163 32.9368 57.7777 32.7247 57.5742C32.5125 57.3706 32.368 57.1113 32.3095 56.829C32.2509 56.5467 32.281 56.254 32.3958 55.9881C32.5106 55.7221 32.7051 55.4948 32.9546 55.3349C33.204 55.175 33.4974 55.0896 33.7974 55.0896C34.1998 55.0896 34.5857 55.2429 34.8702 55.5159C35.1547 55.7888 35.3146 56.159 35.3146 56.545Z" fill="#FBFFFF"/>
<path d="M359.577 73.8788C357.941 74.3011 356.449 75.1284 355.251 76.2778C354.053 77.4273 353.19 78.8585 352.75 80.4283C352.31 78.8585 351.448 77.4273 350.25 76.2778C349.051 75.1284 347.559 74.3011 345.923 73.8788C347.559 73.4565 349.051 72.6292 350.25 71.4798C351.448 70.3303 352.31 68.8991 352.75 67.3293C353.19 68.8991 354.053 70.3303 355.251 71.4798C356.449 72.6292 357.941 73.4565 359.577 73.8788Z" fill="#FBFFFF"/>
<path d="M276.135 87.8656C274.5 88.2886 273.008 89.1161 271.81 90.2654C270.612 91.4148 269.749 92.8457 269.308 94.4151C268.867 92.8457 268.005 91.4148 266.807 90.2654C265.609 89.1161 264.117 88.2886 262.481 87.8656C264.118 87.4433 265.61 86.616 266.808 85.4666C268.006 84.3172 268.868 82.8859 269.308 81.3162C269.749 82.8859 270.611 84.3172 271.809 85.4666C273.007 86.616 274.499 87.4433 276.135 87.8656Z" fill="#FBFFFF"/>
<path d="M211.187 10.422C209.551 10.8443 208.059 11.6716 206.861 12.821C205.663 13.9705 204.8 15.4017 204.36 16.9715C203.92 15.4017 203.058 13.9705 201.859 12.821C200.661 11.6716 199.169 10.8443 197.533 10.422C199.169 9.99972 200.661 9.17243 201.859 8.02299C203.058 6.87355 203.92 5.4423 204.36 3.87256C204.8 5.4423 205.663 6.87355 206.861 8.02299C208.059 9.17243 209.551 9.99972 211.187 10.422Z" fill="#FBFFFF"/>
<path d="M211.104 123.575C209.468 123.997 207.976 124.825 206.777 125.974C205.579 127.124 204.717 128.555 204.277 130.125C203.837 128.555 202.974 127.124 201.776 125.974C200.578 124.825 199.086 123.997 197.45 123.575C199.085 123.151 200.576 122.323 201.774 121.174C202.971 120.025 203.834 118.594 204.277 117.026C204.719 118.594 205.582 120.025 206.78 121.174C207.978 122.323 209.469 123.151 211.104 123.575Z" fill="#FBFFFF"/>
<path d="M227.049 100.608C226.049 100.867 225.138 101.372 224.406 102.075C223.674 102.777 223.146 103.651 222.877 104.61C222.61 103.65 222.084 102.774 221.351 102.071C220.619 101.369 219.706 100.864 218.705 100.608C219.704 100.349 220.616 99.8435 221.348 99.1412C222.08 98.4388 222.607 97.5645 222.877 96.6055C223.148 97.5635 223.676 98.4368 224.408 99.1388C225.14 99.8409 226.05 100.347 227.049 100.608Z" fill="#FBFFFF"/>
<path d="M124.446 55.8462C123.445 56.1035 122.533 56.6088 121.801 57.3113C121.068 58.0139 120.542 58.889 120.274 59.8486C120.005 58.889 119.479 58.0139 118.746 57.3113C118.014 56.6088 117.102 56.1035 116.101 55.8462C117.101 55.5876 118.013 55.0818 118.745 54.3795C119.477 53.6771 120.004 52.8028 120.274 51.8438C120.543 52.8028 121.07 53.6771 121.802 54.3795C122.535 55.0818 123.446 55.5876 124.446 55.8462Z" fill="#FBFFFF"/>
<path d="M27.562 42.2087C26.5617 42.466 25.6495 42.9713 24.9172 43.6739C24.1848 44.3764 23.6581 45.2515 23.3899 46.2112C23.1196 45.2525 22.5922 44.3785 21.8602 43.6763C21.1282 42.974 20.2171 42.468 19.2178 42.2087C20.2175 41.9501 21.1289 41.4444 21.861 40.742C22.5932 40.0397 23.1203 39.1653 23.3899 38.2063C23.6567 39.1666 24.183 40.0424 24.9155 40.7452C25.6481 41.448 26.561 41.9528 27.562 42.2087Z" fill="#FBFFFF"/>
<path d="M248.486 154.904C247.486 155.162 246.575 155.668 245.843 156.37C245.11 157.073 244.583 157.947 244.314 158.906C244.044 157.947 243.517 157.073 242.785 156.37C242.053 155.668 241.141 155.162 240.142 154.904C241.141 154.645 242.053 154.139 242.785 153.437C243.517 152.734 244.044 151.86 244.314 150.901C244.583 151.86 245.11 152.734 245.843 153.437C246.575 154.139 247.486 154.645 248.486 154.904Z" fill="#FBFFFF"/>
<path d="M301.221 104.392C300.221 104.649 299.309 105.154 298.576 105.857C297.844 106.56 297.317 107.435 297.049 108.394C296.779 107.436 296.251 106.562 295.519 105.859C294.787 105.157 293.876 104.651 292.877 104.392C293.876 104.133 294.787 103.627 295.519 102.924C296.251 102.222 296.779 101.348 297.049 100.389C297.317 101.349 297.844 102.224 298.576 102.927C299.309 103.629 300.221 104.135 301.221 104.392Z" fill="#FBFFFF"/>
<path d="M102.857 157.64C101.222 158.065 99.7309 158.893 98.5331 160.042C97.3352 161.191 96.4722 162.621 96.0299 164.19C95.5897 162.62 94.7273 161.189 93.5292 160.039C92.331 158.89 90.8391 158.063 89.2028 157.64C90.8391 157.218 92.331 156.391 93.5292 155.241C94.7273 154.092 95.5897 152.661 96.0299 151.091C96.4722 152.66 97.3352 154.09 98.5331 155.239C99.7309 156.388 101.222 157.216 102.857 157.64Z" fill="#FBFFFF"/>
<path d="M113.333 69.8983C111.697 70.3213 110.205 71.1488 109.007 72.2981C107.809 73.4475 106.947 74.8784 106.506 76.4478C106.065 74.878 105.203 73.4468 104.005 72.2974C102.807 71.1479 101.315 70.3206 99.6786 69.8983C101.315 69.476 102.807 68.6488 104.005 67.4993C105.203 66.3499 106.065 64.9186 106.506 63.3489C106.947 64.9183 107.809 66.3492 109.007 67.4985C110.205 68.6479 111.697 69.4754 113.333 69.8983Z" fill="#FBFFFF"/>
<path d="M173.069 46.8606C184.002 44.934 191.237 34.8695 189.229 24.3808C187.221 13.892 176.73 6.95098 165.797 8.87748C154.863 10.804 147.628 20.8685 149.636 31.3573C151.644 41.846 162.136 48.7871 173.069 46.8606Z" fill="#FBFFFF"/>
<path d="M187.111 41.8815C190.038 38.7328 191.958 34.8416 192.64 30.6734C193.323 26.5052 192.739 22.2366 190.958 18.3786C189.178 14.5205 186.276 11.2364 182.6 8.91915C178.925 6.60193 174.631 5.34981 170.233 5.31262C165.835 5.27543 161.519 6.45475 157.802 8.70945C154.084 10.9641 151.123 14.1987 149.272 18.0261C147.421 21.8534 146.758 26.1114 147.364 30.2905C147.97 34.4696 149.818 38.3927 152.687 41.5905L148.333 46.2697C147.382 46.111 146.405 46.1882 145.494 46.4939C144.583 46.7996 143.769 47.3236 143.129 48.0162L128.936 63.2983C127.93 64.3791 127.413 65.799 127.499 67.2456C127.584 68.6922 128.265 70.0471 129.391 71.0121C130.518 71.9771 131.998 72.4732 133.506 72.3913C135.014 72.3095 136.426 71.6563 137.432 70.5754L151.625 55.2934C152.267 54.6011 152.714 53.7639 152.927 52.8602C153.139 51.9565 153.109 51.0159 152.839 50.1266L157.185 45.4401C161.778 48.4204 167.341 49.7023 172.844 49.0479C178.347 48.3936 183.415 45.8474 187.111 41.8815ZM156.92 16.084C159.226 13.6028 162.248 11.8335 165.603 10.9998C168.957 10.166 172.494 10.3053 175.767 11.3999C179.039 12.4945 181.899 14.4953 183.986 17.1494C186.073 19.8035 187.293 22.9917 187.491 26.3107C187.69 29.6298 186.858 32.9308 185.1 35.7963C183.343 38.6618 180.74 40.9631 177.62 42.4093C174.499 43.8555 171.002 44.3816 167.57 43.9211C164.138 43.4605 160.925 42.0341 158.338 39.8221C154.874 36.8519 152.778 32.6846 152.512 28.2344C152.247 23.7842 153.832 19.4145 156.92 16.084Z" fill="#7BC9EF"/>
<path d="M148.333 46.2695L152.839 50.1192" stroke="#070000" stroke-width="2" stroke-linecap="round" stroke-linejoin="round"/>
<path d="M257.331 182.738C254.996 180.343 252.105 178.51 248.893 177.39C245.68 176.27 242.237 175.893 238.844 176.291C238.844 176.291 229.795 169.683 219.357 174.013C202.669 180.934 208.168 221.904 228.088 219.35C244.67 230.295 269.946 195.299 257.331 182.738Z" fill="#EF7F7E"/>
<path d="M252.408 187.279C254.152 189.019 254.319 192.541 253.075 196.609" stroke="#FBFFFF" stroke-width="2" stroke-linecap="round" stroke-linejoin="round"/>
<path d="M244.01 180.366C243.661 181.763 240.847 182.316 237.722 181.596C234.597 180.876 232.351 179.202 232.7 177.746" stroke="#070000" stroke-width="2" stroke-linecap="round" stroke-linejoin="round"/>
<path d="M237.722 181.596C237.722 181.596 240.066 173.278 237.54 166.212" stroke="#070000" stroke-width="2" stroke-linecap="round" stroke-linejoin="round"/>
<path d="M259.371 169.21C259.371 169.21 256.838 176.705 251.323 178.292C245.808 179.878 239.391 174.952 239.391 174.952C239.391 174.952 241.924 167.449 247.439 165.862C252.954 164.276 259.371 169.21 259.371 169.21Z" fill="#46B17B"/>
<path d="M259.371 169.21L239.391 174.952" stroke="#070000" stroke-width="2" stroke-linecap="round" stroke-linejoin="round"/>
<path d="M256.644 107.669L249.095 100.166C246.768 97.8519 242.926 97.7863 240.515 100.019L216.131 122.592C213.72 124.825 213.651 128.51 215.979 130.824L223.527 138.328C225.854 140.642 229.696 140.707 232.108 138.475L256.491 115.901C258.903 113.669 258.971 109.983 256.644 107.669Z" fill="#5B6CB1"/>
<path d="M228.338 111.298L216.148 122.585C214.99 123.657 214.322 125.125 214.292 126.669C214.262 128.212 214.873 129.704 215.989 130.816L223.575 138.326C224.692 139.436 226.224 140.075 227.833 140.103C229.442 140.13 230.996 139.543 232.154 138.471L244.344 127.184L228.338 111.298Z" fill="#EF7F7E"/>
<path d="M228.338 111.298L244.314 127.184" stroke="#FBFFFF" stroke-width="2" stroke-miterlimit="10"/>
<path d="M253.363 104.393C254.481 105.503 255.092 106.995 255.064 108.538C255.035 110.081 254.369 111.551 253.212 112.623L228.831 135.182C227.673 136.254 226.119 136.841 224.51 136.814C222.901 136.786 221.37 136.147 220.252 135.037" stroke="#070000" stroke-width="2" stroke-linecap="round" stroke-linejoin="round"/>
<path d="M175.71 77.2642L181.735 75.726C182.775 75.4605 183.883 75.6023 184.814 76.1201C185.745 76.638 186.424 77.4895 186.701 78.4873L188.109 83.5648C188.386 84.5626 188.238 85.6251 187.698 86.5184C187.158 87.4117 186.271 88.0627 185.231 88.3282L179.205 89.8664L175.71 77.2642Z" fill="#46B17B"/>
<path d="M180.089 89.7195L186.137 88.1642C187.181 87.8957 188.293 88.0361 189.23 88.5545C190.166 89.0729 190.849 89.9268 191.129 90.9284L192.553 96.0249C192.833 97.0265 192.686 98.0937 192.146 98.9918C191.605 99.8899 190.715 100.545 189.671 100.814L183.623 102.369L180.089 89.7195Z" fill="#5B6CB1"/>
<path d="M181.422 102.884L187.47 101.329C188.514 101.06 189.626 101.2 190.562 101.719C191.499 102.237 192.182 103.091 192.462 104.093L193.886 109.189C194.165 110.191 194.019 111.258 193.479 112.156C192.938 113.054 192.048 113.71 191.004 113.978L184.956 115.533L181.422 102.884Z" fill="#FDCE64"/>
<path d="M109.82 85.6176L175.744 68.7899L197.59 147.554L122.869 166.627L103.364 96.302C102.744 94.0639 103.075 91.6808 104.286 89.6771C105.497 87.6734 107.487 86.2131 109.82 85.6176Z" fill="#EF7F7E"/>
<path d="M199.657 155.1L132.85 172.157C131.812 172.423 130.729 172.49 129.663 172.354C128.598 172.218 127.571 171.882 126.641 171.365C125.711 170.848 124.896 170.16 124.244 169.341C123.591 168.522 123.113 167.587 122.837 166.59C122.561 165.594 122.492 164.556 122.635 163.535C122.777 162.513 123.127 161.529 123.666 160.638C124.205 159.746 124.922 158.965 125.775 158.34C126.629 157.714 127.602 157.256 128.64 156.992L195.447 139.905L199.657 155.1Z" fill="#5B6CB1"/>
<path d="M128.64 156.992C126.996 157.409 125.528 158.308 124.441 159.562C123.353 160.817 122.7 162.365 122.572 163.993C123.525 165.341 124.89 166.371 126.48 166.942C128.07 167.513 129.806 167.596 131.447 167.18L193.862 151.243L191.04 141.055L128.64 156.992Z" fill="#FDCE64"/>
<path d="M162.675 84.7991L126.264 94.0933C124.644 94.5067 123.681 96.1012 124.112 97.6548L127.363 109.378C127.794 110.932 129.456 111.856 131.076 111.442L167.487 102.148C169.106 101.735 170.069 100.14 169.639 98.5867L166.387 86.8636C165.956 85.31 164.294 84.3857 162.675 84.7991Z" fill="#FBFFFF"/>
<path d="M131.614 98.243L160.447 90.8857" stroke="#070000" stroke-width="2" stroke-linecap="round" stroke-linejoin="round"/>
<path d="M133.237 104.108L162.07 96.7434" stroke="#070000" stroke-width="2" stroke-linecap="round" stroke-linejoin="round"/>
<path d="M193.877 151.243L195.447 139.934L191.055 141.055L193.877 151.243Z" fill="#070000"/>
<path d="M130.34 159.692L191.867 143.988" stroke="#070000" stroke-width="2" stroke-linecap="round" stroke-linejoin="round"/>
<path d="M156.791 156.955L192.906 147.735" stroke="#070000" stroke-width="2" stroke-linecap="round" stroke-linejoin="round"/>
<path d="M131.379 163.446L151.177 158.389" stroke="#070000" stroke-width="2" stroke-linecap="round" stroke-linejoin="round"/>
<path d="M120.607 158.287C119.414 158.408 118.208 158.261 117.085 157.858C115.961 157.454 114.951 156.806 114.134 155.963C113.317 155.12 112.716 154.107 112.378 153.003C112.039 151.899 111.974 150.734 112.186 149.601C112.398 148.469 112.882 147.399 113.6 146.477C114.317 145.555 115.249 144.805 116.32 144.288C117.392 143.771 118.574 143.5 119.774 143.497C120.974 143.494 122.158 143.759 123.232 144.271C123.381 144.341 123.544 144.382 123.71 144.391C123.875 144.401 124.042 144.379 124.199 144.327C124.356 144.275 124.501 144.194 124.625 144.088C124.749 143.982 124.851 143.854 124.924 143.711C124.996 143.567 125.039 143.412 125.049 143.253C125.059 143.093 125.036 142.934 124.982 142.783C124.928 142.633 124.843 142.494 124.733 142.374C124.622 142.255 124.489 142.158 124.339 142.088C121.958 140.958 119.212 140.762 116.683 141.542C114.154 142.322 112.041 144.016 110.792 146.265C109.963 144.886 109.619 143.287 109.81 141.706C110 140.125 110.716 138.644 111.851 137.483C112.986 136.321 114.48 135.541 116.113 135.256C117.745 134.972 119.43 135.198 120.918 135.902C121.067 135.986 121.231 136.039 121.402 136.059C121.572 136.079 121.746 136.065 121.91 136.018C122.075 135.971 122.228 135.891 122.359 135.785C122.491 135.679 122.598 135.547 122.674 135.4C122.75 135.252 122.794 135.091 122.803 134.926C122.811 134.761 122.784 134.596 122.723 134.442C122.662 134.288 122.569 134.147 122.449 134.029C122.329 133.911 122.185 133.818 122.026 133.756C119.646 132.626 116.901 132.43 114.373 133.21C111.845 133.99 109.733 135.684 108.485 137.933C108.15 137.366 107.894 136.759 107.727 136.128C107.345 134.75 107.384 133.296 107.841 131.939C108.297 130.582 109.152 129.38 110.301 128.477C111.451 127.574 112.848 127.007 114.324 126.845C115.801 126.683 117.295 126.932 118.627 127.563C118.777 127.632 118.939 127.673 119.105 127.683C119.271 127.692 119.437 127.671 119.594 127.619C119.751 127.567 119.896 127.485 120.021 127.38C120.145 127.274 120.246 127.146 120.319 127.002C120.392 126.859 120.434 126.703 120.444 126.544C120.454 126.385 120.432 126.226 120.377 126.075C120.323 125.924 120.238 125.785 120.128 125.666C120.018 125.547 119.884 125.449 119.735 125.379C117.371 124.26 114.647 124.059 112.133 124.82C109.618 125.581 107.507 127.244 106.24 129.462C105.356 128.092 104.96 126.483 105.114 124.879C105.268 123.274 105.962 121.762 107.091 120.569C108.221 119.377 109.725 118.57 111.375 118.271C113.025 117.971 114.732 118.196 116.238 118.91C116.387 118.98 116.55 119.021 116.716 119.03C116.881 119.04 117.048 119.018 117.205 118.966C117.362 118.914 117.507 118.833 117.631 118.727C117.755 118.621 117.857 118.493 117.93 118.35C118.002 118.206 118.045 118.051 118.055 117.892C118.065 117.732 118.042 117.573 117.988 117.422C117.934 117.272 117.849 117.133 117.739 117.013C117.629 116.894 117.495 116.797 117.345 116.727C114.957 115.606 112.207 115.424 109.681 116.219C107.155 117.014 105.052 118.724 103.82 120.984C103.486 120.417 103.231 119.81 103.062 119.179C102.769 118.13 102.725 117.031 102.933 115.963C103.029 115.836 103.098 115.692 103.135 115.54C103.173 115.388 103.179 115.23 103.153 115.075C103.483 114.049 104.041 113.105 104.789 112.306C105.537 111.508 106.456 110.875 107.484 110.451C108.512 110.026 109.623 109.821 110.742 109.85C111.86 109.878 112.959 110.139 113.962 110.614C114.111 110.698 114.275 110.751 114.446 110.771C114.616 110.791 114.79 110.777 114.954 110.729C115.119 110.682 115.272 110.603 115.403 110.497C115.535 110.39 115.642 110.259 115.718 110.111C115.794 109.964 115.838 109.802 115.847 109.638C115.855 109.473 115.828 109.308 115.767 109.154C115.706 109 115.613 108.859 115.493 108.741C115.373 108.623 115.229 108.53 115.07 108.467C112.68 107.331 109.921 107.138 107.384 107.93C104.848 108.722 102.735 110.435 101.499 112.703C101.206 112.189 100.977 111.644 100.816 111.08C100.436 109.703 100.477 108.249 100.935 106.894C101.392 105.538 102.246 104.338 103.396 103.435C104.545 102.533 105.941 101.967 107.416 101.805C108.892 101.643 110.385 101.892 111.717 102.522C111.865 102.605 112.03 102.659 112.2 102.679C112.371 102.699 112.544 102.684 112.709 102.637C112.874 102.59 113.027 102.511 113.158 102.405C113.289 102.298 113.397 102.167 113.473 102.019C113.549 101.871 113.593 101.71 113.601 101.545C113.61 101.381 113.583 101.216 113.522 101.062C113.461 100.908 113.368 100.767 113.248 100.649C113.128 100.531 112.984 100.437 112.824 100.375C111.063 99.5391 109.087 99.208 107.134 99.4215C105.181 99.6349 103.333 100.384 101.812 101.579C100.292 102.773 99.1621 104.363 98.5589 106.158C97.9558 107.953 97.9047 109.876 98.4118 111.698C98.7966 113.103 99.5071 114.407 100.49 115.512C100.213 116.932 100.27 118.394 100.657 119.791C101.057 121.243 101.799 122.587 102.827 123.72C102.523 125.182 102.572 126.69 102.971 128.13C103.386 129.632 104.166 131.019 105.246 132.176C104.899 133.688 104.936 135.258 105.353 136.754C105.753 138.203 106.495 139.546 107.522 140.676C107.213 142.141 107.257 143.654 107.651 145.099C108.046 146.545 108.78 147.885 109.798 149.016C109.497 150.462 109.544 151.955 109.934 153.382C110.584 155.709 112.102 157.726 114.199 159.052C116.296 160.377 118.828 160.918 121.313 160.572L120.607 158.287Z" fill="#070000"/>
<path d="M280.512 65.2338C282.849 68.4066 287.62 72.0161 295.585 75.8803C310.149 82.9537 329.872 88.2369 332.148 83.9652C334.423 79.6935 318.266 67.5843 303.694 60.5109C295.729 56.6467 289.865 55.0967 285.822 55.1694L280.512 65.2338Z" fill="#94533F"/>
<path d="M319.184 84.3219L324.767 73.7482C323.288 72.5402 321.649 71.3104 319.897 70.1096L313.221 82.7792C315.292 83.3614 317.295 83.8708 319.184 84.3219Z" fill="#FDCE64"/>
<path d="M282.146 52.1545L275.812 64.168L279.989 66.1945L286.322 54.181L282.146 52.1545Z" fill="#FDCE64"/>
<path d="M276.727 62.4761L281.278 53.8818C281.076 52.1195 280.167 50.5016 278.745 49.3699L278.555 49.2317C278.013 48.8058 277.423 48.4397 276.795 48.1401C276.55 48.0244 276.296 47.9248 276.037 47.8417C273.526 46.7476 270.748 46.3396 268.011 46.6628C268.415 47.0664 268.783 47.5022 269.111 47.9654C266.817 48.492 264.58 49.2229 262.428 50.1486C262.428 50.1486 264.529 60.1402 269.255 62.4397C272.047 63.7715 274.641 63.6259 276.727 62.4761Z" fill="#5B6CB1"/>
<path d="M280.512 65.2335C280.512 65.2335 287.65 56.1443 290.935 55.7732C290.935 55.7732 287.18 54.7544 285.822 55.1837L280.512 65.2335Z" fill="#070000"/>
<path d="M263.968 52.0041C263.705 52.1466 263.492 52.3613 263.357 52.6206C263.222 52.8799 263.17 53.1721 263.209 53.4595C263.399 55.6427 263.862 62.7816 262.337 68.2904C260.509 74.8908 263.589 76.4845 265.371 76.4918C267.715 76.4918 269.566 72.2638 268.573 69.0472C268.145 67.5479 267.891 66.008 267.814 64.4554C267.793 64.2084 267.833 63.9603 267.929 63.7306C268.026 63.5008 268.177 63.2959 268.371 63.132C268.565 62.9682 268.795 62.8498 269.045 62.7865C269.295 62.7231 269.556 62.7165 269.809 62.767L270.985 63.0436C271.206 62.7162 271.351 62.3461 271.407 61.9594C271.464 61.5728 271.431 61.179 271.312 60.8057C271.192 60.4324 270.989 60.0888 270.716 59.799C270.444 59.5092 270.108 59.2803 269.733 59.1285C267.154 57.8913 266.084 51.0581 263.968 52.0041Z" fill="#EF7F7E"/>
<path d="M273.852 53.3066C274.8 54.4201 274.186 55.7882 273.23 56.545C272.274 57.3018 270.719 57.0107 269.763 55.8973C268.808 54.7839 268.815 53.2703 269.763 52.5134C270.712 51.7566 272.896 52.2005 273.852 53.3066Z" fill="#EF7F7E"/>
<path d="M276.773 153.848L289.896 142.386L286.103 138.297C286.103 138.297 284.973 138.704 283.069 139.192C282.259 139.413 281.407 139.447 280.581 139.29C279.755 139.133 278.98 138.79 278.32 138.289C276.745 137.111 274.842 136.405 272.851 136.259C269.651 136.027 266.458 136.793 263.748 138.442C257.68 142.081 255.146 148.805 258.157 153.462C258.421 153.873 258.724 154.261 259.06 154.619C260.75 156.343 263.061 157.383 265.523 157.53C268.736 157.771 271.944 157.005 274.664 155.347C275.424 154.898 276.142 154.386 276.811 153.819L276.773 153.848ZM272.479 152.043C270.52 153.263 268.202 153.84 265.872 153.688C265.024 153.659 264.194 153.44 263.45 153.049C262.705 152.657 262.067 152.103 261.586 151.432C259.788 148.652 261.745 144.242 265.857 141.797C267.817 140.58 270.134 140.003 272.464 140.152C273.916 140.226 275.284 140.824 276.295 141.826C276.468 142.008 276.623 142.206 276.757 142.416C277.169 143.128 277.402 143.923 277.436 144.736C277.47 145.55 277.305 146.36 276.955 147.102C276.064 149.171 274.496 150.905 272.487 152.043H272.479Z" fill="#C1D57E"/>
<path d="M277.471 154.576C276.812 155.156 276.203 155.786 275.65 156.46C273.63 158.87 272.478 161.841 272.365 164.931C272.257 167.299 273.092 169.617 274.702 171.415C275.035 171.778 275.403 172.109 275.802 172.405C280.3 175.781 287.552 174.122 291.974 168.708C293.994 166.296 295.146 163.322 295.259 160.23C295.321 158.314 294.793 156.424 293.742 154.794C293.293 154.11 293.021 153.334 292.947 152.529C292.873 151.724 293 150.914 293.317 150.166C294.03 148.441 294.576 147.4 294.576 147.4L290.783 143.311L277.478 154.576H277.471ZM284.472 155.136C285.282 154.886 286.142 154.822 286.982 154.948C287.822 155.075 288.62 155.388 289.312 155.864C289.511 156.018 289.699 156.185 289.873 156.366C290.797 157.441 291.266 158.81 291.185 160.201C291.087 162.439 290.235 164.586 288.758 166.321C285.784 169.96 280.998 171.364 278.312 169.348C277.664 168.813 277.157 168.139 276.831 167.38C276.506 166.621 276.371 165.8 276.439 164.982C276.537 162.744 277.389 160.597 278.866 158.862C280.266 157.072 282.233 155.765 284.472 155.136Z" fill="#C1D57E"/>
<path d="M290.768 143.311L294.561 147.4L305.249 138.122C311.765 132.511 322.817 119.667 320.678 117.382C318.539 115.097 304.028 124.23 297.512 129.841L286.05 138.297L289.843 142.386L292.74 140.88L290.768 143.311Z" fill="#FBFFFF"/>
<path d="M292.801 140.88C292.801 140.88 290.897 135.248 294.993 131.718" stroke="#070000" stroke-width="2" stroke-linecap="round" stroke-linejoin="round"/>
<path d="M320.709 117.382L305.727 130.27C303.688 132.022 302.381 134.424 302.048 137.031L301.995 137.431C301.67 140.038 300.364 142.442 298.323 144.191" stroke="#070000" stroke-width="2" stroke-linecap="round" stroke-linejoin="round"/>
<path d="M296.161 135.539C296.443 135.297 296.794 135.141 297.168 135.091C297.542 135.04 297.924 135.097 298.264 135.255C298.605 135.412 298.889 135.663 299.081 135.975C299.273 136.288 299.364 136.648 299.343 137.01C299.322 137.372 299.189 137.72 298.962 138.009C298.735 138.299 298.423 138.518 298.066 138.638C297.71 138.757 297.324 138.773 296.958 138.683C296.592 138.592 296.262 138.4 296.01 138.129C295.841 137.95 295.712 137.741 295.628 137.513C295.544 137.286 295.509 137.045 295.523 136.804C295.537 136.563 295.601 136.327 295.71 136.11C295.82 135.893 295.973 135.699 296.161 135.539Z" fill="#070000"/>
<path d="M251.611 81.9424C254.599 76.2222 255.241 69.6351 253.412 63.4825C251.582 57.3299 247.414 52.0593 241.73 48.7122C236.046 45.3651 229.261 44.1848 222.714 45.4047C216.167 46.6245 210.335 50.1558 206.37 55.3006L202.487 53.0156L196.532 62.3158L249.548 93.5276L255.533 84.2274L251.611 81.9424ZM235.81 58.0005C238.923 59.835 241.247 62.6795 242.361 66.0175C243.474 69.3556 243.303 72.966 241.879 76.1934L216.141 61.0569C218.495 58.3725 221.775 56.5876 225.384 56.0267C228.994 55.4658 232.693 56.1662 235.81 58.0005Z" fill="#FDCE64"/>
<path d="M199.832 57.1707L196.532 62.3156L249.548 93.5347L252.628 88.7245L199.832 57.1707Z" fill="#EF7F7E"/>
<path d="M207.152 60.6711L203.488 66.4128" stroke="#070000" stroke-width="2" stroke-linecap="round" stroke-linejoin="round"/>
<path d="M212.431 66.3396L209.951 70.2183" stroke="#070000" stroke-width="2" stroke-linecap="round" stroke-linejoin="round"/>
<path d="M220.085 68.283L216.414 74.0246" stroke="#070000" stroke-width="2" stroke-linecap="round" stroke-linejoin="round"/>
<path d="M225.357 73.9521L222.877 77.8309" stroke="#070000" stroke-width="2" stroke-linecap="round" stroke-linejoin="round"/>
<path d="M233.019 75.895L229.347 81.6367" stroke="#070000" stroke-width="2" stroke-linecap="round" stroke-linejoin="round"/>
<path d="M238.291 81.5642L235.81 85.4429" stroke="#070000" stroke-width="2" stroke-linecap="round" stroke-linejoin="round"/>
<path d="M245.945 83.5139L242.273 89.2483" stroke="#070000" stroke-width="2" stroke-linecap="round" stroke-linejoin="round"/>
<path d="M97.9946 111.8L75.177 130.124L43.0822 126.959L32.212 92.0063L57.5632 76.1421L88.5504 76.5933L97.9946 111.8Z" fill="#46B17B"/>
<path d="M32.212 92.0063L64.2082 92.916L88.5504 76.5933L57.5632 76.1421L32.212 92.0063Z" fill="#C1D57E"/>
<path d="M75.177 130.124L64.2082 92.916L88.5505 76.5933L97.9946 111.8L75.177 130.124Z" fill="#5B6CB1"/>
<path d="M349.215 61.2678L319.457 61.1587L297.049 38.8905L312.228 5.4519L342.274 9.00317L365.653 28.506L349.215 61.2678Z" fill="#5B6CB1"/>
<path d="M312.228 5.4519L336.077 25.9372L365.653 28.506L342.274 9.00317L312.228 5.4519Z" fill="#7BC9EF"/>
<path d="M319.457 61.1588L336.077 25.9373L365.653 28.5061L349.215 61.2679L319.457 61.1588Z" fill="#070000"/>
<path d="M95.8251 56.6252C95.8251 56.6252 86.9423 66.7477 69.3209 64.2225C51.6995 61.6974 46.3213 49.4644 46.3213 49.4644L49.7121 27.873L99.2159 35.0338L95.8251 56.6252Z" fill="#5B6CB1"/>
<path d="M70.5194 56.5451L74.4639 31.4534L49.712 27.873L47.0343 44.8944L70.5194 56.5451Z" fill="#070000"/>
<path d="M66.9618 54.8494L37.6661 27.3707C37.1619 26.8874 36.7831 26.2971 36.5602 25.6476C36.3373 24.9981 36.2765 24.3074 36.3828 23.6313C36.4891 22.9551 36.7594 22.3123 37.1721 21.7547C37.5847 21.1971 38.1281 20.7403 38.7584 20.421L75.1694 2.4537C76.3768 1.85778 77.7492 1.64182 79.0918 1.83646C80.4343 2.03109 81.6789 2.62643 82.6488 3.538L111.945 31.0093C112.45 31.4927 112.83 32.0834 113.054 32.7337C113.278 33.384 113.339 34.0757 113.233 34.7529C113.127 35.4301 112.856 36.0738 112.442 36.632C112.029 37.1903 111.484 37.6473 110.852 37.9663L74.4412 55.9337C73.233 56.5263 71.8614 56.7404 70.5196 56.5459C69.1779 56.3514 67.9335 55.758 66.9618 54.8494Z" fill="#5B6CB1"/>
<path d="M97.7518 44.4433L74.4412 55.934C73.2329 56.5266 71.8614 56.7407 70.5196 56.5462C69.1779 56.3517 67.9335 55.7583 66.9618 54.8497L48.2328 37.2971" stroke="#070000" stroke-width="2" stroke-linecap="round" stroke-linejoin="round"/>
<path d="M78.5753 29.7358C78.2795 31.5697 75.9507 32.7559 73.364 32.3847C70.7773 32.0136 68.9037 30.2016 69.1995 28.375C69.4953 26.5484 71.8165 25.355 74.4108 25.7261C77.0051 26.0973 78.8636 27.8947 78.5753 29.7358Z" fill="#070000"/>
<path d="M74.2894 28.8843L91.1902 47.0117L89.4758 57.9129" stroke="#070000" stroke-width="2" stroke-linecap="round" stroke-linejoin="round"/>
<path d="M79.7083 28.6264C79.9971 26.7904 78.1323 24.9982 75.5432 24.6234C72.9541 24.2487 70.6212 25.4333 70.3324 27.2693C70.0437 29.1054 71.9084 30.8975 74.4975 31.2723C77.0866 31.6471 79.4196 30.4625 79.7083 28.6264Z" fill="#EF7F7E"/>
<path d="M75.0177 27.9458L92.7074 46.9247L90.2345 58.0224" stroke="#EF7F7E" stroke-width="2" stroke-linecap="round" stroke-linejoin="round"/>
<path d="M92.3129 64.9499L86.4948 64.1057L87.3443 58.7061C87.4622 57.9674 87.8805 57.3037 88.5076 56.8604C89.1346 56.4171 89.9193 56.2303 90.6896 56.341C91.0749 56.3918 91.4459 56.5154 91.7811 56.7046C92.1164 56.8938 92.4092 57.1448 92.6427 57.4433C92.8761 57.7417 93.0456 58.0815 93.1414 58.4432C93.2371 58.8048 93.2572 59.1811 93.2004 59.5502L92.3129 64.9499Z" fill="#EF7F7E"/>
<path d="M253.53 25.4715L248.524 13.2823L264.954 10.5024C265.776 10.3263 266.637 10.4359 267.383 10.8117C268.129 11.1875 268.712 11.8051 269.028 12.5545C269.337 13.311 269.353 14.1484 269.075 14.9157C268.797 15.683 268.242 16.3297 267.511 16.7389L253.53 25.4715Z" fill="#EF7F7E"/>
<path d="M258.173 11.6516L248.524 13.2817L253.53 25.471L263.255 19.4164C263.112 17.8278 262.576 16.2949 261.692 14.9446C260.808 13.5943 259.602 12.4655 258.173 11.6516Z" fill="#070000"/>
<path d="M260.577 15.7708C258.946 11.7975 255.427 9.4033 252.719 10.4294L208.722 27.0577L214.631 41.4447L258.628 24.8164C261.336 23.7976 262.208 19.7442 260.577 15.7708Z" fill="#F8B193"/>
<path d="M249.753 19.8316C248.122 15.8583 244.602 13.4641 241.894 14.4902L220.958 22.4005C223.666 21.3744 227.185 23.7686 228.816 27.7419C230.447 31.7152 229.575 35.7468 226.867 36.7874L247.803 28.8772C250.511 27.8875 251.384 23.8341 249.753 19.8316Z" fill="#EF7F7E"/>
<path d="M247.803 28.9063C250.511 27.8875 251.383 23.8123 249.753 19.8608C248.122 15.9093 244.602 13.4933 241.879 14.5193" stroke="#070000" stroke-width="2" stroke-linecap="round" stroke-linejoin="round"/>
<path d="M220.958 22.4294C223.666 21.4033 227.185 23.7975 228.816 27.7708C230.447 31.7442 229.575 35.7757 226.867 36.8164" stroke="#070000" stroke-width="2" stroke-linecap="round" stroke-linejoin="round"/>
<path d="M214.616 41.4448C211.908 42.4709 208.388 40.0767 206.757 36.1033C205.126 32.13 205.999 28.0984 208.707 27.0578C211.415 26.0172 214.927 28.4259 216.558 32.3992C218.189 36.3726 217.316 40.426 214.616 41.4448Z" fill="#EF7F7E"/>
<path d="M240.559 29.4666C236.956 30.8274 233.36 30.2889 232.526 28.2658C231.691 26.2428 233.944 23.492 237.547 22.1312C241.15 20.7703 244.754 21.3089 245.588 23.3319C246.422 25.355 244.154 28.1057 240.559 29.4666Z" fill="#FBFFFF"/>
</svg>
