<svg width="636" height="586" viewBox="0 0 636 586" fill="none" xmlns="http://www.w3.org/2000/svg">
<g opacity="0.3">
<path d="M357.26 357.585C423.03 291.815 423.03 185.181 357.26 119.412C291.49 53.6418 184.856 53.6418 119.087 119.412C53.3169 185.181 53.3169 291.815 119.087 357.585C184.856 423.355 291.49 423.355 357.26 357.585Z" stroke="#7BC9EF" stroke-width="2" stroke-linecap="round" stroke-linejoin="round" stroke-dasharray="11.82 11.82"/>
</g>
<path opacity="0.3" d="M238 383C317.529 383 382 318.305 382 238.5C382 158.695 317.529 94 238 94C158.471 94 94 158.695 94 238.5C94 318.305 158.471 383 238 383Z" fill="#7BC9EF"/>
<path d="M529.721 310.313C530.911 308.622 532.715 307.474 534.741 307.117C536.767 306.761 538.85 307.225 540.538 308.41L544.698 311.369C546.387 312.57 547.533 314.396 547.886 316.448C548.238 318.499 547.768 320.608 546.579 322.31L510.135 374.458L495.433 381.568L492.346 385.978C492.166 386.237 491.937 386.458 491.672 386.627C491.407 386.796 491.111 386.911 490.801 386.965C490.492 387.019 490.175 387.01 489.869 386.94C489.563 386.87 489.274 386.74 489.018 386.556C488.76 386.376 488.54 386.145 488.371 385.878C488.202 385.611 488.088 385.313 488.035 385.001C487.981 384.688 487.99 384.369 488.06 384.06C488.13 383.752 488.261 383.46 488.444 383.203L491.522 378.793L493.186 362.444L529.721 310.313Z" fill="#FDCE64"/>
<path d="M540.628 308.468L544.738 311.499C546.406 312.729 547.539 314.6 547.887 316.701C548.235 318.803 547.771 320.962 546.596 322.706L543.703 327L527 314.711L529.893 310.417C530.475 309.553 531.215 308.816 532.07 308.25C532.924 307.684 533.877 307.3 534.874 307.119C535.871 306.938 536.892 306.964 537.88 307.195C538.867 307.427 539.801 307.859 540.628 308.468Z" fill="#EF7F7E"/>
<path d="M539 311.431C538.066 311.071 536.911 310.928 535.787 311.034C534.662 311.141 533.66 311.488 533 312" stroke="#FBFFFF" stroke-width="2" stroke-linecap="round" stroke-linejoin="round"/>
<path d="M493.079 385.886C492.736 386.456 492.213 386.843 491.627 386.962C491.04 387.08 490.437 386.921 489.95 386.518C489.464 386.116 489.134 385.504 489.033 384.816C488.931 384.128 489.068 383.422 489.411 382.852L492.324 378L496 381.035L493.079 385.886Z" fill="#070000"/>
<path d="M511 373.93L508.551 368.203L501.211 369.57L499.79 362.984L493.718 362L492 378.257L495.972 381L511 373.93Z" fill="#F8B193"/>
<path d="M526.007 313.811L545.399 327.466L540.425 334.53L521.033 320.876L526.007 313.811Z" fill="#7BC9EF"/>
<path d="M543 331L524 317" stroke="#070000" stroke-width="2" stroke-linecap="round" stroke-linejoin="round"/>
<path d="M539 333.514L522 322L536.448 337L539 333.514Z" fill="#070000"/>
<path d="M508 368L534 332" stroke="#070000" stroke-width="2" stroke-linecap="round" stroke-linejoin="round"/>
<path d="M500 363L526 325" stroke="#070000" stroke-width="2" stroke-linecap="round" stroke-linejoin="round"/>
<path d="M299.725 176.847L302.635 162.296C302.854 161.073 302.642 159.811 302.037 158.727C301.432 157.643 300.471 156.804 299.319 156.354C298.166 155.91 296.896 155.883 295.725 156.277C294.555 156.67 293.557 157.461 292.902 158.513L285.25 171.18L281.933 169.888L256 236.741L277.092 245L303 178.147L299.725 176.847Z" fill="#EF7F7E"/>
<path d="M298 160C298.68 160.153 299.246 160.438 299.602 160.806C299.957 161.174 300.08 161.601 299.949 162.016L298.605 166" stroke="#FBFFFF" stroke-width="2" stroke-linecap="round" stroke-linejoin="round"/>
<path d="M300.596 185.202L279.442 176.963L259.112 229.159L280.267 237.399L300.596 185.202Z" fill="#F8B193"/>
<path d="M279 177L301 185" stroke="#070000" stroke-width="2" stroke-miterlimit="10"/>
<path d="M298 191L277 183" stroke="#070000" stroke-width="2" stroke-miterlimit="10"/>
<path d="M261 224L282 232" stroke="#070000" stroke-width="2" stroke-miterlimit="10"/>
<path d="M280 238L259 230" stroke="#070000" stroke-width="2" stroke-miterlimit="10"/>
<path d="M285 171L300 177" stroke="#070000" stroke-width="2" stroke-linecap="round" stroke-linejoin="round"/>
<path d="M285.991 208.796C288.346 202.749 287.619 196.82 284.366 195.554C281.114 194.287 276.568 198.162 274.212 204.209C271.857 210.256 272.585 216.185 275.837 217.452C279.09 218.719 283.635 214.844 285.991 208.796Z" fill="#FBFFFF"/>
<path d="M263 239.28C263 239.28 273.241 234.398 286 223L277.525 245L263 239.28Z" fill="#070000"/>
<path d="M318.711 216.482L327.111 204.301C327.795 203.267 328.099 202.027 327.972 200.793C327.845 199.559 327.294 198.408 326.414 197.536C325.535 196.666 324.381 196.13 323.151 196.021C321.921 195.911 320.691 196.235 319.673 196.937L307.665 205.541L305.178 203.044L255 254.058L271.121 270L321.24 218.987L318.711 216.482Z" fill="#5B6CB1"/>
<path d="M324.372 201C324.721 201.315 324.939 201.735 324.989 202.185C325.039 202.635 324.917 203.087 324.645 203.462L322 207" stroke="#FBFFFF" stroke-width="2" stroke-linecap="round" stroke-linejoin="round"/>
<path d="M316.046 224.16L299.879 208.222L260.554 248.114L276.722 264.052L316.046 224.16Z" fill="#7BC9EF"/>
<path d="M300 208L316 224" stroke="#070000" stroke-width="2" stroke-miterlimit="10"/>
<path d="M312 229L295 213" stroke="#070000" stroke-width="2" stroke-miterlimit="10"/>
<path d="M265 244L281 260" stroke="#070000" stroke-width="2" stroke-miterlimit="10"/>
<path d="M276 264L260 248" stroke="#070000" stroke-width="2" stroke-miterlimit="10"/>
<path d="M308 205L319 216" stroke="#070000" stroke-width="2" stroke-linecap="round" stroke-linejoin="round"/>
<path d="M293.049 239.954C288.452 244.582 282.68 246.35 280.167 243.89C277.655 241.43 279.327 235.684 283.948 231.048C288.57 226.411 294.326 224.651 296.838 227.111C299.351 229.572 297.653 235.317 293.049 239.954Z" fill="#FBFFFF"/>
<path d="M383.054 239.314C383.054 239.314 386.372 240.896 386.751 249.387C386.987 254.764 393 255.501 393 255.501C393 255.501 384.831 261.085 374.607 255.559C364.383 250.034 369.074 236 369.074 236L383.054 239.314Z" fill="#070000"/>
<path d="M374.454 246.001C366.707 245.935 361.5 248.475 358.043 251.575C356.016 251.096 353.892 251.213 351.931 251.912C349.971 252.61 348.259 253.86 347.005 255.508C342.34 255.31 336.7 256.638 330.778 261.576C314.833 274.884 334.26 312.779 360.184 313.966C360.184 313.966 366.015 314.593 369.564 310.446C370.346 309.529 371.359 308.832 372.499 308.425C373.64 308.019 374.869 307.916 376.062 308.129C381.452 309.102 385.559 304.921 385.559 304.921C404.802 287.639 395.305 246.191 374.454 246.001Z" fill="#EF7F7E"/>
<path d="M332.033 277C331.84 273.431 332.456 269.504 335 267" stroke="#FBFFFF" stroke-width="2" stroke-linecap="round" stroke-linejoin="round"/>
<path d="M334 283C333.586 282.358 333.252 281.688 333 281" stroke="#FBFFFF" stroke-width="2" stroke-linecap="round" stroke-linejoin="round"/>
<path d="M349 263C349.226 261.781 349.774 260.637 350.591 259.677C351.408 258.717 352.468 257.973 353.67 257.515C354.872 257.057 356.176 256.901 357.459 257.061C358.742 257.221 359.961 257.692 361 258.43" stroke="#070000" stroke-width="2" stroke-linecap="round" stroke-linejoin="round"/>
<path d="M344 259.606C344.995 259.035 346.062 258.864 347.108 259.107C348.154 259.35 349.147 260 350 261" stroke="#070000" stroke-width="2" stroke-linecap="round" stroke-linejoin="round"/>
<path d="M363 252C362.023 252.479 361.147 253.276 360.449 254.322C359.752 255.368 359.254 256.631 359 258" stroke="#070000" stroke-width="2" stroke-linecap="round" stroke-linejoin="round"/>
<path d="M353.003 255C353.003 255 352.53 236.264 364.545 234.247C374.38 232.603 384 239.718 384 239.718C384 239.718 378.266 237.134 353.003 255Z" fill="#46B17B"/>
<path d="M353 255C353 255 364.452 236.928 374 236" stroke="#070000" stroke-width="2" stroke-linecap="round" stroke-linejoin="round"/>
<path d="M354 258C354 258 351.319 248.206 342 238" stroke="#070000" stroke-width="2" stroke-linecap="round" stroke-linejoin="round"/>
<path d="M322.06 417.192L192.55 347.231C191.316 346.564 190.32 345.527 189.699 344.265C189.078 343.002 188.864 341.577 189.085 340.186C189.306 338.796 189.952 337.509 190.933 336.504C191.914 335.499 193.182 334.827 194.561 334.579L314.9 313.104C315.814 312.941 316.752 312.97 317.655 313.188C318.558 313.407 319.406 313.81 320.146 314.374C320.887 314.937 321.504 315.648 321.958 316.462C322.413 317.276 322.696 318.176 322.789 319.105L331.969 410.566C332.086 411.789 331.871 413.021 331.346 414.13C330.821 415.24 330.007 416.185 328.989 416.865C327.972 417.545 326.79 417.935 325.57 417.993C324.349 418.05 323.136 417.773 322.06 417.192ZM243.17 351.435L304.817 384.729C305.248 384.963 305.735 385.075 306.225 385.051C306.715 385.028 307.189 384.871 307.596 384.597C308.004 384.323 308.33 383.943 308.539 383.497C308.748 383.051 308.832 382.556 308.782 382.066L304.411 338.533C304.374 338.162 304.26 337.802 304.078 337.477C303.896 337.152 303.65 336.868 303.354 336.643C303.058 336.418 302.719 336.257 302.358 336.17C301.997 336.082 301.623 336.071 301.257 336.136L243.973 346.399C243.419 346.496 242.909 346.765 242.515 347.167C242.12 347.57 241.86 348.087 241.772 348.645C241.683 349.203 241.771 349.776 242.021 350.282C242.272 350.788 242.674 351.203 243.17 351.468V351.435Z" fill="#FDCE64"/>
<path d="M222 348L216 360" stroke="#070000" stroke-width="2" stroke-linecap="round" stroke-linejoin="round"/>
<path d="M233 357L228 366" stroke="#070000" stroke-width="2" stroke-linecap="round" stroke-linejoin="round"/>
<path d="M246 361L240 373" stroke="#070000" stroke-width="2" stroke-linecap="round" stroke-linejoin="round"/>
<path d="M256 370L252 379" stroke="#070000" stroke-width="2" stroke-linecap="round" stroke-linejoin="round"/>
<path d="M270 374L264 385" stroke="#070000" stroke-width="2" stroke-linecap="round" stroke-linejoin="round"/>
<path d="M280 383L275 392" stroke="#070000" stroke-width="2" stroke-linecap="round" stroke-linejoin="round"/>
<path d="M293 387L287 398" stroke="#070000" stroke-width="2" stroke-linecap="round" stroke-linejoin="round"/>
<path d="M304 396L299 405" stroke="#070000" stroke-width="2" stroke-linecap="round" stroke-linejoin="round"/>
<path d="M317 400L311 411" stroke="#070000" stroke-width="2" stroke-linecap="round" stroke-linejoin="round"/>
<path d="M470.774 135.948L392.304 207.451C390.946 208.688 390.849 210.792 392.086 212.15L404.856 226.165C406.093 227.522 408.197 227.62 409.555 226.383L488.025 154.881C489.383 153.643 489.481 151.539 488.243 150.181L475.473 136.167C474.236 134.809 472.132 134.711 470.774 135.948Z" fill="#7BC9EF"/>
<path d="M398 219L482 143" stroke="#070000" stroke-width="2" stroke-linecap="round" stroke-linejoin="round"/>
<path d="M466 149L462 144" stroke="#070000" stroke-width="2" stroke-linecap="round" stroke-linejoin="round"/>
<path d="M458 160L452 153" stroke="#070000" stroke-width="2" stroke-linecap="round" stroke-linejoin="round"/>
<path d="M446 168L441 163" stroke="#070000" stroke-width="2" stroke-linecap="round" stroke-linejoin="round"/>
<path d="M438 179L431 172" stroke="#070000" stroke-width="2" stroke-linecap="round" stroke-linejoin="round"/>
<path d="M426 186L421 181" stroke="#070000" stroke-width="2" stroke-linecap="round" stroke-linejoin="round"/>
<path d="M418 197L411 190" stroke="#070000" stroke-width="2" stroke-linecap="round" stroke-linejoin="round"/>
<path d="M406 204L401 199" stroke="#070000" stroke-width="2" stroke-linecap="round" stroke-linejoin="round"/>
<path d="M547.762 229.429L564.52 239.225L578 196L511 207.954L528.909 218.417L531.796 240L547.762 229.429Z" fill="#7BC9EF"/>
<path d="M529 218.417L578 196L542.996 226.597L531.881 240L529 218.417Z" fill="#5B6CB1"/>
<path d="M548 229.747L543.16 227L532 240L548 229.747Z" fill="#070000"/>
<path d="M517.585 524.929C515.679 521.011 512.736 517.66 509.059 515.221C505.383 512.783 501.107 511.344 496.671 511.054C492.235 510.765 487.8 511.634 483.823 513.573C479.847 515.512 476.472 518.451 474.047 522.086C471.622 525.721 470.234 529.921 470.027 534.254C469.82 538.586 470.801 542.894 472.869 546.733C474.937 550.573 478.016 553.805 481.791 556.097C485.566 558.388 489.898 559.656 494.342 559.771L496.885 565L517.309 555.547L514.767 550.318C517.596 546.754 519.357 542.494 519.855 538.012C520.352 533.531 519.567 529.002 517.585 524.929Z" fill="#FDCE64"/>
<path d="M502 519C503.052 519.272 504.057 519.607 505 520" stroke="#FBFFFF" stroke-width="2" stroke-linecap="round" stroke-linejoin="round"/>
<path d="M487 520C490.424 518.117 494.276 517.544 498 518.364" stroke="#FBFFFF" stroke-width="2" stroke-linecap="round" stroke-linejoin="round"/>
<path d="M519.208 554.611L494.035 566.558L499.632 578.35L524.804 566.403L519.208 554.611Z" fill="#7BC9EF"/>
<path d="M497 573L522 561" stroke="#070000" stroke-width="2" stroke-linecap="round" stroke-linejoin="round"/>
<path d="M502.211 577.135L522.565 567.475L523.481 569.405C524.354 571.244 524.46 573.355 523.777 575.272C523.094 577.19 521.676 578.758 519.837 579.631L513.353 582.709C511.514 583.581 509.403 583.688 507.485 583.005C505.567 582.321 504 580.904 503.127 579.065L502.211 577.135Z" fill="#5B6CB1"/>
<path d="M509 574L522.474 568L524 571.017C524 571.017 517.769 570.858 509 574Z" fill="#070000"/>
<path d="M511 558.099L504.374 543.957C504.143 543.462 504.061 542.908 504.139 542.367C504.218 541.825 504.454 541.319 504.816 540.912C505.179 540.506 505.652 540.218 506.176 540.084C506.7 539.95 507.252 539.977 507.761 540.161C508.27 540.344 508.714 540.677 509.037 541.116C509.36 541.556 509.547 542.082 509.574 542.629C509.601 543.176 509.468 543.719 509.191 544.189C508.914 544.66 508.505 545.036 508.017 545.271L494.911 551.597C494.423 551.833 493.877 551.917 493.342 551.839C492.807 551.76 492.306 551.523 491.905 551.156C491.503 550.789 491.217 550.31 491.084 549.779C490.951 549.248 490.976 548.689 491.157 548.173C491.338 547.657 491.665 547.206 492.099 546.878C492.532 546.551 493.051 546.361 493.591 546.332C494.131 546.304 494.668 546.438 495.132 546.718C495.597 546.999 495.969 547.412 496.201 547.907L502.827 562" stroke="#070000" stroke-width="2" stroke-linecap="round" stroke-linejoin="round"/>
<path d="M231.181 166.947L231.825 150L221.943 163.99L208.022 159.324L215.846 171.957L204 184.011L222.07 181.037L233.671 193L232.977 176.505L246 172.476L231.181 166.947Z" fill="#FDCE64"/>
<path d="M589 402.854L580.64 407L576.193 397.374C575.999 396.954 575.949 396.478 576.053 396.026C576.156 395.573 576.406 395.171 576.76 394.886L581.111 391.42C581.341 391.236 581.608 391.108 581.892 391.045C582.176 390.982 582.47 390.985 582.752 391.055C583.035 391.125 583.298 391.26 583.524 391.449C583.75 391.639 583.932 391.878 584.058 392.15L589 402.854Z" fill="#46B17B"/>
<path d="M593.362 407.49L581.602 413.194L571 425.864L600.042 481.395C600.85 482.942 602.218 484.111 603.859 484.659C605.501 485.207 607.289 485.091 608.847 484.334L631.209 473.466C632.766 472.709 633.973 471.371 634.578 469.734C635.182 468.096 635.136 466.286 634.451 464.681L609.766 407L593.362 407.49Z" fill="#C1D57E"/>
<path d="M571 425L610 406.278L596.551 406.649C595.641 406.676 594.743 406.438 593.965 405.966C593.187 405.494 592.563 404.806 592.168 403.988L588.808 397L576.985 402.669L580.345 409.657C580.741 410.475 580.89 411.39 580.774 412.291C580.659 413.193 580.283 414.041 579.693 414.733L571 425Z" fill="#070000"/>
<path d="M600 481L635 464" stroke="#070000" stroke-width="2" stroke-linecap="round" stroke-linejoin="round"/>
<path d="M613.654 443.991C613.902 438.315 609.502 433.513 603.826 433.265C598.15 433.017 593.348 437.418 593.1 443.093C592.852 448.769 597.253 453.571 602.928 453.819C608.604 454.067 613.406 449.667 613.654 443.991Z" fill="#FBFFFF"/>
<path d="M587 401L590 408" stroke="#FBFFFF" stroke-width="2" stroke-linecap="round" stroke-linejoin="round"/>
<path d="M581 420L610 407" stroke="#FBFFFF" stroke-width="2" stroke-linecap="round" stroke-linejoin="round"/>
</svg>
