<svg width="390" height="399" viewBox="0 0 390 399" fill="none" xmlns="http://www.w3.org/2000/svg">
  <path d="M35.26 300.942C22.4181 300.942 9.60584 302.22 -3 304.757L-3 399H205.151C187.267 369.011 162.267 344.257 132.53 327.094C102.793 309.93 69.3079 300.928 35.26 300.942Z" fill="#597FD3" />
  <path d="M-3 304.757V375.069C3.21005 376.972 12.4701 378.524 21.4844 375.192C37.073 369.43 30.4563 360.985 42.851 356.776C55.2457 352.567 64.5227 350.769 64.1499 337.045C63.7771 323.322 51.9077 318.104 67.4879 315.543C77.6544 313.877 84.4829 311.886 88.1852 308.3C58.4571 299.881 27.2542 298.669 -3 304.757Z" fill="#46B17B" />
  <path d="M152.633 377.138C143.906 370.263 139.84 375.577 130.935 377.138C122.031 378.699 115.355 368.281 99.4023 372.122C90.3287 374.306 79.2218 387.775 71.3258 399H200.669C192.138 390.643 182.878 391.774 177.092 393.002C169.077 394.685 161.359 384.022 152.633 377.138Z" fill="#46B17B" />
  <path opacity="0.5" d="M25.856 23.3087C20.5101 23.1947 11.0891 32.2182 8.23399 36.3573C4.50626 41.7591 4.31988 46.4156 4.84515 52.4488C5.62458 60.8585 6.53957 63.3227 15.4099 65.7079C22.4163 67.5933 26.7116 73.4775 33.6757 75.0472C43.461 77.257 53.5089 72.1358 62.8536 70.2679C73.2913 68.1896 75.6211 75.0647 84.5846 77.2132C93.2685 79.2827 103.427 74.6701 112.585 75.5908C121.904 76.5291 128.817 82.0012 137.628 82.6939C145.423 83.299 151.243 82.3695 156.792 88.6044C163.223 95.8302 155.886 100.539 149.227 104.529C132.554 114.544 115.609 126.365 97.3775 133.222C88.7868 136.449 79.7131 136.73 71.1139 139.422C62.5148 142.114 55.915 149.507 48.3494 154.242C40.1315 159.381 29.7955 160.644 22.035 166.151C13.8679 171.947 9.25064 182.558 7.5308 192.292C5.54833 203.543 6.86998 211.821 14.3085 220.353C21.6284 228.745 20.5185 236.138 23.4414 246.661C25.8051 255.185 30.6766 263.542 38.598 267.646C48.7645 272.907 54.7628 266.681 64.5142 266.401C74.2656 266.12 81.4584 279.142 101.969 276.231L133.943 226.246L124.725 218.863C118.795 211.067 130.122 200.403 129.809 191.108C129.419 178.735 122.794 179.12 115.203 172.693C97.818 157.846 121.828 140.308 133.206 133.398C149.252 123.673 169.365 125.453 184.937 113.693C190.681 109.361 197.848 101.285 197.891 93.4187C197.95 81.8608 189.266 80.9751 180.87 80.7822C175.541 80.6595 172.068 79.9053 168.103 76.2047C166.95 75.1261 166.018 73.267 164.663 72.3375C161.969 70.4959 160.012 71.9165 157.453 70.6275C154.488 69.1367 154.276 65.9359 152.37 63.463C148.879 58.9556 146.05 59.7361 141.077 58.9381C131.978 57.4824 130.41 47.4591 120.295 46.5647C109.205 45.5825 101.588 52.0893 91.5571 54.9481C80.6874 58.0436 68.7248 51.2913 57.3976 52.7733C47.2311 54.0975 36.7003 62.9544 26.771 57.649C18.858 53.4222 9.12356 53.4836 11.5212 41.6013C12.6215 36.9094 15.1022 32.687 18.6208 29.5173C20.7219 27.6232 25.0935 26.3078 25.856 23.3087Z" fill="#FBFFFF" />
  <path d="M98.123 222.151L100.783 222.896L98.123 223.633C97.1562 223.904 96.2835 224.454 95.6058 225.217C94.9281 225.981 94.4731 226.927 94.2936 227.947L93.2939 233.753L92.2942 227.947C92.1232 226.927 91.6756 225.978 91.0036 225.211C90.3317 224.444 89.4629 223.891 88.4987 223.615L85.83 222.879L88.4987 222.133C89.4654 221.863 90.3379 221.314 91.0145 220.55C91.691 219.786 92.1437 218.839 92.3197 217.819L93.3194 212.014L94.3191 217.819C94.4937 218.839 94.9435 219.787 95.6166 220.554C96.2898 221.32 97.1587 221.874 98.123 222.151Z" fill="#FBFFFF" />
  <path d="M134.307 107.326L136.968 108.072L134.307 108.817C133.339 109.086 132.465 109.634 131.787 110.398C131.109 111.162 130.655 112.11 130.478 113.132L129.478 118.928L128.479 113.123C128.304 112.102 127.851 111.154 127.175 110.39C126.498 109.626 125.625 109.078 124.658 108.808L121.989 108.063L124.658 107.318C125.626 107.051 126.5 106.503 127.177 105.738C127.854 104.974 128.306 104.025 128.479 103.003L129.478 97.2068L130.478 103.003C130.652 104.027 131.105 104.977 131.783 105.743C132.462 106.509 133.338 107.058 134.307 107.326Z" fill="#FBFFFF" />
  <path d="M99.8259 66.962L102.486 67.7074L99.8259 68.4528C98.8577 68.7214 97.9834 69.2697 97.3053 70.0338C96.6271 70.7978 96.1732 71.746 95.9966 72.7673L94.9968 78.5725L93.9971 72.7848C93.8221 71.7642 93.3698 70.8163 92.6931 70.0522C92.0164 69.2881 91.1434 68.7394 90.1762 68.4703L87.5075 67.725L90.1762 66.9796C91.1443 66.7125 92.0184 66.1644 92.6954 65.3999C93.3724 64.6355 93.8241 63.6866 93.9971 62.6651L94.9968 56.8687L95.9966 62.6651C96.1751 63.6836 96.63 64.6285 97.3081 65.3894C97.9862 66.1503 98.8595 66.6958 99.8259 66.962Z" fill="#FBFFFF" />
  <path d="M214.979 80.0102L217.063 80.589L214.979 81.1677C214.224 81.3782 213.543 81.8066 213.015 82.4029C212.487 82.9992 212.134 83.7388 211.997 84.5351L211.217 89.0688L210.438 84.5351C210.297 83.7389 209.942 83.0001 209.412 82.4042C208.883 81.8084 208.202 81.3797 207.447 81.1677L205.414 80.589L207.489 80.0102C208.244 79.7983 208.926 79.3696 209.455 78.7737C209.984 78.1778 210.339 77.439 210.48 76.6428L211.26 72.1091L212.039 76.6428C212.173 77.4338 212.52 78.1695 213.04 78.7653C213.56 79.361 214.232 79.7926 214.979 80.0102Z" fill="#FBFFFF" />
  <path d="M21.3573 188.539L23.4415 189.117L21.3573 189.696C20.6028 189.907 19.9216 190.335 19.3936 190.931C18.8655 191.528 18.5123 192.267 18.3752 193.063L17.5957 197.588L16.8163 193.063C16.6757 192.267 16.3202 191.528 15.7909 190.933C15.2617 190.337 14.5804 189.908 13.8256 189.696L11.75 189.117L13.8256 188.539C14.5815 188.326 15.2636 187.896 15.793 187.298C16.3223 186.701 16.6771 185.96 16.8163 185.162L17.5957 180.637L18.3752 185.162C18.5108 185.96 18.8633 186.702 19.3915 187.3C19.9197 187.898 20.6016 188.327 21.3573 188.539Z" fill="#FBFFFF" />
  <path d="M115.313 41.312C115.311 41.6741 115.206 42.0276 115.01 42.3278C114.815 42.6281 114.538 42.8616 114.214 42.999C113.89 43.1364 113.535 43.1714 113.192 43.0997C112.849 43.028 112.534 42.8528 112.287 42.5961C112.04 42.3394 111.873 42.0128 111.805 41.6576C111.737 41.3023 111.773 40.9342 111.907 40.5998C112.041 40.2655 112.268 39.9797 112.559 39.7787C112.85 39.5777 113.192 39.4705 113.542 39.4705C114.013 39.4728 114.463 39.6678 114.795 40.0129C115.127 40.358 115.313 40.8251 115.313 41.312Z" fill="#FBFFFF" />
  <path d="M106.883 56.8511C106.885 57.2161 106.782 57.5733 106.587 57.8775C106.392 58.1817 106.114 58.4191 105.789 58.5595C105.463 58.7 105.105 58.7372 104.759 58.6664C104.413 58.5957 104.095 58.4201 103.846 58.162C103.597 57.9039 103.427 57.575 103.359 57.217C103.29 56.8589 103.326 56.4879 103.462 56.1511C103.598 55.8142 103.827 55.5267 104.121 55.325C104.415 55.1233 104.76 55.0166 105.113 55.0183C105.581 55.0206 106.031 55.2145 106.362 55.5577C106.694 55.9009 106.881 56.3657 106.883 56.8511Z" fill="#FDCE64" />
  <path d="M69.0044 55.7107C69.6922 55.7107 70.2498 55.1336 70.2498 54.4216C70.2498 53.7097 69.6922 53.1326 69.0044 53.1326C68.3166 53.1326 67.759 53.7097 67.759 54.4216C67.759 55.1336 68.3166 55.7107 69.0044 55.7107Z" fill="#FDCE64" />
  <path d="M49.0017 56.8511C49.0017 57.1078 48.9282 57.3587 48.7904 57.5721C48.6526 57.7856 48.4568 57.9519 48.2277 58.0502C47.9986 58.1484 47.7465 58.1741 47.5032 58.124C47.26 58.0739 47.0366 57.9503 46.8612 57.7688C46.6859 57.5873 46.5665 57.3561 46.5181 57.1043C46.4697 56.8525 46.4945 56.5916 46.5894 56.3544C46.6843 56.1173 46.845 55.9146 47.0512 55.772C47.2574 55.6294 47.4999 55.5533 47.7479 55.5533C47.9128 55.5521 48.0764 55.5849 48.229 55.6497C48.3817 55.7145 48.5203 55.81 48.637 55.9308C48.7537 56.0515 48.846 56.1951 48.9086 56.3531C48.9712 56.5111 49.0029 56.6803 49.0017 56.8511Z" fill="#FBFFFF" />
  <path d="M81.9244 46.4593C82.8087 46.4593 83.5256 45.7173 83.5256 44.8019C83.5256 43.8866 82.8087 43.1445 81.9244 43.1445C81.0401 43.1445 80.3232 43.8866 80.3232 44.8019C80.3232 45.7173 81.0401 46.4593 81.9244 46.4593Z" fill="#FBFFFF" />
  <path d="M143.466 46.4595H139.374V50.695H143.466V46.4595Z" fill="#FDCE64" />
  <path d="M83.2883 70.7852H78.5863V75.6521H83.2883V70.7852Z" fill="#7BC9EF" />
  <path d="M161.198 71.0835H156.496V75.9504H161.198V71.0835Z" fill="#EF7F7E" />
  <path d="M43.5118 187.934C44.4383 187.934 45.1893 187.156 45.1893 186.197C45.1893 185.238 44.4383 184.461 43.5118 184.461C42.5854 184.461 41.8344 185.238 41.8344 186.197C41.8344 187.156 42.5854 187.934 43.5118 187.934Z" fill="#FDCE64" />
  <path d="M126.361 193.589C126.361 193.926 126.264 194.255 126.084 194.535C125.903 194.814 125.646 195.032 125.346 195.161C125.046 195.29 124.715 195.324 124.396 195.258C124.077 195.192 123.785 195.03 123.555 194.792C123.325 194.554 123.168 194.251 123.105 193.921C123.041 193.591 123.074 193.249 123.198 192.938C123.323 192.628 123.534 192.362 123.804 192.175C124.074 191.988 124.392 191.888 124.717 191.888C124.933 191.887 125.147 191.93 125.347 192.015C125.547 192.1 125.729 192.226 125.882 192.384C126.034 192.542 126.155 192.73 126.238 192.937C126.32 193.144 126.362 193.366 126.361 193.589Z" fill="#FDCE64" />
  <path d="M75.028 228.307C75.028 228.902 74.8576 229.483 74.5383 229.978C74.219 230.473 73.7652 230.858 73.2342 231.086C72.7032 231.313 72.1189 231.373 71.5552 231.257C70.9915 231.141 70.4737 230.854 70.0673 230.434C69.6609 230.013 69.3842 229.477 69.272 228.894C69.1599 228.31 69.2174 227.705 69.4374 227.156C69.6573 226.606 70.0298 226.136 70.5077 225.806C70.9855 225.475 71.5474 225.299 72.1221 225.299C72.504 225.298 72.8824 225.375 73.2355 225.526C73.5886 225.676 73.9094 225.898 74.1794 226.177C74.4495 226.457 74.6635 226.789 74.8091 227.154C74.9548 227.52 75.0292 227.912 75.028 228.307Z" fill="#FDCE64" />
  <path d="M90.7015 245.872C90.7015 246.269 90.5877 246.657 90.3745 246.987C90.1613 247.318 89.8583 247.575 89.5038 247.727C89.1493 247.879 88.7592 247.919 88.3829 247.841C88.0065 247.764 87.6608 247.573 87.3895 247.292C87.1182 247.011 86.9334 246.653 86.8585 246.263C86.7837 245.874 86.8221 245.47 86.9689 245.103C87.1158 244.736 87.3645 244.423 87.6835 244.202C88.0026 243.981 88.3777 243.864 88.7614 243.864C89.2759 243.864 89.7694 244.075 90.1332 244.452C90.4971 244.828 90.7015 245.339 90.7015 245.872Z" fill="#FBFFFF" />
  <path d="M32.1508 171.701C32.1508 172.048 32.0514 172.387 31.8652 172.676C31.679 172.964 31.4144 173.189 31.1048 173.322C30.7952 173.455 30.4545 173.489 30.1258 173.422C29.7971 173.354 29.4952 173.187 29.2582 172.942C29.0212 172.696 28.8599 172.384 28.7945 172.044C28.7291 171.703 28.7627 171.351 28.8909 171.03C29.0192 170.71 29.2363 170.436 29.515 170.243C29.7936 170.05 30.1212 169.948 30.4564 169.948C30.6805 169.942 30.9034 169.983 31.1116 170.069C31.3198 170.155 31.5089 170.284 31.6675 170.448C31.826 170.612 31.9506 170.808 32.0337 171.023C32.1168 171.239 32.1566 171.469 32.1508 171.701Z" fill="#FBFFFF" />
  <path d="M123.675 126.347C124.606 126.347 125.361 125.566 125.361 124.602C125.361 123.638 124.606 122.857 123.675 122.857C122.744 122.857 121.989 123.638 121.989 124.602C121.989 125.566 122.744 126.347 123.675 126.347Z" fill="#FBFFFF" />
  <path d="M192.841 98.4345C192.841 98.8234 192.73 99.2036 192.521 99.5268C192.312 99.85 192.015 100.102 191.668 100.25C191.32 100.399 190.938 100.437 190.57 100.36C190.202 100.284 189.864 100.096 189.598 99.8204C189.333 99.5448 189.153 99.194 189.081 98.8124C189.009 98.4308 189.048 98.0355 189.193 97.6767C189.337 97.318 189.582 97.0118 189.895 96.797C190.208 96.5822 190.576 96.4685 190.952 96.4702C191.454 96.4726 191.934 96.6805 192.288 97.0487C192.642 97.4168 192.841 97.9151 192.841 98.4345Z" fill="#FDCE64" />
  <path d="M175.101 99.4167C175.101 99.611 175.045 99.8009 174.941 99.9624C174.836 100.124 174.688 100.25 174.515 100.324C174.341 100.398 174.151 100.418 173.967 100.38C173.782 100.342 173.613 100.249 173.481 100.111C173.348 99.9739 173.258 99.7989 173.221 99.6083C173.184 99.4178 173.203 99.2203 173.275 99.0409C173.347 98.8614 173.468 98.708 173.625 98.6001C173.781 98.4922 173.964 98.4346 174.152 98.4346C174.403 98.4346 174.645 98.538 174.823 98.7222C175.001 98.9064 175.101 99.1562 175.101 99.4167Z" fill="#FBFFFF" />
  <path d="M176.905 70.5046C176.905 70.7873 176.824 71.0637 176.672 71.2987C176.521 71.5338 176.305 71.717 176.053 71.8252C175.8 71.9334 175.523 71.9617 175.255 71.9065C174.987 71.8514 174.741 71.7152 174.548 71.5153C174.355 71.3154 174.223 71.0607 174.17 70.7835C174.116 70.5062 174.144 70.2188 174.248 69.9576C174.353 69.6964 174.53 69.4732 174.757 69.3161C174.984 69.1591 175.251 69.0752 175.524 69.0752C175.706 69.0741 175.886 69.1102 176.054 69.1817C176.222 69.2531 176.375 69.3583 176.503 69.4913C176.632 69.6242 176.733 69.7823 176.802 69.9562C176.871 70.1302 176.906 70.3166 176.905 70.5046Z" fill="#FBFFFF" />
  <path d="M124.082 140.308L135.739 117.429C135.739 117.429 137.713 113.044 142.305 113.921C146.897 114.798 159.088 120.226 159.088 120.226C159.088 120.226 162.282 123.041 161.63 126.049C161.088 128.539 151.328 147.455 147.956 153.953C147.343 155.153 146.358 156.105 145.16 156.657C143.962 157.209 142.619 157.328 141.348 156.996C140.975 156.902 140.609 156.779 140.255 156.627C137.222 155.356 129.241 150.243 125.742 147.946C124.982 147.461 124.359 146.778 123.935 145.966C123.512 145.153 123.302 144.239 123.328 143.316C123.365 142.268 123.622 141.242 124.082 140.308Z" fill="#5B6CB1" />
  <path d="M159.046 120.261L144.347 150.954C144.108 151.456 143.772 151.903 143.36 152.267C142.948 152.63 142.469 152.902 141.951 153.067C141.434 153.231 140.889 153.284 140.351 153.222C139.813 153.16 139.293 152.985 138.823 152.707L126.217 145.175C125.404 144.689 124.789 143.915 124.487 142.995C124.185 142.076 124.215 141.074 124.573 140.176" stroke="#FBFFFF" stroke-width="2" stroke-linecap="round" stroke-linejoin="round" />
  <path d="M138.137 118.709L133.918 127.154L148.363 133.073L153.234 124.339L138.137 118.709Z" fill="#C1D57E" />
  <path d="M135.095 132.845C135.068 133.271 134.919 133.678 134.667 134.016C134.416 134.354 134.073 134.608 133.682 134.744C133.292 134.88 132.871 134.894 132.473 134.783C132.075 134.672 131.718 134.441 131.447 134.12C131.175 133.798 131.002 133.401 130.949 132.978C130.896 132.555 130.965 132.125 131.148 131.743C131.331 131.361 131.619 131.043 131.977 130.83C132.334 130.617 132.744 130.519 133.155 130.548C133.429 130.565 133.696 130.639 133.942 130.764C134.188 130.89 134.407 131.064 134.588 131.278C134.768 131.491 134.906 131.74 134.993 132.009C135.08 132.278 135.115 132.562 135.095 132.845Z" fill="#FBFFFF" />
  <path d="M140.509 135.388C140.481 135.814 140.332 136.222 140.081 136.56C139.829 136.898 139.486 137.151 139.096 137.287C138.705 137.424 138.285 137.437 137.887 137.326C137.489 137.215 137.132 136.984 136.86 136.663C136.589 136.342 136.416 135.944 136.363 135.521C136.31 135.098 136.379 134.668 136.562 134.286C136.745 133.904 137.033 133.586 137.39 133.373C137.747 133.161 138.158 133.062 138.569 133.091C138.842 133.11 139.109 133.184 139.354 133.31C139.6 133.436 139.819 133.61 139.999 133.823C140.179 134.037 140.317 134.285 140.404 134.553C140.492 134.822 140.527 135.106 140.509 135.388Z" fill="#FBFFFF" />
  <path d="M146.058 138.221C146.03 138.646 145.881 139.054 145.63 139.392C145.378 139.73 145.036 139.983 144.645 140.119C144.255 140.256 143.834 140.269 143.436 140.158C143.038 140.047 142.681 139.816 142.41 139.495C142.138 139.174 141.965 138.777 141.912 138.354C141.859 137.931 141.928 137.501 142.111 137.118C142.294 136.736 142.582 136.418 142.939 136.206C143.297 135.993 143.707 135.895 144.118 135.923C144.391 135.942 144.658 136.016 144.903 136.142C145.149 136.268 145.368 136.442 145.548 136.656C145.728 136.869 145.866 137.117 145.953 137.386C146.041 137.654 146.077 137.938 146.058 138.221Z" fill="#FBFFFF" />
  <path d="M131.706 138.554C131.679 138.979 131.53 139.387 131.278 139.725C131.027 140.063 130.684 140.316 130.293 140.453C129.903 140.589 129.482 140.603 129.084 140.491C128.686 140.38 128.329 140.15 128.058 139.828C127.787 139.507 127.613 139.11 127.56 138.687C127.507 138.264 127.576 137.834 127.759 137.452C127.942 137.069 128.23 136.752 128.588 136.539C128.945 136.326 129.355 136.228 129.766 136.256C130.039 136.275 130.306 136.35 130.552 136.475C130.797 136.601 131.016 136.776 131.196 136.989C131.376 137.202 131.514 137.45 131.602 137.719C131.689 137.987 131.725 138.271 131.706 138.554Z" fill="#FBFFFF" />
  <path d="M137.129 141.114C137.101 141.54 136.952 141.948 136.7 142.286C136.449 142.624 136.106 142.877 135.716 143.013C135.325 143.15 134.904 143.163 134.506 143.052C134.108 142.941 133.751 142.71 133.48 142.389C133.209 142.068 133.036 141.67 132.982 141.247C132.929 140.824 132.999 140.394 133.181 140.012C133.364 139.63 133.653 139.312 134.01 139.099C134.367 138.887 134.777 138.788 135.188 138.817C135.462 138.836 135.729 138.91 135.974 139.036C136.219 139.162 136.438 139.336 136.618 139.55C136.799 139.763 136.936 140.011 137.024 140.279C137.111 140.548 137.147 140.832 137.129 141.114Z" fill="#FBFFFF" />
  <path d="M142.72 143.947C142.692 144.373 142.543 144.78 142.292 145.118C142.04 145.456 141.698 145.709 141.307 145.846C140.917 145.982 140.496 145.996 140.098 145.885C139.7 145.773 139.343 145.543 139.072 145.221C138.8 144.9 138.627 144.503 138.574 144.08C138.521 143.657 138.59 143.227 138.773 142.845C138.956 142.462 139.244 142.145 139.601 141.932C139.959 141.719 140.369 141.621 140.78 141.649C141.053 141.668 141.32 141.743 141.565 141.868C141.811 141.994 142.03 142.169 142.21 142.382C142.39 142.595 142.528 142.843 142.615 143.112C142.703 143.38 142.739 143.664 142.72 143.947Z" fill="#EF7F7E" />
  <path d="M43.8931 179.322C43.3898 179.673 42.9641 180.13 42.6442 180.664C42.3243 181.197 42.1174 181.795 42.0374 182.418C41.9573 183.04 42.0058 183.673 42.1796 184.275C42.3535 184.877 42.6488 185.433 43.0459 185.908L65.2937 212.365C65.9386 213.146 66.8279 213.667 67.8065 213.839C68.785 214.01 69.7907 213.821 70.648 213.303C76.9343 209.576 91.2861 201.403 97.064 200.956C97.064 200.956 104.57 202.298 107.569 196.098C107.569 196.098 116.787 186.11 129.944 182.383C130.382 182.261 130.781 182.023 131.102 181.692C131.423 181.361 131.655 180.949 131.774 180.497C131.893 180.044 131.895 179.567 131.781 179.114C131.667 178.66 131.439 178.245 131.122 177.91L105.85 151.287C104.986 150.372 103.861 149.768 102.641 149.564C101.421 149.361 100.17 149.568 99.0719 150.156L43.8931 179.322Z" fill="#6D86CC" />
  <path d="M43.8931 179.322C43.3898 179.673 42.9641 180.13 42.6442 180.664C42.3243 181.197 42.1174 181.795 42.0374 182.418C41.9573 183.04 42.0058 183.673 42.1796 184.275C42.3535 184.877 42.6488 185.433 43.0459 185.908L65.2937 212.365C65.9386 213.146 66.8279 213.667 67.8065 213.839C68.785 214.01 69.7907 213.821 70.648 213.303C76.9343 209.576 91.2861 201.403 97.064 200.956C97.064 200.956 104.57 202.298 107.569 196.098C107.569 196.098 116.787 186.11 129.944 182.383C130.382 182.261 130.781 182.023 131.102 181.692C131.423 181.361 131.655 180.949 131.774 180.497C131.893 180.044 131.895 179.567 131.781 179.114C131.667 178.66 131.439 178.245 131.122 177.91L105.85 151.287C104.986 150.372 103.861 149.768 102.641 149.564C101.421 149.361 100.17 149.568 99.0719 150.156L43.8931 179.322Z" stroke="#070000" stroke-width="2" stroke-linecap="round" stroke-linejoin="round" />
  <path d="M48.8916 164.66L42.5545 158.057C42.5545 158.057 47.0024 152.795 53.3819 153.014L58.2533 158.837L48.8916 164.66Z" fill="#46B17B" />
  <path d="M39.8773 170.123C39.8773 170.123 45.3757 160.03 54.0088 157.443C59.3744 155.886 64.9922 155.489 70.5124 156.277C70.5124 156.277 81.721 136.414 102.054 140.843L128.419 168.904V178.48C128.419 178.48 114.339 181.374 104.774 191.634L97.2758 195.282C97.2758 195.282 83.7798 195.282 69.123 210.041L44.3845 181.357L39.8773 170.123Z" fill="#F8B193" />
  <path d="M70.5125 156.25L98.5128 184.855" stroke="#EF7F7E" stroke-width="2" stroke-linecap="round" stroke-linejoin="round" />
  <path d="M69.1145 210.084C83.7713 195.326 97.2673 195.326 97.2673 195.326L104.765 191.678C114.33 181.4 128.411 178.524 128.411 178.524V168.948C112.458 170.5 98.5466 186.899 98.5466 186.899C83.6696 183.891 66.1663 198.649 66.1663 198.649L39.8773 170.123L44.376 181.427L69.1145 210.084Z" fill="#EF7F7E" />
  <path d="M66.1324 198.632L69.1146 210.085" stroke="#F8B193" stroke-width="2" stroke-linecap="round" stroke-linejoin="round" />
  <path d="M70.5125 200.956C70.5125 200.956 84.5084 188.802 99.6989 191.678" stroke="#F8B193" stroke-width="2" stroke-linecap="round" stroke-linejoin="round" />
  <path d="M104.392 186.881C104.392 186.881 114.178 175.534 128.411 173.297" stroke="#F8B193" stroke-width="2" stroke-linecap="round" stroke-linejoin="round" />
  <path d="M42.5545 176.805L67.6235 204.358" stroke="#F8B193" stroke-width="2" stroke-linecap="round" stroke-linejoin="round" />
  <path d="M57.6857 182.979L65.5732 191.678L74.757 186.881L66.2171 178.208L57.6857 182.979Z" fill="#46B17B" />
  <path d="M45.9773 168.247C48.8389 165.355 52.2245 163.078 55.9394 161.546C59.6542 160.014 63.6251 159.257 67.6235 159.319" stroke="#EF7F7E" stroke-width="2" stroke-linecap="round" stroke-linejoin="round" />
  <path d="M62.9214 166.615C65.5739 165.736 68.3243 165.211 71.1055 165.054" stroke="#EF7F7E" stroke-width="2" stroke-linecap="round" stroke-linejoin="round" />
  <path d="M50.3743 173.297C52.5291 171.593 54.8487 170.123 57.296 168.913" stroke="#EF7F7E" stroke-width="2" stroke-linecap="round" stroke-linejoin="round" />
  <path d="M54.2291 178.208C57.1603 175.906 60.5079 174.236 64.0736 173.297" stroke="#EF7F7E" stroke-width="2" stroke-linecap="round" stroke-linejoin="round" />
  <path d="M72.8846 176.805L81.6956 173.876" stroke="#EF7F7E" stroke-width="2" stroke-linecap="round" stroke-linejoin="round" />
  <path d="M75.333 180.094L84.144 177.165" stroke="#EF7F7E" stroke-width="2" stroke-linecap="round" stroke-linejoin="round" />
  <path d="M78.1289 183.943L86.9399 181.014" stroke="#EF7F7E" stroke-width="2" stroke-linecap="round" stroke-linejoin="round" />
  <path d="M89.7611 163.783C89.7611 163.783 98.5721 155.145 108.518 153.786" stroke="#EF7F7E" stroke-width="2" stroke-linecap="round" stroke-linejoin="round" />
  <path d="M92.0146 170.553C92.0146 170.553 103.825 159.109 113.763 157.75" stroke="#EF7F7E" stroke-width="2" stroke-linecap="round" stroke-linejoin="round" />
  <path d="M88.8207 146.999C88.8207 146.999 94.946 143.912 99.6989 143.675" stroke="#EF7F7E" stroke-width="2" stroke-linecap="round" stroke-linejoin="round" />
  <path d="M92.0146 151.164C92.0146 151.164 98.14 148.077 102.893 147.841" stroke="#EF7F7E" stroke-width="2" stroke-linecap="round" stroke-linejoin="round" />
  <path d="M77.2901 154.935L84.144 161.161L91.0742 156.25L84.144 148.744L77.2901 154.935Z" fill="#7BC9EF" />
  <path d="M70.3938 129.864L77.7985 101.916C77.7985 101.916 80.3401 99.0046 85.0167 100.162C89.6933 101.32 89.0494 106.187 89.0494 106.187L83.0512 134.52L74.7993 140.658L70.3938 129.864Z" fill="#FDCE64" />
  <path d="M85.0167 100.162C80.3316 99.0046 77.7985 101.916 77.7985 101.916L75.2568 111.562C79.7471 110.773 83.0596 111.448 87.2957 114.535L89.0579 106.213C89.0579 106.213 89.7102 101.328 85.0167 100.162Z" fill="#EF7F7E" />
  <path d="M87.2872 114.508L88.1768 110.317C84.6241 108.07 80.4569 107.094 76.3158 107.537L75.2568 111.536C79.7386 110.746 83.0512 111.422 87.2872 114.508Z" fill="#FBFFFF" />
  <path d="M70.3938 129.863L74.3334 128.697L80.1452 129.863L83.0512 134.52L74.7993 140.641L70.3938 129.863Z" fill="#F8B193" />
  <path d="M72.8169 135.792L74.7993 140.641L78.9168 137.589C76.9004 134.424 74.3418 135.046 72.8169 135.792Z" fill="#070000" />
  <path d="M74.3334 128.697L78.2644 111.238" stroke="#EF7F7E" stroke-width="2" stroke-linecap="round" stroke-linejoin="round" />
  <path d="M80.1452 129.863L84.0424 112.527" stroke="#EF7F7E" stroke-width="2" stroke-linecap="round" stroke-linejoin="round" />
  <path d="M170.432 81.6328L181.59 84.6582L181.116 91.963L165.205 99.6799C165.205 99.6799 155.293 100.759 154.191 95.9968C153.09 91.2351 155.157 89.5865 155.157 89.5865L170.432 81.6328Z" fill="#FBFFFF" />
  <path d="M160.393 86.8593L171.356 90.5511L171.796 96.4879L181.116 91.963L181.59 84.6582L170.432 81.6328L160.393 86.8593Z" fill="#EF7F7E" />
  <path d="M155.149 89.5865C155.149 89.5865 154.115 93.3748 160.232 94.0501C166.349 94.7253 181.616 84.6582 181.616 84.6582" stroke="#070000" stroke-width="2" stroke-linecap="round" stroke-linejoin="round" />
  <path d="M130.961 66.8655L104.799 61.8144C104.592 61.7729 104.378 61.7775 104.172 61.828C103.967 61.8784 103.774 61.9736 103.606 62.1071C103.439 62.2406 103.301 62.4094 103.201 62.6024C103.101 62.7953 103.043 63.008 103.028 63.2263L100.817 94.7955C100.796 95.1041 100.865 95.4122 101.014 95.6802C101.163 95.9482 101.387 96.1639 101.655 96.2997C101.924 96.4354 102.225 96.4849 102.521 96.4419C102.817 96.3989 103.094 96.2653 103.316 96.0583L131.706 69.5489C131.916 69.3541 132.068 69.1024 132.145 68.8225C132.223 68.5425 132.223 68.2456 132.145 67.9657C132.067 67.6858 131.915 67.4342 131.706 67.2396C131.496 67.0451 131.238 66.9154 130.961 66.8655ZM107.883 79.8001L108.527 70.5836C108.541 70.3651 108.6 70.1522 108.7 69.9589C108.799 69.7657 108.937 69.5964 109.104 69.4622C109.271 69.328 109.464 69.232 109.67 69.1804C109.876 69.1289 110.089 69.1229 110.297 69.163L117.922 70.645C118.188 70.7042 118.432 70.8369 118.631 71.0287C118.829 71.2206 118.973 71.4646 119.048 71.7346C119.122 72.0046 119.125 72.2906 119.055 72.562C118.985 72.8334 118.846 73.0801 118.651 73.2758L110.374 81.019C110.154 81.2198 109.882 81.3495 109.592 81.392C109.302 81.4346 109.006 81.3881 108.741 81.2584C108.476 81.1287 108.253 80.9215 108.101 80.6623C107.948 80.4031 107.872 80.1034 107.883 79.8001Z" fill="#FDCE64" />
  <path d="M104.359 90.3845L106.46 93.1205" stroke="#070000" stroke-width="2" stroke-linecap="round" stroke-linejoin="round" />
  <path d="M107.832 86.9292L109.933 89.6564" stroke="#070000" stroke-width="2" stroke-linecap="round" stroke-linejoin="round" />
  <path d="M112.119 83.3606L114.22 86.0878" stroke="#070000" stroke-width="2" stroke-linecap="round" stroke-linejoin="round" />
  <path d="M115.881 79.8528L117.982 82.5888" stroke="#070000" stroke-width="2" stroke-linecap="round" stroke-linejoin="round" />
  <path d="M120.295 75.4153L122.396 78.1425" stroke="#070000" stroke-width="2" stroke-linecap="round" stroke-linejoin="round" />
  <path d="M124.022 71.4692L126.123 74.1965" stroke="#070000" stroke-width="2" stroke-linecap="round" stroke-linejoin="round" />
  <path d="M166.476 31.271L143.508 55.8073L174.914 58.5959L176.227 52.4224L189.486 49.7215L178.379 41.6713L173.144 43.6005L175.007 38.9265L166.476 31.271Z" fill="#FBFFFF" />
  <path d="M143.508 55.8075L173.144 43.6008L175.007 38.9268L143.508 55.8075Z" fill="#070000" />
  <path d="M176.227 52.4224L143.508 55.8073L174.914 58.5959L176.227 52.4224Z" fill="#EF7F7E" />
  <path d="M41.2667 118.858C32.1084 113.641 20.1373 122.006 20.1373 122.006C20.1373 122.006 14.1306 125.97 12.631 132.977C11.5974 137.809 16.0199 140.869 19.5104 140.124C23.0009 139.378 26.6354 141.5 23.6363 145.683C20.6372 149.866 22.6366 163.888 35.0143 157.136C47.3921 150.384 50.4166 124.067 41.2667 118.858ZM21.6369 135.423C20.7381 135.423 19.8761 135.054 19.2406 134.396C18.6051 133.738 18.248 132.846 18.248 131.916C18.248 130.985 18.6051 130.093 19.2406 129.435C19.8761 128.778 20.7381 128.408 21.6369 128.408C22.5357 128.408 23.3976 128.778 24.0331 129.435C24.6687 130.093 25.0257 130.985 25.0257 131.916C25.0257 132.846 24.6687 133.738 24.0331 134.396C23.3976 135.054 22.5357 135.423 21.6369 135.423Z" fill="#FBFFFF" />
  <path d="M33.7604 120.928C32.9132 122.603 31.2188 121.147 29.8124 121.515C28.406 121.884 27.9486 123.269 27.8045 124.558C27.7459 124.865 27.7471 125.182 27.8082 125.488C27.8693 125.795 27.989 126.086 28.1603 126.344C28.3315 126.602 28.5509 126.823 28.8056 126.992C29.0602 127.161 29.3449 127.276 29.643 127.329C30.2191 127.513 30.4902 127.663 30.702 128.329C30.7579 129.077 30.8597 129.821 31.007 130.556C31.5153 131.977 33.2351 132.477 34.5483 132.74C35.8615 133.003 37.7084 133.056 38.7844 132.065C39.8603 131.074 39.6316 129.285 39.2588 127.961C39.0462 127.294 39.0642 126.572 39.3096 125.917C39.7521 125.225 40.0706 124.456 40.25 123.646C40.4025 121.892 38.8183 120.665 37.4458 119.998C36.4037 119.525 33.0911 118.692 33.7604 120.928Z" fill="#EF7F7E" />
  <path d="M29.5329 129.469C29.5971 129.822 29.5548 130.187 29.4119 130.515C29.2689 130.843 29.0322 131.117 28.7336 131.301C28.4351 131.484 28.0893 131.569 27.7429 131.542C27.3965 131.516 27.0664 131.38 26.7972 131.153C26.528 130.926 26.3327 130.618 26.2377 130.273C26.1428 129.927 26.1528 129.559 26.2665 129.219C26.3801 128.88 26.5918 128.584 26.873 128.373C27.1542 128.162 27.4912 128.046 27.8384 128.04C28.0405 128.018 28.2447 128.038 28.4393 128.098C28.6339 128.158 28.8152 128.257 28.9726 128.39C29.1301 128.523 29.2606 128.686 29.3568 128.872C29.4529 129.057 29.5128 129.26 29.5329 129.469Z" fill="#EF7F7E" />
  <path d="M36.2004 136.195C36.2004 136.195 34.9211 135.984 34.7347 135.993C34.3995 136.007 34.0719 136.102 33.7779 136.269C33.4839 136.437 33.2314 136.672 33.0403 136.958C32.8644 137.188 32.6439 137.378 32.393 137.516C32.1421 137.653 31.8663 137.735 31.5831 137.756C30.9043 137.755 30.2267 137.817 29.5583 137.94C28.2112 138.396 27.6605 140.439 27.7283 141.746C27.7333 142.439 27.9266 143.116 28.2862 143.701C28.6458 144.286 29.1571 144.754 29.7616 145.052C30.3076 145.243 30.7975 145.575 31.1849 146.016C31.5492 146.56 31.6085 147.209 32.1338 147.656C33.3026 148.529 34.7423 148.923 36.175 148.761C36.8695 148.687 37.5413 148.463 38.1469 148.104C38.7525 147.744 39.2785 147.257 39.6909 146.674C40.1185 146.104 40.4167 145.441 40.5633 144.735C40.71 144.029 40.7014 143.298 40.5381 142.596C40.2304 141.894 39.8345 141.236 39.3605 140.641C39.01 139.943 38.8132 139.173 38.7844 138.387C38.6823 137.76 38.3644 137.193 37.8893 136.79C37.4143 136.387 36.8144 136.175 36.2004 136.195Z" fill="#FDCE64" />
  <path d="M31.329 149.954C31.329 151.129 30.575 152.988 29.2618 152.988C27.9486 152.988 26.5761 151.129 26.5761 149.954C26.6532 149.358 26.9365 148.811 27.3736 148.415C27.8107 148.019 28.3718 147.801 28.9526 147.801C29.5334 147.801 30.0944 148.019 30.5315 148.415C30.9686 148.811 31.252 149.358 31.329 149.954Z" fill="#FDCE64" />
  <path d="M34.9127 229.385C33.3447 227.98 32.2135 226.127 31.6617 224.057C31.1099 221.988 31.1622 219.796 31.8119 217.757C34.0062 210.461 44.6302 190.494 50.8826 193.8C57.135 197.106 48.3918 224.343 48.3918 224.343C48.3918 224.343 45.9434 232.972 39.0725 231.209L34.9127 229.385Z" fill="#94533F" />
  <path d="M41.5463 199.404C40.0284 201.408 38.6361 203.511 37.3781 205.7C40.0468 205.515 42.7216 205.954 45.2034 206.987C47.6852 208.019 49.9102 209.618 51.7129 211.663C52.2428 209.158 52.6444 206.626 52.9159 204.078C49.6909 201.328 45.7149 199.694 41.5463 199.404Z" fill="#FDCE64" />
  <path d="M32.5066 226.246C32.5066 226.246 35.421 223.273 38.5218 224.773C41.6226 226.273 43.6051 228.351 43.2238 230.955L39.0725 238.093L30.7952 234.454L32.5066 226.246Z" fill="#FDCE64" />
  <path d="M37.7847 234.305C37.7847 234.305 32.7014 230.517 28.1434 233.296C23.5855 236.076 24.1107 244.749 19.0275 245.591C19.0275 245.591 25.7204 258.42 36.0649 250.414C46.6042 242.259 37.7847 234.305 37.7847 234.305Z" fill="#070000" />
  <path d="M25.3477 253.019C25.3477 253.019 28.5162 252.58 30.0158 250.572" stroke="#FBFFFF" stroke-width="2" stroke-linecap="round" stroke-linejoin="round" />
  <path d="M33.1758 253.15C34.9927 251.799 36.4688 250.016 37.4797 247.95" stroke="#FBFFFF" stroke-width="2" stroke-linecap="round" stroke-linejoin="round" />
  <path d="M266.913 247.459C269.133 246.593 271.11 245.169 272.666 243.315C274.222 241.461 275.307 239.236 275.825 236.839L272.725 235.015C272.725 235.015 273.013 241.557 264.363 241.101L266.913 247.459Z" fill="#070000" />
  <path d="M364.427 322.55L385.497 321.278C385.497 321.278 388.513 321.331 389.682 325.461C390.851 329.592 388.623 331.933 385.827 332.862C383.031 333.792 365.723 338.185 365.723 338.185C365.723 338.185 362.148 336.817 360.453 331.477C358.081 324.067 364.427 322.55 364.427 322.55Z" fill="#070000" />
  <path d="M150.481 231.595C166.306 245.512 221.917 287.534 322.049 293.392C322.049 293.392 356.022 321.059 364.41 322.55C364.41 322.55 360.174 329.013 365.706 338.185C365.706 338.185 332.512 357.39 315.475 362.625C315.475 362.625 212.022 368.843 119.269 301.925C116.056 299.613 113.35 296.625 111.331 293.155C106.027 284.027 98.0129 265.164 107.366 245.591C114.491 230.683 125.234 226.562 133.545 225.869C139.7 225.381 145.791 227.44 150.481 231.595Z" fill="#FDCE64" />
  <path d="M196.332 261.533C196.332 261.533 206.583 284.123 224.9 289.244L226.73 274.477C216.365 270.771 206.215 266.449 196.332 261.533Z" fill="#070000" />
  <path d="M159.842 266.032C159.842 266.032 234.617 309.001 315.907 313.009" stroke="#070000" stroke-width="2" stroke-linecap="round" stroke-linejoin="round" />
  <path d="M149.498 299.531C149.498 299.531 247.774 351.19 315.458 343.184" stroke="#070000" stroke-width="2" stroke-linecap="round" stroke-linejoin="round" />
  <path d="M150.481 231.595C145.789 227.438 139.694 225.379 133.536 225.869C125.225 226.562 114.483 230.701 107.358 245.591C98.0383 265.164 106.019 284.027 111.323 293.155C113.342 296.625 116.047 299.613 119.261 301.925C129.79 309.512 140.772 316.404 152.141 322.559C150.015 313.509 146.439 292.217 154.573 275.354C159.347 265.304 166.117 256.411 174.44 249.257C166.025 244.018 158.015 238.113 150.481 231.595Z" fill="#EF7F7E" />
  <path d="M174.465 249.257C168.081 245.253 161.912 240.891 155.988 236.191C148.363 242.636 137.484 253.817 132.994 268.356C127.911 284.807 130.893 302.276 133.147 311.325C139.473 315.371 145.813 319.113 152.167 322.55C150.04 313.5 146.465 292.209 154.598 275.345C159.373 265.299 166.143 256.409 174.465 249.257Z" fill="#FBFFFF" />
  <path d="M364.427 322.55C356.022 321.059 322.066 293.392 322.066 293.392C308.409 298.987 315.924 313.009 315.924 313.009C315.924 313.009 309.383 314.57 308.655 325.119C307.926 335.669 315.509 343.184 315.509 343.184C308.629 353.9 315.509 362.625 315.509 362.625C332.546 357.364 365.74 338.185 365.74 338.185C360.174 329.013 364.427 322.55 364.427 322.55Z" fill="#F8B193" />
  <path d="M239.217 195.711C239.217 195.711 234.083 182.768 217.766 186.276C194.824 191.213 169.094 219.879 185.445 224.132C185.445 224.132 178.43 244.082 188.309 258.061C188.309 258.061 191.181 261.656 194.773 261.77C198.365 261.884 212.386 261.551 212.386 261.551L239.217 195.711Z" fill="#46B17B" />
  <path d="M253.535 289.385C253.535 289.385 252.264 299.425 239.489 303.889C226.713 308.353 221.79 303.705 221.79 303.705C222.88 300.58 224.641 297.753 226.941 295.436C229.241 293.12 232.019 291.374 235.066 290.332C245.741 286.473 253.535 289.385 253.535 289.385Z" fill="#070000" />
  <path d="M243.538 286.859C243.538 286.859 252.332 300.451 252.061 310.492C251.79 320.533 236.54 322.883 229.525 317.823C222.51 312.763 212.708 303.038 212.708 303.038C212.708 303.038 203.143 301.574 198.899 293.769C194.654 285.965 214.733 283.895 218.969 285.482C223.205 287.07 224.9 289.244 224.9 289.244L243.538 286.859Z" fill="#94533F" />
  <path d="M218.969 285.482C214.733 283.895 194.663 285.974 198.899 293.769C203.135 301.565 212.742 303.038 212.742 303.038C212.742 303.038 213.733 304.021 215.284 305.52C218.16 305.28 220.969 304.492 223.569 303.196L218.291 294.331C218.291 294.331 223.205 287.061 218.969 285.482Z" fill="#6D86CC" />
  <path d="M206.329 295.628C211.963 295.997 220.731 294.444 225.518 291.445C225.361 290.701 225.163 289.966 224.925 289.244C224.925 289.244 223.231 287.061 218.995 285.482C214.758 283.904 195.645 285.877 198.661 293.226C199.924 294.33 202.211 295.356 206.329 295.628Z" fill="#070000" />
  <path d="M221.129 299.092L228.89 312.018" stroke="#070000" stroke-width="2" stroke-linecap="round" stroke-linejoin="round" />
  <path d="M207.777 266.181C209.245 275.864 212.182 285.246 216.478 293.98L221.79 303.731C221.79 303.731 237.379 290.577 253.535 289.411L249.638 281.747C249.638 281.747 266.735 286.675 280.807 288.674L268.26 266.058L209.269 255L207.777 266.181Z" fill="#FBFFFF" />
  <path d="M280.807 288.674L268.26 266.059" stroke="#070000" stroke-width="2" stroke-linecap="round" stroke-linejoin="round" />
  <path d="M221.511 203.867C221.511 203.867 211.92 210.436 210.802 226.448L206.566 265.48C206.566 265.48 233.973 281.116 253.645 278.502C253.645 278.502 267.726 276.634 272.284 268.163L267.26 238.436C277.943 238.475 288.583 237.03 298.895 234.139L290.228 203.113C290.228 203.113 271.022 206.577 258.034 204.437C258.017 204.472 233.931 193.064 221.511 203.867Z" fill="#5B6CB1" />
  <path d="M243.081 247.818C245.089 250.449 241.751 256.649 235.608 261.656C229.466 266.663 222.9 268.566 220.867 265.927C218.834 263.287 222.197 257.096 228.331 252.089C234.465 247.082 241.073 245.179 243.081 247.818Z" fill="#070000" />
  <path d="M299.496 216.311C302.038 224.449 301.487 233.314 298.895 234.174C296.302 235.033 292.6 227.57 290.084 219.433C287.568 211.295 287.627 204.008 290.228 203.148C292.829 202.289 296.972 208.182 299.496 216.311Z" fill="#070000" />
  <path d="M331.089 182.856C333.724 179.489 335.325 174.736 332.199 172.105C329.073 169.474 323.083 181.19 323.083 181.19C314.611 185.855 313.586 190.292 313.586 190.292C306.105 196.615 290.228 203.148 290.228 203.148C283.755 207.006 292.88 227 292.88 227C292.88 227 297.963 226.299 308.782 221.511C319.601 216.723 326.76 205.551 327.971 204.227L328.056 204.13C330.437 204.411 332.919 204.446 333.834 203.578C334.944 202.517 334.562 201.052 333.343 199.667C334.561 199.028 335.61 198.091 336.398 196.937C337.187 195.783 337.691 194.447 337.867 193.046C338.426 187.854 331.089 182.856 331.089 182.856Z" fill="#94533F" />
  <path d="M290.228 203.148C287.161 204.972 287.593 210.4 288.898 215.626C290.385 210.164 292.845 205.037 296.15 200.508C292.676 202.131 290.228 203.148 290.228 203.148Z" fill="#070000" />
  <path d="M328.056 204.13C328.056 204.13 322.498 205.533 319.584 202.595" stroke="#070000" stroke-width="2" stroke-linecap="round" stroke-linejoin="round" />
  <path d="M333.343 199.667C333.343 199.667 326.938 199.044 324.523 194.949" stroke="#070000" stroke-width="2" stroke-linecap="round" stroke-linejoin="round" />
  <path d="M324.642 188.819C327.27 187.468 329.497 185.408 331.089 182.856" stroke="#070000" stroke-width="2" stroke-linecap="round" stroke-linejoin="round" />
  <path d="M333.707 185.031C333.707 185.031 337.045 194.817 330.191 198.983" stroke="#070000" stroke-width="2" stroke-linecap="round" stroke-linejoin="round" />
  <path d="M328.014 186.513C328.014 186.513 330.411 192.318 326.489 197.097" stroke="#070000" stroke-width="2" stroke-linecap="round" stroke-linejoin="round" />
  <path d="M234.744 213.189C234.744 213.189 246.266 231.973 259.949 228.702C259.949 228.702 264.702 225.457 261.253 218.977L264.642 209.892L234.744 213.189Z" fill="#94533F" />
  <path d="M234.744 213.189C235.851 214.947 237.083 216.618 238.43 218.187C252.722 223.449 261.253 218.977 261.253 218.977L264.642 209.892L234.744 213.189Z" fill="#070000" />
  <path d="M261.253 218.977L259.991 223.151" stroke="#070000" stroke-width="2" stroke-linecap="round" stroke-linejoin="round" />
  <path d="M263.024 214.206C263.024 214.206 275.122 226.141 272.564 243.329C272.564 243.329 282.281 234.454 273.123 212.136L263.024 214.206Z" fill="#46B17B" />
  <path d="M306.3 125.839C298.565 107.178 281.976 116.192 281.976 116.192C281.976 116.192 280.519 104.582 270.649 101.723C260.779 98.8645 253.298 105.661 253.298 105.661C253.298 105.661 246.639 90.0864 229.576 92.0595C212.513 94.0326 209.65 112.72 209.65 112.72C209.65 112.72 205.643 109.905 202.609 113.141C199.576 116.377 201.347 121.814 201.347 121.814C201.347 121.814 187.444 121.814 185.013 135.344C184.311 139.33 184.452 143.425 185.424 147.348C186.397 151.272 188.178 154.931 190.647 158.074C190.647 158.074 186.047 161.056 191.198 173.859C196.349 186.662 214.132 191.827 214.132 191.827L282.035 170.281C284.247 169.795 286.413 169.109 288.508 168.229L288.872 168.115V168.062C300.2 163.003 299.929 154.076 297.777 147.595C304.749 145.464 311.756 139.019 306.3 125.839Z" fill="#070000" />
  <path d="M217.766 186.276C217.766 186.276 212.869 166.835 199.382 171.228C184.979 175.902 199.627 217.828 218.207 199.202C218.207 199.202 226.56 217.258 256.17 216.968C283.349 216.697 297.777 204.691 298.819 192.581C299.768 181.663 292.812 180.795 293.524 173.043C294.235 165.291 295.286 157.46 290.414 149.875C290.414 149.875 292.634 160.617 280.866 160.898C269.099 161.179 256.636 155.023 256.636 155.023C256.636 155.023 259.339 162.915 250.257 164.327C241.174 165.739 231.025 154.724 231.025 154.724C231.025 154.724 235.795 163.494 232.804 169.465C229.813 175.437 220.867 179.12 217.766 186.276Z" fill="#94533F" />
  <path d="M200.025 182.54C200.025 182.54 203.059 179.287 206.117 182.058C209.175 184.829 214.115 191.818 214.115 191.818" stroke="#070000" stroke-width="2" stroke-linecap="round" stroke-linejoin="round" />
  <path d="M209.777 186.092C209.777 186.092 202.999 187.635 206.541 195.738" stroke="#070000" stroke-width="2" stroke-linecap="round" stroke-linejoin="round" />
  <path d="M271.276 186.136C271.276 186.136 278.172 179.997 280.366 183.961C282.561 187.925 275.893 190.862 275.893 190.862" stroke="#070000" stroke-width="2" stroke-linecap="round" stroke-linejoin="round" />
  <path d="M272.428 173.631C272.428 173.631 272.496 181.523 274.682 183.759" stroke="#070000" stroke-width="2" stroke-linecap="round" stroke-linejoin="round" />
  <path d="M254.552 194.414C254.552 194.414 258.373 198.948 262.6 198.518C262.6 198.518 259.347 206.682 255.357 206.472C251.366 206.261 254.552 194.414 254.552 194.414Z" fill="#FBFFFF" />
  <path d="M254.552 194.414C255.937 196.237 257.855 197.546 260.02 198.145C262.184 198.745 264.478 198.602 266.557 197.738" stroke="#070000" stroke-width="2" stroke-linecap="round" stroke-linejoin="round" />
  <path d="M252.858 181.207C252.858 181.207 254.484 177.831 258.009 177.901C261.533 177.972 262.66 180.225 262.66 180.225" stroke="#070000" stroke-width="2" stroke-linecap="round" stroke-linejoin="round" />
  <path d="M280.078 178.173C280.078 178.173 283.467 174.402 287.322 177.507" stroke="#070000" stroke-width="2" stroke-linecap="round" stroke-linejoin="round" />
  <path d="M251.663 168.65C251.663 168.65 253.823 166.58 258.636 166.08" stroke="#070000" stroke-width="2" stroke-linecap="round" stroke-linejoin="round" />
  <path d="M282.035 165.028C282.035 165.028 285.509 165.458 287.186 166.782" stroke="#070000" stroke-width="2" stroke-linecap="round" stroke-linejoin="round" />
  <path d="M241.259 234.332L207.93 212.549L216.131 206.735L245.292 228.018L241.259 234.332Z" fill="#46B17B" />
  <path d="M222.358 258.578C222.358 258.578 230.44 247.231 238.048 247.354L238.65 238.953C238.65 238.953 236.405 227.623 244.445 223.659C252.485 219.696 255.035 222.397 255.035 222.397C255.035 222.397 256.822 224.01 255.552 228.009C255.552 228.009 258.991 229.324 257.737 232.446C257.737 232.446 262.465 235.401 262.499 241.031C262.533 246.661 257.288 250.537 257.288 250.537C257.288 250.537 257.627 253.598 260.601 259.473C264.456 267.102 260.601 280.23 248.045 278.993C231.881 277.406 222.358 258.578 222.358 258.578Z" fill="#94533F" />
  <path d="M238.023 247.354L236.549 258.306" stroke="#070000" stroke-width="2" stroke-linecap="round" stroke-linejoin="round" />
  <path d="M255.526 228C253.494 227.061 251.242 226.756 249.045 227.123" stroke="#070000" stroke-width="2" stroke-linecap="round" stroke-linejoin="round" />
  <path d="M251.917 233.279L257.712 232.446" stroke="#070000" stroke-width="2" stroke-linecap="round" stroke-linejoin="round" />
  <path d="M254.738 238.567C254.738 238.567 258.627 236.813 262.084 238.357" stroke="#070000" stroke-width="2" stroke-linecap="round" stroke-linejoin="round" />
  <path d="M204.677 246.372L214.242 244.092L216.495 251.458L204.414 256.158L204.677 246.372Z" fill="#46B17B" />
  <path d="M267.218 238.435L266.387 229.298" stroke="#070000" stroke-width="2" stroke-linecap="round" stroke-linejoin="round" />
  <path d="M212.454 238.295L220.486 264.366" stroke="#070000" stroke-width="2" stroke-linecap="round" stroke-linejoin="round" />
  <path d="M185.445 224.133L189.859 207.138" stroke="#070000" stroke-width="2" stroke-linecap="round" stroke-linejoin="round" />
  <path d="M185.182 207.515C186.452 206.114 187.999 205.011 189.716 204.282C191.433 203.553 193.282 203.214 195.137 203.288C201.678 203.411 206.795 204.455 206.151 212.163C206.151 212.163 197.408 213.259 189.478 208.655" stroke="#070000" stroke-width="2" stroke-linecap="round" stroke-linejoin="round" />
  <path d="M202.11 231.753C194.044 231.639 180.819 227.833 180.819 227.833C179.333 230.212 178.393 232.912 178.074 235.726C177.913 237.909 179.066 239.742 181.624 241.171C181.429 246.52 182.471 254.878 190.096 257.605C190.096 257.605 200.153 261.165 201.584 254.097C202.525 249.423 201.534 243.179 200.737 239.47C201.725 237.03 202.193 234.398 202.11 231.753Z" fill="#C1D57E" />
  <path d="M181.624 241.198L193.917 243.785C193.917 243.785 199.509 244.398 200.754 239.514" stroke="#070000" stroke-width="2" stroke-linecap="round" stroke-linejoin="round" />
  <path d="M189.952 236.217C190.051 236.666 190.02 237.136 189.861 237.567C189.702 237.998 189.423 238.371 189.06 238.638C188.697 238.905 188.265 239.055 187.82 239.068C187.375 239.081 186.936 238.957 186.558 238.712C186.181 238.468 185.882 238.112 185.699 237.692C185.517 237.271 185.459 236.804 185.533 236.349C185.607 235.894 185.809 235.472 186.115 235.136C186.421 234.801 186.815 234.566 187.25 234.463C187.833 234.326 188.444 234.434 188.95 234.763C189.457 235.092 189.817 235.614 189.952 236.217Z" stroke="#070000" stroke-width="2" stroke-linecap="round" stroke-linejoin="round" />
  <path d="M212.776 215.714L209.768 213.75" stroke="#070000" stroke-width="2" stroke-linecap="round" stroke-linejoin="round" />
  <path d="M218.291 208.322L214.665 205.49" stroke="#070000" stroke-width="2" stroke-linecap="round" stroke-linejoin="round" />
  <path d="M249.638 281.746C253.446 281.666 257.196 280.771 260.652 279.116" stroke="#070000" stroke-width="2" stroke-linecap="round" stroke-linejoin="round" />
  <path d="M156.547 175.595C156.547 175.595 148.744 170.886 142.458 177.858C136.171 184.829 137.849 209.155 153.683 213.303C153.683 213.303 159.376 215.644 160.91 211.663C162.443 207.682 165.315 213.548 170.704 211.663C176.092 209.778 184.064 203.429 181.489 183.093C179.294 165.826 160.427 167.571 156.547 175.595Z" fill="#EF7F7E" />
  <path d="M152.675 163.643C152.675 163.643 157.309 171.754 156.547 178.208" stroke="#070000" stroke-width="2" stroke-linecap="round" stroke-linejoin="round" />
  <path d="M152.675 178.208C152.675 178.208 157.648 179.515 161.011 176.902" stroke="#070000" stroke-width="2" stroke-linecap="round" stroke-linejoin="round" />
  <path d="M160.046 169.246C160.046 169.246 157.504 170.641 156.843 175.876C156.843 175.876 163.841 171.421 170.839 172.561C170.839 172.543 165.442 167.396 160.046 169.246Z" fill="#070000" />
  <path d="M160.046 169.246C160.046 169.246 164.595 169.685 165.519 174.043C166.442 178.401 174.33 185.119 181.616 180.182C181.616 180.182 178.752 176.779 178.616 173.026C178.481 169.273 168.391 162.073 160.046 169.246Z" fill="#46B17B" />
  <path d="M167.882 166.177C167.882 166.177 172.178 168.352 173.813 174.63C175.448 180.909 181.666 180.129 181.666 180.129" stroke="#070000" stroke-width="2" stroke-linecap="round" stroke-linejoin="round" />
  <path d="M147.617 205.2C147.617 205.2 150.404 209.207 154.657 209.821" stroke="#FBFFFF" stroke-width="2" stroke-linecap="round" stroke-linejoin="round" />
  <path d="M373.797 7.89231L375.881 8.47108L373.797 9.04985C373.042 9.25937 372.36 9.68749 371.832 10.2839C371.304 10.8804 370.951 11.6205 370.815 12.4172L370.027 16.9422L369.247 12.4172C369.111 11.6205 368.758 10.8804 368.23 10.2839C367.702 9.68749 367.02 9.25937 366.265 9.04985L364.181 8.47108L366.265 7.89231C367.021 7.68117 367.703 7.25144 368.231 6.65348C368.759 6.05552 369.112 5.31411 369.247 4.51616L370.027 0L370.815 4.52492C370.952 5.32129 371.305 6.06082 371.833 6.65711C372.361 7.2534 373.042 7.68182 373.797 7.89231Z" fill="#FBFFFF" />
  <path d="M341.662 97.8559L343.746 98.4347L341.662 99.0135C340.908 99.2239 340.226 99.6524 339.698 100.249C339.17 100.845 338.817 101.584 338.68 102.381L337.9 106.915L337.113 102.381C336.975 101.584 336.622 100.845 336.094 100.249C335.566 99.6524 334.885 99.2239 334.13 99.0135L332.046 98.4347L334.13 97.8559C334.885 97.6454 335.566 97.217 336.094 96.6207C336.622 96.0244 336.975 95.2849 337.113 94.4885L337.9 89.9548L338.68 94.4885C338.817 95.2849 339.17 96.0244 339.698 96.6207C340.226 97.217 340.908 97.6454 341.662 97.8559Z" fill="#FBFFFF" />
  <path d="M189.91 17.9769L191.299 18.3628L189.91 18.7486C189.4 18.8943 188.942 19.1882 188.589 19.5954C188.236 20.0027 188.004 20.5062 187.919 21.0462L187.394 24.0628L186.877 21.0462C186.785 20.5141 186.549 20.02 186.196 19.6211C185.844 19.2222 185.39 18.9349 184.886 18.7925L183.496 18.4066L184.886 18.0208C185.388 17.879 185.842 17.593 186.194 17.1958C186.547 16.7986 186.783 16.3063 186.877 15.7759L187.394 12.7505L187.919 15.7759C188.02 16.2983 188.259 16.7813 188.611 17.1702C188.963 17.5591 189.413 17.8385 189.91 17.9769Z" fill="#FBFFFF" />
  <path d="M286.478 30.4153L288.554 30.994L286.478 31.5728C285.722 31.7835 285.038 32.2129 284.509 32.8108C283.979 33.4087 283.625 34.1503 283.488 34.949L282.708 39.4739L281.929 34.949C281.792 34.1526 281.439 33.4131 280.91 32.8168C280.382 32.2205 279.701 31.7921 278.947 31.5816L276.863 31.0028L278.947 30.424C279.702 30.2145 280.383 29.7864 280.912 29.1899C281.44 28.5935 281.793 27.8534 281.929 27.0567L282.708 22.5317L283.488 27.0567C283.627 27.8525 283.982 28.591 284.512 29.1857C285.041 29.7804 285.723 30.2069 286.478 30.4153Z" fill="#FBFFFF" />
  <path d="M56.2649 31.3425L54.1807 31.9213L56.2649 32.5C57.0194 32.7105 57.7006 33.1389 58.2286 33.7352C58.7567 34.3315 59.11 35.071 59.2471 35.8674L60.0265 40.4011L60.8144 35.8674C60.9515 35.071 61.3047 34.3315 61.8328 33.7352C62.3609 33.1389 63.042 32.7105 63.7966 32.5L65.8807 31.9213L63.7966 31.3425C63.042 31.132 62.3609 30.7036 61.8328 30.1073C61.3047 29.511 60.9515 28.7715 60.8144 27.9751L60.0265 23.4414L59.2471 27.9751C59.11 28.7715 58.7567 29.511 58.2286 30.1073C57.7006 30.7036 57.0194 31.132 56.2649 31.3425Z" fill="#FBFFFF" />
</svg>