<svg width="1091" height="820" viewBox="0 0 1091 820" fill="none" xmlns="http://www.w3.org/2000/svg">
<path d="M62.495 660C41.5186 660 20.5907 662.084 0 666.224L0 820H340C310.788 771.067 269.952 730.677 221.379 702.671C172.806 674.665 118.11 659.976 62.495 660Z" fill="#597FD3"/>
<path d="M0 666.208V780.627C10.1475 783.724 25.2786 786.25 40.0084 780.827C65.4808 771.451 54.6689 757.709 74.9222 750.859C95.1756 744.009 110.334 741.084 109.725 718.751C109.116 696.418 89.7212 687.927 115.18 683.76C131.792 681.049 142.95 677.809 149 671.973C100.423 658.273 49.4365 656.3 0 666.208Z" fill="#46B17B"/>
<path d="M254.265 784.528C239.963 773.373 233.297 781.995 218.703 784.528C204.109 787.061 193.166 770.157 167.019 776.389C152.147 779.932 133.942 801.787 121 820H333C319.017 806.44 303.839 808.276 294.355 810.268C281.219 813 268.568 795.698 254.265 784.528Z" fill="#46B17B"/>
<path opacity="0.5" d="M65.6195 201.168C57.5537 200.996 43.3396 214.61 39.0319 220.855C33.4076 229.005 33.1264 236.031 33.9189 245.133C35.0949 257.822 36.4754 261.54 49.8587 265.138C60.4298 267.983 66.9105 276.861 77.4177 279.229C92.1814 282.563 107.341 274.837 121.441 272.018C137.189 268.883 140.704 279.256 154.228 282.497C167.33 285.62 182.656 278.66 196.474 280.049C210.534 281.465 220.965 289.721 234.259 290.766C246.018 291.679 254.8 290.277 263.173 299.684C272.874 310.586 261.805 317.691 251.758 323.711C226.602 338.821 201.037 356.656 173.529 367.002C160.568 371.871 146.878 372.294 133.903 376.356C120.929 380.418 110.972 391.572 99.5569 398.716C87.1579 406.469 71.5633 408.375 59.8546 416.684C47.5323 425.429 40.5658 441.438 37.971 456.125C34.9799 473.1 36.9739 485.589 48.1969 498.463C59.241 511.125 57.5665 522.278 61.9764 538.155C65.5428 551.016 72.8927 563.624 84.8443 569.816C100.183 577.755 109.233 568.361 123.946 567.938C138.659 567.514 149.511 587.162 180.457 582.769L228.698 507.354L214.791 496.214C205.843 484.452 222.933 468.363 222.46 454.338C221.872 435.67 211.877 436.252 200.423 426.554C174.194 404.154 210.419 377.693 227.586 367.267C251.796 352.594 282.142 355.28 305.636 337.537C314.302 331.001 325.116 318.816 325.18 306.948C325.27 289.509 312.168 288.173 299.5 287.882C291.46 287.697 286.219 286.559 280.237 280.976C278.499 279.348 277.093 276.543 275.047 275.141C270.983 272.362 268.03 274.506 264.17 272.561C259.696 270.312 259.376 265.482 256.5 261.751C251.234 254.951 246.964 256.128 239.461 254.924C225.733 252.728 223.368 237.605 208.106 236.256C191.373 234.774 179.882 244.591 164.748 248.904C148.348 253.575 130.299 243.387 113.209 245.623C97.8696 247.621 81.981 260.984 67 252.979C55.0611 246.602 40.3741 246.695 43.9915 228.767C45.6516 221.688 49.3945 215.317 54.7032 210.535C57.8733 207.677 64.469 205.693 65.6195 201.168Z" fill="#FBFFFF"/>
<path d="M174.654 501.175L178.668 502.3L174.654 503.411C173.196 503.821 171.879 504.649 170.856 505.801C169.834 506.953 169.147 508.382 168.877 509.921L167.368 518.679L165.86 509.921C165.602 508.382 164.927 506.95 163.913 505.793C162.899 504.636 161.588 503.8 160.133 503.385L156.107 502.273L160.133 501.149C161.592 500.741 162.908 499.913 163.929 498.76C164.95 497.608 165.633 496.178 165.898 494.639L167.407 485.88L168.915 494.639C169.178 496.178 169.857 497.609 170.873 498.765C171.888 499.922 173.199 500.757 174.654 501.175Z" fill="#FBFFFF"/>
<path d="M229.248 327.931L233.262 329.056L229.248 330.181C227.787 330.586 226.468 331.413 225.445 332.566C224.422 333.719 223.737 335.149 223.47 336.69L221.962 345.436L220.454 336.677C220.19 335.137 219.507 333.707 218.486 332.554C217.465 331.401 216.148 330.573 214.689 330.167L210.662 329.043L214.689 327.918C216.149 327.515 217.468 326.688 218.49 325.535C219.511 324.381 220.193 322.95 220.454 321.409L221.962 312.663L223.47 321.409C223.733 322.953 224.417 324.387 225.44 325.542C226.464 326.698 227.785 327.527 229.248 327.931Z" fill="#FBFFFF"/>
<path d="M177.223 267.031L181.237 268.155L177.223 269.28C175.763 269.685 174.443 270.512 173.42 271.665C172.397 272.818 171.712 274.248 171.446 275.789L169.937 284.548L168.429 275.816C168.165 274.276 167.483 272.846 166.462 271.693C165.441 270.54 164.123 269.712 162.664 269.306L158.638 268.182L162.664 267.057C164.125 266.654 165.444 265.827 166.465 264.674C167.487 263.52 168.168 262.089 168.429 260.548L169.937 251.802L171.446 260.548C171.715 262.084 172.402 263.51 173.425 264.658C174.448 265.806 175.765 266.629 177.223 267.031Z" fill="#FBFFFF"/>
<path d="M350.963 286.717L354.107 287.59L350.963 288.464C349.824 288.781 348.797 289.427 348 290.327C347.203 291.227 346.67 292.343 346.463 293.544L345.287 300.384L344.111 293.544C343.899 292.343 343.363 291.228 342.564 290.329C341.766 289.43 340.738 288.783 339.599 288.464L336.531 287.59L339.663 286.717C340.802 286.397 341.83 285.751 342.628 284.851C343.427 283.952 343.963 282.838 344.175 281.636L345.351 274.796L346.527 281.636C346.729 282.83 347.252 283.94 348.037 284.839C348.822 285.738 349.836 286.389 350.963 286.717Z" fill="#FBFFFF"/>
<path d="M58.832 450.461L61.9765 451.335L58.832 452.208C57.6935 452.525 56.6658 453.172 55.8691 454.072C55.0723 454.971 54.5394 456.087 54.3326 457.289L53.1566 464.116L51.9806 457.289C51.7684 456.087 51.2321 454.973 50.4336 454.073C49.6351 453.174 48.6071 452.528 47.4684 452.208L44.3367 451.335L47.4684 450.461C48.6088 450.141 49.638 449.492 50.4366 448.59C51.2352 447.689 51.7706 446.571 51.9806 445.368L53.1566 438.541L54.3326 445.368C54.5372 446.572 55.0691 447.69 55.866 448.592C56.6629 449.495 57.6918 450.143 58.832 450.461Z" fill="#FBFFFF"/>
<path d="M200.59 228.33C200.587 228.877 200.428 229.41 200.133 229.863C199.838 230.316 199.42 230.668 198.932 230.876C198.443 231.083 197.906 231.136 197.389 231.028C196.872 230.92 196.397 230.655 196.025 230.268C195.652 229.881 195.399 229.388 195.297 228.852C195.195 228.316 195.249 227.76 195.451 227.256C195.654 226.751 195.996 226.32 196.435 226.017C196.874 225.714 197.39 225.552 197.918 225.552C198.628 225.556 199.307 225.85 199.808 226.37C200.309 226.891 200.59 227.596 200.59 228.33Z" fill="#FBFFFF"/>
<path d="M139.59 146.33C139.587 146.877 139.428 147.41 139.133 147.863C138.838 148.316 138.42 148.668 137.932 148.876C137.443 149.083 136.906 149.136 136.389 149.028C135.872 148.92 135.397 148.655 135.025 148.268C134.652 147.881 134.399 147.388 134.297 146.852C134.195 146.316 134.249 145.76 134.451 145.256C134.654 144.751 134.996 144.32 135.435 144.017C135.874 143.714 136.39 143.552 136.918 143.552C137.628 143.556 138.307 143.85 138.808 144.37C139.309 144.891 139.59 145.596 139.59 146.33Z" fill="#FBFFFF"/>
<path d="M292.59 82.3305C292.587 82.8768 292.428 83.4101 292.133 83.8631C291.838 84.3161 291.42 84.6685 290.932 84.8757C290.443 85.083 289.906 85.1359 289.389 85.0277C288.872 84.9195 288.397 84.6551 288.025 84.2679C287.652 83.8806 287.399 83.3879 287.297 82.8519C287.195 82.3158 287.249 81.7605 287.451 81.256C287.654 80.7515 287.996 80.3204 288.435 80.0171C288.874 79.7139 289.39 79.552 289.918 79.552C290.628 79.5555 291.307 79.8498 291.808 80.3705C292.309 80.8911 292.59 81.5959 292.59 82.3305Z" fill="#FBFFFF"/>
<path d="M419.59 193.33C419.587 193.877 419.428 194.41 419.133 194.863C418.838 195.316 418.42 195.668 417.932 195.876C417.443 196.083 416.906 196.136 416.389 196.028C415.872 195.92 415.397 195.655 415.025 195.268C414.652 194.881 414.399 194.388 414.297 193.852C414.195 193.316 414.249 192.76 414.451 192.256C414.654 191.751 414.996 191.32 415.435 191.017C415.874 190.714 416.39 190.552 416.918 190.552C417.628 190.556 418.307 190.85 418.808 191.37C419.309 191.891 419.59 192.596 419.59 193.33Z" fill="#FBFFFF"/>
<path d="M1090.34 68.7785C1090.34 69.3248 1090.18 69.8581 1089.89 70.3111C1089.59 70.7641 1089.17 71.1165 1088.69 71.3237C1088.2 71.531 1087.66 71.5839 1087.14 71.4757C1086.63 71.3675 1086.15 71.1031 1085.78 70.7159C1085.41 70.3286 1085.15 69.8359 1085.05 69.2998C1084.95 68.7638 1085 68.2085 1085.2 67.704C1085.41 67.1995 1085.75 66.7684 1086.19 66.4651C1086.63 66.1619 1087.14 66 1087.67 66C1088.38 66.0035 1089.06 66.2978 1089.56 66.8185C1090.06 67.3391 1090.34 68.0439 1090.34 68.7785Z" fill="#FBFFFF"/>
<path d="M738.343 209.778C738.341 210.325 738.182 210.858 737.887 211.311C737.592 211.764 737.173 212.116 736.685 212.324C736.197 212.531 735.66 212.584 735.143 212.476C734.625 212.368 734.15 212.103 733.778 211.716C733.406 211.329 733.152 210.836 733.05 210.3C732.948 209.764 733.002 209.208 733.205 208.704C733.407 208.199 733.75 207.768 734.189 207.465C734.628 207.162 735.144 207 735.672 207C736.381 207.003 737.061 207.298 737.561 207.818C738.062 208.339 738.343 209.044 738.343 209.778Z" fill="#FBFFFF"/>
<path d="M187.871 251.775C187.874 252.326 187.718 252.865 187.424 253.324C187.13 253.783 186.711 254.141 186.22 254.353C185.729 254.565 185.188 254.621 184.666 254.514C184.145 254.407 183.665 254.143 183.289 253.753C182.913 253.364 182.657 252.867 182.554 252.327C182.45 251.787 182.505 251.227 182.709 250.719C182.914 250.211 183.26 249.777 183.704 249.473C184.147 249.168 184.668 249.007 185.2 249.01C185.907 249.014 186.585 249.306 187.085 249.824C187.585 250.342 187.868 251.043 187.871 251.775Z" fill="#FDCE64"/>
<path d="M130.721 250.055C131.759 250.055 132.6 249.184 132.6 248.11C132.6 247.036 131.759 246.165 130.721 246.165C129.683 246.165 128.842 247.036 128.842 248.11C128.842 249.184 129.683 250.055 130.721 250.055Z" fill="#FDCE64"/>
<path d="M100.541 251.775C100.541 252.162 100.43 252.541 100.222 252.863C100.014 253.185 99.719 253.436 99.3733 253.584C99.0277 253.732 98.6473 253.771 98.2803 253.696C97.9133 253.62 97.5762 253.434 97.3117 253.16C97.0471 252.886 96.8669 252.537 96.7939 252.157C96.7209 251.777 96.7584 251.384 96.9016 251.026C97.0448 250.668 97.2872 250.362 97.5983 250.147C97.9094 249.932 98.2752 249.817 98.6494 249.817C98.8983 249.815 99.1451 249.865 99.3753 249.962C99.6056 250.06 99.8149 250.204 99.9909 250.387C100.167 250.569 100.306 250.785 100.401 251.024C100.495 251.262 100.543 251.517 100.541 251.775Z" fill="#FBFFFF"/>
<path d="M150.214 236.096C151.548 236.096 152.63 234.977 152.63 233.596C152.63 232.215 151.548 231.095 150.214 231.095C148.88 231.095 147.798 232.215 147.798 233.596C147.798 234.977 148.88 236.096 150.214 236.096Z" fill="#FBFFFF"/>
<path d="M243.066 236.097H236.892V242.487H243.066V236.097Z" fill="#FDCE64"/>
<path d="M152.272 272.799H145.178V280.142H152.272V272.799Z" fill="#7BC9EF"/>
<path d="M269.82 273.249H262.726V280.592H269.82V273.249Z" fill="#EF7F7E"/>
<path d="M92.2585 449.549C93.6563 449.549 94.7894 448.376 94.7894 446.929C94.7894 445.482 93.6563 444.31 92.2585 444.31C90.8607 444.31 89.7275 445.482 89.7275 446.929C89.7275 448.376 90.8607 449.549 92.2585 449.549Z" fill="#FDCE64"/>
<path d="M217.258 458.082C217.258 458.59 217.113 459.086 216.84 459.508C216.568 459.93 216.18 460.259 215.727 460.454C215.274 460.648 214.775 460.699 214.294 460.6C213.813 460.501 213.371 460.256 213.025 459.897C212.678 459.538 212.442 459.081 212.346 458.583C212.25 458.085 212.299 457.569 212.487 457.1C212.675 456.631 212.993 456.23 213.4 455.948C213.808 455.666 214.288 455.515 214.778 455.515C215.104 455.514 215.427 455.579 215.729 455.707C216.031 455.836 216.305 456.025 216.535 456.263C216.766 456.502 216.949 456.786 217.073 457.098C217.197 457.41 217.26 457.745 217.258 458.082Z" fill="#FDCE64"/>
<path d="M139.809 510.463C139.809 511.361 139.552 512.238 139.07 512.984C138.588 513.731 137.904 514.312 137.103 514.656C136.301 514.999 135.42 515.089 134.569 514.914C133.719 514.739 132.938 514.307 132.324 513.672C131.711 513.037 131.294 512.229 131.125 511.348C130.955 510.468 131.042 509.556 131.374 508.726C131.706 507.897 132.268 507.188 132.989 506.69C133.71 506.191 134.558 505.925 135.425 505.925C136.001 505.923 136.572 506.039 137.104 506.267C137.637 506.494 138.121 506.828 138.529 507.25C138.936 507.672 139.259 508.173 139.479 508.724C139.698 509.276 139.811 509.867 139.809 510.463Z" fill="#FDCE64"/>
<path d="M163.457 536.964C163.457 537.563 163.285 538.149 162.963 538.647C162.642 539.146 162.185 539.534 161.65 539.763C161.115 539.993 160.526 540.053 159.958 539.936C159.391 539.819 158.869 539.53 158.46 539.107C158.05 538.683 157.771 538.143 157.659 537.555C157.546 536.968 157.604 536.358 157.825 535.805C158.047 535.251 158.422 534.778 158.903 534.445C159.385 534.112 159.951 533.934 160.529 533.934C161.306 533.934 162.05 534.254 162.599 534.822C163.148 535.39 163.457 536.161 163.457 536.964Z" fill="#FBFFFF"/>
<path d="M75.1169 425.058C75.1169 425.582 74.967 426.093 74.686 426.528C74.4051 426.963 74.0059 427.303 73.5387 427.503C73.0716 427.703 72.5576 427.756 72.0617 427.653C71.5657 427.551 71.1102 427.299 70.7527 426.929C70.3952 426.559 70.1517 426.088 70.053 425.574C69.9544 425.061 70.005 424.529 70.1985 424.046C70.392 423.562 70.7197 423.149 71.1401 422.858C71.5605 422.567 72.0548 422.412 72.5604 422.412C72.8985 422.403 73.2349 422.465 73.549 422.595C73.8632 422.725 74.1485 422.919 74.3877 423.167C74.6268 423.414 74.8148 423.71 74.9402 424.035C75.0656 424.36 75.1257 424.708 75.1169 425.058Z" fill="#FBFFFF"/>
<path d="M213.206 356.629C214.611 356.629 215.75 355.45 215.75 353.996C215.75 352.542 214.611 351.363 213.206 351.363C211.801 351.363 210.662 352.542 210.662 353.996C210.662 355.45 211.801 356.629 213.206 356.629Z" fill="#FBFFFF"/>
<path d="M317.562 314.515C317.562 315.102 317.394 315.676 317.079 316.163C316.764 316.651 316.316 317.031 315.792 317.255C315.268 317.479 314.691 317.537 314.136 317.421C313.58 317.306 313.07 317.022 312.67 316.606C312.27 316.191 311.998 315.661 311.889 315.086C311.78 314.51 311.839 313.913 312.057 313.372C312.276 312.831 312.645 312.369 313.118 312.045C313.59 311.721 314.145 311.549 314.712 311.552C315.469 311.555 316.194 311.869 316.728 312.424C317.262 312.98 317.562 313.732 317.562 314.515Z" fill="#FDCE64"/>
<path d="M290.795 315.997C290.795 316.29 290.711 316.577 290.554 316.82C290.397 317.064 290.173 317.254 289.912 317.366C289.65 317.478 289.362 317.508 289.084 317.45C288.807 317.393 288.552 317.252 288.351 317.045C288.151 316.838 288.015 316.574 287.96 316.286C287.904 315.999 287.933 315.701 288.041 315.43C288.149 315.159 288.333 314.928 288.568 314.765C288.804 314.602 289.081 314.515 289.364 314.515C289.743 314.515 290.108 314.671 290.376 314.949C290.645 315.227 290.795 315.604 290.795 315.997Z" fill="#FBFFFF"/>
<path d="M293.518 272.375C293.518 272.802 293.396 273.219 293.167 273.574C292.938 273.928 292.613 274.205 292.232 274.368C291.851 274.531 291.433 274.574 291.028 274.491C290.624 274.407 290.253 274.202 289.962 273.9C289.67 273.599 289.472 273.214 289.391 272.796C289.311 272.378 289.352 271.944 289.51 271.55C289.668 271.156 289.935 270.819 290.277 270.582C290.62 270.345 291.023 270.219 291.435 270.219C291.709 270.217 291.981 270.272 292.234 270.379C292.488 270.487 292.718 270.646 292.912 270.847C293.106 271.047 293.259 271.286 293.363 271.548C293.467 271.81 293.52 272.092 293.518 272.375Z" fill="#FBFFFF"/>
<path d="M213.819 377.692L231.408 343.173C231.408 343.173 234.386 336.558 241.315 337.881C248.243 339.204 266.637 347.394 266.637 347.394C266.637 347.394 271.456 351.641 270.471 356.179C269.653 359.937 254.928 388.475 249.84 398.279C248.916 400.09 247.43 401.527 245.622 402.359C243.814 403.192 241.789 403.372 239.87 402.871C239.308 402.73 238.756 402.544 238.221 402.315C233.645 400.396 221.604 392.683 216.325 389.216C215.179 388.485 214.239 387.455 213.599 386.229C212.96 385.002 212.643 383.623 212.682 382.231C212.739 380.65 213.127 379.102 213.819 377.692Z" fill="#5B6CB1"/>
<path d="M266.573 347.447L244.395 393.754C244.035 394.513 243.528 395.187 242.907 395.735C242.285 396.284 241.562 396.695 240.781 396.942C240 397.19 239.179 397.27 238.367 397.177C237.555 397.084 236.77 396.819 236.061 396.4L217.041 385.035C215.815 384.303 214.888 383.134 214.431 381.747C213.975 380.36 214.021 378.848 214.561 377.494" stroke="#FBFFFF" stroke-width="2" stroke-linecap="round" stroke-linejoin="round"/>
<path d="M235.025 345.105L228.66 357.846L250.454 366.777L257.804 353.599L235.025 345.105Z" fill="#C1D57E"/>
<path d="M230.437 366.433C230.395 367.075 230.17 367.69 229.791 368.2C229.411 368.71 228.894 369.092 228.305 369.298C227.716 369.504 227.081 369.524 226.48 369.356C225.88 369.189 225.341 368.841 224.932 368.356C224.523 367.871 224.261 367.272 224.181 366.634C224.101 365.995 224.206 365.347 224.481 364.77C224.757 364.193 225.192 363.714 225.731 363.393C226.27 363.072 226.889 362.923 227.51 362.967C227.922 362.993 228.326 363.105 228.697 363.294C229.068 363.483 229.399 363.746 229.671 364.068C229.943 364.391 230.151 364.766 230.282 365.171C230.414 365.577 230.466 366.006 230.437 366.433Z" fill="#FBFFFF"/>
<path d="M238.605 370.27C238.563 370.912 238.338 371.527 237.959 372.037C237.579 372.547 237.062 372.929 236.473 373.135C235.884 373.341 235.249 373.361 234.648 373.194C234.048 373.026 233.509 372.678 233.1 372.193C232.691 371.708 232.429 371.109 232.349 370.471C232.269 369.833 232.374 369.184 232.649 368.607C232.925 368.03 233.36 367.551 233.899 367.23C234.438 366.909 235.057 366.761 235.678 366.804C236.09 366.832 236.492 366.945 236.863 367.134C237.233 367.324 237.563 367.587 237.835 367.909C238.107 368.231 238.315 368.605 238.447 369.01C238.579 369.415 238.633 369.844 238.605 370.27Z" fill="#FBFFFF"/>
<path d="M246.977 374.544C246.935 375.186 246.71 375.801 246.331 376.311C245.952 376.821 245.434 377.203 244.845 377.408C244.256 377.614 243.621 377.635 243.021 377.467C242.42 377.299 241.881 376.951 241.472 376.467C241.063 375.982 240.802 375.383 240.722 374.744C240.641 374.106 240.746 373.457 241.022 372.881C241.298 372.304 241.733 371.824 242.272 371.503C242.811 371.182 243.429 371.034 244.05 371.077C244.462 371.106 244.865 371.218 245.235 371.408C245.605 371.597 245.936 371.861 246.207 372.183C246.479 372.505 246.687 372.879 246.819 373.284C246.951 373.689 247.005 374.117 246.977 374.544Z" fill="#FBFFFF"/>
<path d="M225.324 375.046C225.282 375.688 225.057 376.303 224.677 376.813C224.298 377.323 223.781 377.705 223.192 377.911C222.603 378.117 221.968 378.137 221.367 377.97C220.767 377.802 220.228 377.454 219.819 376.969C219.409 376.485 219.148 375.885 219.068 375.247C218.988 374.609 219.092 373.96 219.368 373.383C219.644 372.806 220.079 372.327 220.618 372.006C221.157 371.685 221.776 371.537 222.396 371.58C222.809 371.608 223.211 371.721 223.581 371.91C223.952 372.1 224.282 372.363 224.554 372.685C224.826 373.007 225.034 373.381 225.166 373.787C225.298 374.192 225.351 374.62 225.324 375.046Z" fill="#FBFFFF"/>
<path d="M233.505 378.91C233.463 379.552 233.238 380.167 232.859 380.677C232.479 381.187 231.962 381.569 231.373 381.774C230.784 381.98 230.149 382.001 229.548 381.833C228.948 381.665 228.409 381.317 228 380.833C227.591 380.348 227.329 379.749 227.249 379.11C227.169 378.472 227.273 377.823 227.549 377.246C227.825 376.67 228.26 376.19 228.799 375.869C229.338 375.548 229.957 375.4 230.578 375.443C230.99 375.472 231.392 375.584 231.763 375.774C232.133 375.963 232.463 376.227 232.735 376.549C233.007 376.871 233.215 377.245 233.347 377.65C233.479 378.055 233.533 378.483 233.505 378.91Z" fill="#FBFFFF"/>
<path d="M241.941 383.183C241.899 383.825 241.674 384.44 241.295 384.95C240.915 385.46 240.398 385.842 239.809 386.048C239.22 386.254 238.585 386.274 237.985 386.106C237.384 385.939 236.845 385.591 236.436 385.106C236.027 384.621 235.766 384.022 235.685 383.384C235.605 382.745 235.71 382.097 235.986 381.52C236.262 380.943 236.696 380.464 237.235 380.143C237.775 379.822 238.393 379.673 239.014 379.717C239.426 379.745 239.829 379.857 240.199 380.047C240.569 380.237 240.899 380.5 241.171 380.822C241.443 381.144 241.651 381.518 241.783 381.923C241.915 382.328 241.969 382.756 241.941 383.183Z" fill="#EF7F7E"/>
<path d="M92.8338 436.556C92.0744 437.085 91.4321 437.775 90.9494 438.58C90.4668 439.385 90.1547 440.287 90.0339 441.227C89.9131 442.166 89.9862 443.121 90.2485 444.029C90.5109 444.936 90.9563 445.776 91.5556 446.492L125.122 486.41C126.095 487.588 127.437 488.375 128.914 488.634C130.39 488.892 131.907 488.606 133.201 487.825C142.685 482.202 164.339 469.871 173.057 469.196C173.057 469.196 184.382 471.221 188.907 461.867C188.907 461.867 202.814 446.797 222.665 441.174C223.326 440.99 223.928 440.631 224.412 440.132C224.897 439.633 225.246 439.011 225.426 438.328C225.605 437.645 225.609 436.926 225.437 436.241C225.264 435.557 224.921 434.931 224.442 434.426L186.312 394.257C185.009 392.877 183.312 391.966 181.471 391.658C179.63 391.351 177.742 391.664 176.086 392.551L92.8338 436.556Z" fill="#6D86CC"/>
<path d="M92.8338 436.556C92.0744 437.085 91.4321 437.775 90.9494 438.58C90.4668 439.385 90.1547 440.287 90.0339 441.227C89.9131 442.166 89.9862 443.121 90.2485 444.029C90.5109 444.936 90.9563 445.776 91.5556 446.492L125.122 486.41C126.095 487.588 127.437 488.375 128.914 488.634C130.39 488.892 131.907 488.606 133.201 487.825C142.685 482.202 164.339 469.871 173.057 469.196C173.057 469.196 184.382 471.221 188.907 461.867C188.907 461.867 202.814 446.797 222.665 441.174C223.326 440.99 223.928 440.631 224.412 440.132C224.897 439.633 225.246 439.011 225.426 438.328C225.605 437.645 225.609 436.926 225.437 436.241C225.264 435.557 224.921 434.931 224.442 434.426L186.312 394.257C185.009 392.877 183.312 391.966 181.471 391.658C179.63 391.351 177.742 391.664 176.086 392.551L92.8338 436.556Z" stroke="#070000" stroke-width="2" stroke-linecap="round" stroke-linejoin="round"/>
<path d="M100.375 414.434L90.814 404.471C90.814 404.471 97.5248 396.533 107.15 396.863L114.5 405.649L100.375 414.434Z" fill="#46B17B"/>
<path d="M86.7747 422.677C86.7747 422.677 95.0705 407.449 108.096 403.546C116.191 401.196 124.667 400.597 132.996 401.786C132.996 401.786 149.907 371.818 180.585 378.5L220.364 420.838V435.286C220.364 435.286 199.12 439.652 184.688 455.132L173.376 460.636C173.376 460.636 153.013 460.636 130.9 482.904L93.5749 439.626L86.7747 422.677Z" fill="#F8B193"/>
<path d="M132.996 401.746L175.242 444.904" stroke="#EF7F7E" stroke-width="2" stroke-linecap="round" stroke-linejoin="round"/>
<path d="M130.887 482.969C153.001 460.702 173.363 460.702 173.363 460.702L184.676 455.198C199.107 439.691 220.351 435.352 220.351 435.352V420.904C196.282 423.246 175.293 447.987 175.293 447.987C152.847 443.449 126.439 465.716 126.439 465.716L86.7747 422.677L93.5621 439.731L130.887 482.969Z" fill="#EF7F7E"/>
<path d="M126.387 465.69L130.887 482.97" stroke="#F8B193" stroke-width="2" stroke-linecap="round" stroke-linejoin="round"/>
<path d="M132.996 469.196C132.996 469.196 154.112 450.858 177.031 455.198" stroke="#F8B193" stroke-width="2" stroke-linecap="round" stroke-linejoin="round"/>
<path d="M184.113 447.961C184.113 447.961 198.877 430.84 220.351 427.466" stroke="#F8B193" stroke-width="2" stroke-linecap="round" stroke-linejoin="round"/>
<path d="M90.814 432.759L128.637 474.33" stroke="#F8B193" stroke-width="2" stroke-linecap="round" stroke-linejoin="round"/>
<path d="M113.643 442.074L125.544 455.198L139.4 447.961L126.515 434.876L113.643 442.074Z" fill="#46B17B"/>
<path d="M95.9783 419.845C100.296 415.483 105.404 412.048 111.009 409.736C116.614 407.425 122.605 406.283 128.637 406.376" stroke="#EF7F7E" stroke-width="2" stroke-linecap="round" stroke-linejoin="round"/>
<path d="M121.543 417.385C125.545 416.057 129.694 415.266 133.891 415.03" stroke="#EF7F7E" stroke-width="2" stroke-linecap="round" stroke-linejoin="round"/>
<path d="M102.612 427.466C105.863 424.894 109.363 422.677 113.056 420.851" stroke="#EF7F7E" stroke-width="2" stroke-linecap="round" stroke-linejoin="round"/>
<path d="M108.428 434.875C112.851 431.402 117.901 428.883 123.281 427.466" stroke="#EF7F7E" stroke-width="2" stroke-linecap="round" stroke-linejoin="round"/>
<path d="M136.575 432.759L149.869 428.34" stroke="#EF7F7E" stroke-width="2" stroke-linecap="round" stroke-linejoin="round"/>
<path d="M140.269 437.72L153.563 433.301" stroke="#EF7F7E" stroke-width="2" stroke-linecap="round" stroke-linejoin="round"/>
<path d="M144.488 443.528L157.781 439.109" stroke="#EF7F7E" stroke-width="2" stroke-linecap="round" stroke-linejoin="round"/>
<path d="M162.038 413.111C162.038 413.111 175.331 400.079 190.338 398.028" stroke="#EF7F7E" stroke-width="2" stroke-linecap="round" stroke-linejoin="round"/>
<path d="M165.438 423.325C165.438 423.325 183.257 406.059 198.25 404.008" stroke="#EF7F7E" stroke-width="2" stroke-linecap="round" stroke-linejoin="round"/>
<path d="M160.619 387.787C160.619 387.787 169.861 383.13 177.032 382.773" stroke="#EF7F7E" stroke-width="2" stroke-linecap="round" stroke-linejoin="round"/>
<path d="M165.438 394.072C165.438 394.072 174.679 389.415 181.85 389.058" stroke="#EF7F7E" stroke-width="2" stroke-linecap="round" stroke-linejoin="round"/>
<path d="M143.222 399.761L153.563 409.155L164.019 401.746L153.563 390.42L143.222 399.761Z" fill="#7BC9EF"/>
<path d="M132.817 361.935L143.989 319.768C143.989 319.768 147.824 315.376 154.88 317.122C161.936 318.869 160.964 326.212 160.964 326.212L151.914 368.96L139.464 378.222L132.817 361.935Z" fill="#FDCE64"/>
<path d="M154.879 317.122C147.811 315.376 143.989 319.768 143.989 319.768L140.154 334.322C146.929 333.131 151.927 334.15 158.318 338.807L160.977 326.251C160.977 326.251 161.961 318.882 154.879 317.122Z" fill="#EF7F7E"/>
<path d="M158.305 338.767L159.647 332.443C154.287 329.054 148 327.58 141.752 328.249L140.154 334.282C146.916 333.091 151.914 334.11 158.305 338.767Z" fill="#FBFFFF"/>
<path d="M132.817 361.934L138.761 360.175L147.53 361.934L151.914 368.96L139.464 378.195L132.817 361.934Z" fill="#F8B193"/>
<path d="M136.473 370.879L139.464 378.195L145.676 373.591C142.634 368.815 138.774 369.754 136.473 370.879Z" fill="#070000"/>
<path d="M138.761 360.175L144.692 333.833" stroke="#EF7F7E" stroke-width="2" stroke-linecap="round" stroke-linejoin="round"/>
<path d="M147.53 361.934L153.409 335.777" stroke="#EF7F7E" stroke-width="2" stroke-linecap="round" stroke-linejoin="round"/>
<path d="M283.752 289.165L300.587 293.73L299.871 304.751L275.866 316.394C275.866 316.394 260.91 318.021 259.248 310.837C257.587 303.653 260.706 301.165 260.706 301.165L283.752 289.165Z" fill="#FBFFFF"/>
<path d="M268.605 297.051L285.146 302.621L285.81 311.578L299.871 304.751L300.587 293.73L283.752 289.165L268.605 297.051Z" fill="#EF7F7E"/>
<path d="M260.693 301.165C260.693 301.165 259.133 306.881 268.362 307.9C277.591 308.919 300.625 293.73 300.625 293.73" stroke="#070000" stroke-width="2" stroke-linecap="round" stroke-linejoin="round"/>
<path d="M224.199 266.885L184.727 259.264C184.414 259.201 184.091 259.208 183.781 259.284C183.471 259.36 183.18 259.504 182.927 259.705C182.674 259.907 182.466 260.161 182.316 260.453C182.165 260.744 182.077 261.065 182.055 261.394L178.719 309.025C178.687 309.49 178.791 309.955 179.016 310.36C179.241 310.764 179.578 311.089 179.983 311.294C180.389 311.499 180.844 311.574 181.29 311.509C181.737 311.444 182.155 311.242 182.49 310.93L225.324 270.933C225.64 270.639 225.869 270.26 225.986 269.837C226.103 269.415 226.103 268.967 225.986 268.545C225.868 268.122 225.638 267.743 225.323 267.449C225.007 267.156 224.617 266.96 224.199 266.885ZM189.38 286.4L190.351 272.495C190.373 272.165 190.462 271.844 190.612 271.552C190.762 271.26 190.97 271.005 191.222 270.802C191.475 270.6 191.765 270.455 192.076 270.377C192.386 270.3 192.709 270.291 193.023 270.351L204.527 272.587C204.927 272.676 205.296 272.877 205.595 273.166C205.894 273.456 206.112 273.824 206.225 274.231C206.338 274.638 206.342 275.07 206.236 275.479C206.131 275.889 205.92 276.261 205.626 276.556L193.138 288.239C192.806 288.542 192.396 288.738 191.958 288.802C191.52 288.866 191.073 288.796 190.674 288.6C190.274 288.405 189.938 288.092 189.708 287.701C189.478 287.31 189.364 286.858 189.38 286.4Z" fill="#FDCE64"/>
<path d="M184.062 302.37L187.232 306.498" stroke="#070000" stroke-width="2" stroke-linecap="round" stroke-linejoin="round"/>
<path d="M189.303 297.156L192.473 301.271" stroke="#070000" stroke-width="2" stroke-linecap="round" stroke-linejoin="round"/>
<path d="M195.771 291.772L198.941 295.887" stroke="#070000" stroke-width="2" stroke-linecap="round" stroke-linejoin="round"/>
<path d="M201.446 286.479L204.616 290.607" stroke="#070000" stroke-width="2" stroke-linecap="round" stroke-linejoin="round"/>
<path d="M208.106 279.785L211.276 283.899" stroke="#070000" stroke-width="2" stroke-linecap="round" stroke-linejoin="round"/>
<path d="M213.73 273.831L216.9 277.946" stroke="#070000" stroke-width="2" stroke-linecap="round" stroke-linejoin="round"/>
<path d="M277.783 213.181L243.13 250.2L290.514 254.408L292.496 245.093L312.5 241.018L295.742 228.872L287.843 231.783L290.655 224.731L277.783 213.181Z" fill="#FBFFFF"/>
<path d="M243.13 250.201L287.843 231.783L290.655 224.731L243.13 250.201Z" fill="#070000"/>
<path d="M292.496 245.093L243.13 250.2L290.514 254.408L292.496 245.093Z" fill="#EF7F7E"/>
<path d="M88.8708 345.33C75.053 337.458 56.9913 350.08 56.9913 350.08C56.9913 350.08 47.9286 356.06 45.6661 366.632C44.1066 373.922 50.7791 378.539 56.0454 377.415C61.3118 376.29 66.7955 379.492 62.2705 385.803C57.7455 392.114 60.7622 413.27 79.4374 403.083C98.1125 392.895 102.676 353.189 88.8708 345.33ZM59.2538 370.323C57.8978 370.323 56.5973 369.766 55.6384 368.773C54.6795 367.781 54.1409 366.434 54.1409 365.031C54.1409 363.627 54.6795 362.281 55.6384 361.289C56.5973 360.296 57.8978 359.739 59.2538 359.739C60.6099 359.739 61.9104 360.296 62.8693 361.289C63.8281 362.281 64.3668 363.627 64.3668 365.031C64.3668 366.434 63.8281 367.781 62.8693 368.773C61.9104 369.766 60.6099 370.323 59.2538 370.323Z" fill="#FBFFFF"/>
<path d="M77.546 348.453C76.2677 350.98 73.7112 348.783 71.5893 349.339C69.4674 349.895 68.7772 351.985 68.5599 353.93C68.4714 354.394 68.4733 354.871 68.5654 355.334C68.6576 355.796 68.8382 356.235 69.0966 356.625C69.355 357.014 69.686 357.347 70.0702 357.602C70.4544 357.857 70.8839 358.03 71.3337 358.111C72.2029 358.389 72.6119 358.614 72.9315 359.619C73.0158 360.749 73.1695 361.871 73.3917 362.98C74.1586 365.123 76.7534 365.878 78.7347 366.274C80.716 366.671 83.5026 366.751 85.126 365.256C86.7493 363.761 86.4042 361.062 85.8418 359.064C85.5211 358.058 85.5482 356.968 85.9185 355.981C86.586 354.936 87.0666 353.775 87.3373 352.554C87.5674 349.908 85.1771 348.056 83.1063 347.05C81.5341 346.336 76.5361 345.079 77.546 348.453Z" fill="#EF7F7E"/>
<path d="M71.1673 361.339C71.2642 361.872 71.2005 362.423 70.9848 362.918C70.7691 363.412 70.4119 363.826 69.9615 364.103C69.5111 364.38 68.9893 364.507 68.4667 364.467C67.9441 364.427 67.446 364.222 67.0398 363.88C66.6336 363.537 66.339 363.073 66.1957 362.552C66.0525 362.03 66.0676 361.475 66.2391 360.963C66.4105 360.45 66.73 360.005 67.1542 359.686C67.5784 359.368 68.0869 359.192 68.6108 359.183C68.9156 359.15 69.2237 359.179 69.5174 359.27C69.811 359.361 70.0845 359.511 70.3221 359.711C70.5596 359.911 70.7566 360.158 70.9016 360.438C71.0467 360.717 71.137 361.024 71.1673 361.339Z" fill="#EF7F7E"/>
<path d="M81.2269 371.487C81.2269 371.487 79.2967 371.17 79.0155 371.183C78.5096 371.204 78.0155 371.347 77.5719 371.599C77.1283 371.852 76.7473 372.207 76.459 372.638C76.1935 372.986 75.8609 373.273 75.4823 373.48C75.1038 373.687 74.6876 373.811 74.2604 373.842C73.2362 373.842 72.2139 373.934 71.2054 374.12C69.173 374.808 68.3421 377.891 68.4444 379.862C68.4519 380.908 68.7435 381.93 69.2861 382.812C69.8286 383.694 70.6001 384.401 71.5122 384.85C72.3359 385.138 73.075 385.639 73.6596 386.306C74.2093 387.126 74.2988 388.105 75.0913 388.78C76.8547 390.096 79.0269 390.69 81.1885 390.447C82.2364 390.335 83.2499 389.997 84.1637 389.455C85.0774 388.912 85.871 388.178 86.4932 387.298C87.1384 386.437 87.5882 385.437 87.8095 384.372C88.0307 383.307 88.0178 382.205 87.7715 381.146C87.3072 380.085 86.7098 379.093 85.9947 378.195C85.4658 377.142 85.169 375.981 85.1255 374.795C84.9715 373.849 84.4918 372.993 83.7751 372.385C83.0583 371.777 82.1531 371.458 81.2269 371.487Z" fill="#FDCE64"/>
<path d="M73.8773 392.246C73.8773 394.019 72.7396 396.824 70.7583 396.824C68.7771 396.824 66.7063 394.019 66.7063 392.246C66.8225 391.347 67.2501 390.522 67.9095 389.925C68.569 389.328 69.4155 388.998 70.2918 388.998C71.1681 388.998 72.0146 389.328 72.674 389.925C73.3335 390.522 73.761 391.347 73.8773 392.246Z" fill="#FDCE64"/>
<path d="M79.2842 512.09C76.9184 509.97 75.2117 507.173 74.3792 504.051C73.5467 500.929 73.6255 497.622 74.6058 494.546C77.9165 483.538 93.9457 453.412 103.379 458.4C112.813 463.388 99.6211 504.483 99.6211 504.483C99.6211 504.483 95.927 517.502 85.5604 514.842L79.2842 512.09Z" fill="#94533F"/>
<path d="M89.2929 466.854C87.0027 469.879 84.9021 473.052 83.0039 476.354C87.0304 476.075 91.0661 476.738 94.8106 478.296C98.5551 479.854 101.912 482.265 104.632 485.351C105.431 481.572 106.037 477.752 106.447 473.906C101.581 469.758 95.5823 467.292 89.2929 466.854Z" fill="#FDCE64"/>
<path d="M75.6538 507.354C75.6538 507.354 80.051 502.869 84.7294 505.131C89.4078 507.394 92.3989 510.529 91.8237 514.459L85.5603 525.229L73.0718 519.738L75.6538 507.354Z" fill="#FDCE64"/>
<path d="M83.6173 519.513C83.6173 519.513 75.9478 513.797 69.0708 517.991C62.1939 522.185 62.9864 535.271 55.3169 536.541C55.3169 536.541 65.415 555.897 81.0224 543.818C96.9238 531.513 83.6173 519.513 83.6173 519.513Z" fill="#070000"/>
<path d="M64.8528 547.748C64.8528 547.748 69.6334 547.086 71.8959 544.056" stroke="#FBFFFF" stroke-width="2" stroke-linecap="round" stroke-linejoin="round"/>
<path d="M76.6638 547.946C79.405 545.907 81.6321 543.216 83.1573 540.1" stroke="#FBFFFF" stroke-width="2" stroke-linecap="round" stroke-linejoin="round"/>
<path d="M429.319 539.359C432.669 538.052 435.652 535.904 437.999 533.106C440.347 530.309 441.985 526.952 442.767 523.336L438.088 520.584C438.088 520.584 438.523 530.454 425.472 529.766L429.319 539.359Z" fill="#070000"/>
<path d="M576.445 652.654L608.235 650.736C608.235 650.736 612.786 650.815 614.55 657.047C616.314 663.278 612.952 666.811 608.734 668.213C604.516 669.616 578.401 676.245 578.401 676.245C578.401 676.245 573.007 674.181 570.45 666.123C566.871 654.943 576.445 652.654 576.445 652.654Z" fill="#070000"/>
<path d="M253.65 515.425C277.527 536.422 361.432 599.824 512.508 608.662C512.508 608.662 563.765 650.405 576.42 652.654C576.42 652.654 570.029 662.405 578.376 676.245C578.376 676.245 528.294 705.22 502.588 713.119C502.588 713.119 346.502 722.5 206.559 621.536C201.711 618.048 197.629 613.539 194.582 608.305C186.58 594.532 174.488 566.072 188.6 536.541C199.35 514.049 215.558 507.83 228.098 506.785C237.384 506.049 246.574 509.156 253.65 515.425Z" fill="#FDCE64"/>
<path d="M322.828 560.594C322.828 560.594 338.295 594.676 365.931 602.403L368.692 580.123C353.054 574.531 337.741 568.011 322.828 560.594Z" fill="#070000"/>
<path d="M267.774 567.382C267.774 567.382 380.593 632.212 503.24 638.259" stroke="#070000" stroke-width="2" stroke-linecap="round" stroke-linejoin="round"/>
<path d="M252.167 617.923C252.167 617.923 400.443 695.866 502.563 683.786" stroke="#070000" stroke-width="2" stroke-linecap="round" stroke-linejoin="round"/>
<path d="M253.65 515.425C246.571 509.152 237.376 506.045 228.085 506.785C215.545 507.83 199.337 514.075 188.587 536.541C174.526 566.072 186.567 594.531 194.569 608.305C197.616 613.539 201.698 618.048 206.546 621.535C222.433 632.984 239.002 643.382 256.155 652.667C252.947 639.013 247.553 606.889 259.824 581.446C267.027 566.284 277.241 552.866 289.799 542.071C277.103 534.167 265.018 525.258 253.65 515.425Z" fill="#EF7F7E"/>
<path d="M289.837 542.072C280.204 536.031 270.897 529.45 261.958 522.358C250.454 532.083 234.041 548.952 227.267 570.888C219.597 595.709 224.096 622.065 227.497 635.719C237.041 641.823 246.606 647.468 256.193 652.655C252.985 639 247.591 606.876 259.862 581.433C267.066 566.276 277.28 552.863 289.837 542.072Z" fill="#FBFFFF"/>
<path d="M576.445 652.654C563.765 650.405 512.533 608.662 512.533 608.662C491.928 617.103 503.266 638.259 503.266 638.259C503.266 638.259 493.398 640.614 492.298 656.531C491.199 672.447 502.639 683.786 502.639 683.786C492.26 699.954 502.639 713.119 502.639 713.119C528.345 705.18 578.427 676.244 578.427 676.244C570.029 662.405 576.445 652.654 576.445 652.654Z" fill="#F8B193"/>
<path d="M387.533 461.284C387.533 461.284 379.787 441.755 355.168 447.048C320.553 454.496 281.733 497.748 306.403 504.165C306.403 504.165 295.819 534.265 310.723 555.355C310.723 555.355 315.057 560.779 320.476 560.951C325.896 561.123 347.051 560.62 347.051 560.62L387.533 461.284Z" fill="#46B17B"/>
<path d="M409.136 602.616C409.136 602.616 407.219 617.765 387.943 624.499C368.667 631.234 361.24 624.221 361.24 624.221C362.884 619.507 365.541 615.242 369.011 611.746C372.481 608.251 376.673 605.617 381.27 604.045C397.376 598.223 409.136 602.616 409.136 602.616Z" fill="#070000"/>
<path d="M394.052 598.805C394.052 598.805 407.321 619.313 406.912 634.462C406.503 649.611 383.494 653.157 372.91 645.523C362.326 637.889 347.537 623.216 347.537 623.216C347.537 623.216 333.106 621.006 326.702 609.231C320.298 597.455 350.592 594.333 356.983 596.728C363.375 599.122 365.931 602.404 365.931 602.404L394.052 598.805Z" fill="#94533F"/>
<path d="M356.983 596.728C350.592 594.333 320.31 597.469 326.702 609.231C333.093 620.993 347.588 623.216 347.588 623.216C347.588 623.216 349.084 624.697 351.423 626.96C355.763 626.597 360.001 625.408 363.924 623.454L355.961 610.077C355.961 610.077 363.374 599.109 356.983 596.728Z" fill="#6D86CC"/>
<path d="M337.912 612.036C346.412 612.591 359.642 610.25 366.864 605.725C366.628 604.601 366.329 603.492 365.97 602.404C365.97 602.404 363.413 599.109 357.022 596.728C350.631 594.346 321.793 597.323 326.344 608.41C328.249 610.078 331.7 611.625 337.912 612.036Z" fill="#070000"/>
<path d="M360.243 617.262L371.952 636.764" stroke="#070000" stroke-width="2" stroke-linecap="round" stroke-linejoin="round"/>
<path d="M340.098 567.607C342.313 582.216 346.743 596.371 353.226 609.548L361.24 624.261C361.24 624.261 384.76 604.415 409.136 602.655L403.256 591.091C403.256 591.091 429.051 598.527 450.283 601.544L431.352 567.422L342.348 550.738L340.098 567.607Z" fill="#FBFFFF"/>
<path d="M450.283 601.544L431.352 567.422" stroke="#070000" stroke-width="2" stroke-linecap="round" stroke-linejoin="round"/>
<path d="M360.818 473.59C360.818 473.59 346.348 483.499 344.661 507.659L338.27 566.549C338.27 566.549 379.621 590.139 409.302 586.197C409.302 586.197 430.546 583.378 437.423 570.597L429.843 525.745C445.962 525.805 462.015 523.624 477.573 519.262L464.497 472.452C464.497 472.452 435.519 477.678 415.923 474.45C415.898 474.502 379.557 457.289 360.818 473.59Z" fill="#5B6CB1"/>
<path d="M393.362 539.901C396.392 543.87 391.356 553.225 382.088 560.779C372.821 568.334 362.915 571.205 359.847 567.223C356.779 563.24 361.854 553.899 371.108 546.345C380.363 538.79 390.333 535.919 393.362 539.901Z" fill="#070000"/>
<path d="M478.481 492.364C482.315 504.642 481.485 518.018 477.573 519.315C473.662 520.612 468.076 509.352 464.279 497.074C460.483 484.796 460.572 473.801 464.497 472.504C468.421 471.208 474.672 480.099 478.481 492.364Z" fill="#070000"/>
<path d="M526.146 441.888C530.122 436.807 532.538 429.636 527.821 425.667C523.104 421.698 514.067 439.374 514.067 439.374C501.284 446.413 499.738 453.108 499.738 453.108C488.451 462.647 464.496 472.504 464.496 472.504C454.731 478.325 468.497 508.492 468.497 508.492C468.497 508.492 476.167 507.433 492.49 500.209C508.813 492.985 519.615 476.129 521.442 474.131L521.57 473.986C525.162 474.409 528.907 474.462 530.288 473.152C531.962 471.551 531.387 469.342 529.547 467.251C531.385 466.288 532.967 464.874 534.157 463.133C535.347 461.392 536.107 459.377 536.372 457.262C537.216 449.429 526.146 441.888 526.146 441.888Z" fill="#94533F"/>
<path d="M464.497 472.504C459.869 475.256 460.521 483.446 462.49 491.331C464.734 483.089 468.445 475.353 473.432 468.521C468.191 470.969 464.497 472.504 464.497 472.504Z" fill="#070000"/>
<path d="M521.57 473.986C521.57 473.986 513.185 476.103 508.788 471.67" stroke="#070000" stroke-width="2" stroke-linecap="round" stroke-linejoin="round"/>
<path d="M529.547 467.252C529.547 467.252 519.883 466.312 516.24 460.134" stroke="#070000" stroke-width="2" stroke-linecap="round" stroke-linejoin="round"/>
<path d="M516.419 450.885C520.384 448.846 523.744 445.738 526.146 441.888" stroke="#070000" stroke-width="2" stroke-linecap="round" stroke-linejoin="round"/>
<path d="M530.096 445.169C530.096 445.169 535.133 459.935 524.792 466.22" stroke="#070000" stroke-width="2" stroke-linecap="round" stroke-linejoin="round"/>
<path d="M521.506 447.405C521.506 447.405 525.124 456.164 519.206 463.375" stroke="#070000" stroke-width="2" stroke-linecap="round" stroke-linejoin="round"/>
<path d="M380.784 487.653C380.784 487.653 398.168 515.994 418.812 511.058C418.812 511.058 425.983 506.163 420.781 496.386L425.894 482.678L380.784 487.653Z" fill="#94533F"/>
<path d="M380.784 487.653C382.454 490.306 384.313 492.827 386.345 495.195C407.909 503.133 420.781 496.386 420.781 496.386L425.894 482.678L380.784 487.653Z" fill="#070000"/>
<path d="M420.781 496.386L418.876 502.684" stroke="#070000" stroke-width="2" stroke-linecap="round" stroke-linejoin="round"/>
<path d="M423.452 489.188C423.452 489.188 441.705 507.195 437.845 533.127C437.845 533.127 452.506 519.738 438.689 486.065L423.452 489.188Z" fill="#46B17B"/>
<path d="M488.745 355.862C477.075 327.707 452.047 341.308 452.047 341.308C452.047 341.308 449.848 323.79 434.956 319.477C420.065 315.164 408.778 325.418 408.778 325.418C408.778 325.418 398.731 301.92 372.987 304.897C347.243 307.874 342.923 336.068 342.923 336.068C342.923 336.068 336.876 331.821 332.3 336.703C327.724 341.586 330.396 349.789 330.396 349.789C330.396 349.789 309.42 349.789 305.751 370.204C304.693 376.216 304.904 382.395 306.372 388.315C307.839 394.235 310.527 399.755 314.252 404.498C314.252 404.498 307.311 408.996 315.082 428.313C322.854 447.63 349.685 455.423 349.685 455.423L452.136 422.915C455.473 422.182 458.741 421.146 461.902 419.819L462.451 419.647V419.568C479.542 411.934 479.133 398.465 475.886 388.687C486.406 385.472 496.977 375.747 488.745 355.862Z" fill="#070000"/>
<path d="M355.168 447.048C355.168 447.048 347.78 417.715 327.43 424.344C305.7 431.396 327.801 494.652 355.833 466.55C355.833 466.55 368.436 493.792 413.111 493.356C454.117 492.946 475.886 474.833 477.458 456.561C478.89 440.089 468.395 438.779 469.469 427.083C470.543 415.387 472.128 403.572 464.778 392.127C464.778 392.127 468.127 408.335 450.372 408.758C432.617 409.182 413.814 399.894 413.814 399.894C413.814 399.894 417.892 411.801 404.189 413.931C390.486 416.062 375.173 399.444 375.173 399.444C375.173 399.444 382.369 412.675 377.857 421.685C373.345 430.695 359.846 436.252 355.168 447.048Z" fill="#94533F"/>
<path d="M328.402 441.412C328.402 441.412 332.978 436.503 337.592 440.684C342.207 444.865 349.659 455.41 349.659 455.41" stroke="#070000" stroke-width="2" stroke-linecap="round" stroke-linejoin="round"/>
<path d="M343.114 446.77C343.114 446.77 332.888 449.099 338.232 461.324" stroke="#070000" stroke-width="2" stroke-linecap="round" stroke-linejoin="round"/>
<path d="M435.902 446.836C435.902 446.836 446.307 437.575 449.618 443.555C452.928 449.535 442.869 453.968 442.869 453.968" stroke="#070000" stroke-width="2" stroke-linecap="round" stroke-linejoin="round"/>
<path d="M437.641 427.969C437.641 427.969 437.743 439.877 441.041 443.251" stroke="#070000" stroke-width="2" stroke-linecap="round" stroke-linejoin="round"/>
<path d="M410.67 459.326C410.67 459.326 416.435 466.167 422.813 465.518C422.813 465.518 417.905 477.836 411.884 477.519C405.863 477.201 410.67 459.326 410.67 459.326Z" fill="#FBFFFF"/>
<path d="M410.67 459.326C412.759 462.077 415.654 464.052 418.919 464.956C422.185 465.86 425.645 465.644 428.782 464.341" stroke="#070000" stroke-width="2" stroke-linecap="round" stroke-linejoin="round"/>
<path d="M408.113 439.401C408.113 439.401 410.567 434.307 415.885 434.413C421.203 434.519 422.903 437.919 422.903 437.919" stroke="#070000" stroke-width="2" stroke-linecap="round" stroke-linejoin="round"/>
<path d="M449.183 434.823C449.183 434.823 454.296 429.133 460.112 433.817" stroke="#070000" stroke-width="2" stroke-linecap="round" stroke-linejoin="round"/>
<path d="M406.311 420.454C406.311 420.454 409.571 417.332 416.831 416.577" stroke="#070000" stroke-width="2" stroke-linecap="round" stroke-linejoin="round"/>
<path d="M452.136 414.99C452.136 414.99 457.377 415.639 459.908 417.636" stroke="#070000" stroke-width="2" stroke-linecap="round" stroke-linejoin="round"/>
<path d="M390.614 519.553L340.328 486.688L352.701 477.916L396.698 510.027L390.614 519.553Z" fill="#46B17B"/>
<path d="M340.096 608.136C340.096 608.136 352.29 591.015 363.769 591.2L364.677 578.525C364.677 578.525 361.289 561.431 373.42 555.451C385.55 549.471 389.398 553.546 389.398 553.546C389.398 553.546 392.095 555.98 390.178 562.013C390.178 562.013 395.367 563.998 393.476 568.708C393.476 568.708 400.608 573.167 400.659 581.661C400.71 590.155 392.798 596.003 392.798 596.003C392.798 596.003 393.309 600.621 397.796 609.485C403.612 620.996 397.796 640.803 378.852 638.937C354.463 636.542 340.096 608.136 340.096 608.136Z" fill="#94533F"/>
<path d="M385.731 539.2L383.507 555.725" stroke="#070000" stroke-width="2" stroke-linecap="round" stroke-linejoin="round"/>
<path d="M412.139 510C409.074 508.583 405.675 508.123 402.361 508.677" stroke="#070000" stroke-width="2" stroke-linecap="round" stroke-linejoin="round"/>
<path d="M406.695 517.965L415.438 516.708" stroke="#070000" stroke-width="2" stroke-linecap="round" stroke-linejoin="round"/>
<path d="M410.951 525.943C410.951 525.943 416.818 523.297 422.033 525.626" stroke="#070000" stroke-width="2" stroke-linecap="round" stroke-linejoin="round"/>
<path d="M335.419 537.718L349.851 534.278L353.251 545.392L335.023 552.484L335.419 537.718Z" fill="#46B17B"/>
<path d="M429.779 525.745L428.526 511.958" stroke="#070000" stroke-width="2" stroke-linecap="round" stroke-linejoin="round"/>
<path d="M347.154 525.533L359.271 564.868" stroke="#070000" stroke-width="2" stroke-linecap="round" stroke-linejoin="round"/>
<path d="M306.403 504.165L313.063 478.524" stroke="#070000" stroke-width="2" stroke-linecap="round" stroke-linejoin="round"/>
<path d="M306.007 479.093C307.923 476.979 310.256 475.316 312.847 474.215C315.438 473.115 318.228 472.604 321.026 472.716C330.894 472.901 338.615 474.476 337.643 486.106C337.643 486.106 324.452 487.759 312.488 480.813" stroke="#070000" stroke-width="2" stroke-linecap="round" stroke-linejoin="round"/>
<path d="M331.546 515.662C319.377 515.49 299.424 509.748 299.424 509.748C297.181 513.337 295.764 517.411 295.282 521.656C295.039 524.95 296.778 527.716 300.638 529.872C300.344 537.943 301.916 550.552 313.421 554.667C313.421 554.667 328.593 560.038 330.754 549.374C332.173 542.322 330.677 532.902 329.475 527.306C330.966 523.624 331.672 519.652 331.546 515.662Z" fill="#C1D57E"/>
<path d="M300.638 529.912L319.185 533.815C319.185 533.815 327.622 534.741 329.501 527.372" stroke="#070000" stroke-width="2" stroke-linecap="round" stroke-linejoin="round"/>
<path d="M313.203 522.397C313.353 523.076 313.305 523.785 313.065 524.435C312.826 525.085 312.406 525.647 311.858 526.05C311.309 526.453 310.658 526.679 309.986 526.699C309.314 526.719 308.652 526.532 308.082 526.163C307.513 525.793 307.062 525.257 306.787 524.622C306.511 523.987 306.424 523.282 306.536 522.596C306.647 521.91 306.953 521.274 307.414 520.767C307.875 520.261 308.471 519.907 309.126 519.751C310.005 519.545 310.928 519.708 311.692 520.204C312.456 520.699 312.999 521.488 313.203 522.397Z" stroke="#070000" stroke-width="2" stroke-linecap="round" stroke-linejoin="round"/>
<path d="M347.639 491.464L343.102 488.5" stroke="#070000" stroke-width="2" stroke-linecap="round" stroke-linejoin="round"/>
<path d="M355.961 480.31L350.49 476.037" stroke="#070000" stroke-width="2" stroke-linecap="round" stroke-linejoin="round"/>
<path d="M403.256 591.091C409 590.97 414.658 589.619 419.873 587.122" stroke="#070000" stroke-width="2" stroke-linecap="round" stroke-linejoin="round"/>
<path d="M262.802 430.933C262.802 430.933 251.029 423.828 241.545 434.347C232.06 444.865 234.591 481.567 258.481 487.825C258.481 487.825 267.071 491.358 269.385 485.351C271.698 479.344 276.032 488.196 284.161 485.351C292.291 482.507 304.319 472.927 300.433 442.245C297.123 416.194 268.656 418.827 262.802 430.933Z" fill="#EF7F7E"/>
<path d="M256.96 412.899C256.96 412.899 263.952 425.138 262.802 434.876" stroke="#070000" stroke-width="2" stroke-linecap="round" stroke-linejoin="round"/>
<path d="M256.96 434.876C256.96 434.876 264.464 436.847 269.538 432.904" stroke="#070000" stroke-width="2" stroke-linecap="round" stroke-linejoin="round"/>
<path d="M268.081 421.354C268.081 421.354 264.247 423.458 263.25 431.356C263.25 431.356 273.808 424.635 284.366 426.355C284.366 426.329 276.224 418.562 268.081 421.354Z" fill="#070000"/>
<path d="M268.081 421.354C268.081 421.354 274.945 422.016 276.339 428.592C277.732 435.167 289.633 445.302 300.625 437.853C300.625 437.853 296.305 432.72 296.1 427.057C295.896 421.394 280.672 410.532 268.081 421.354Z" fill="#46B17B"/>
<path d="M279.905 416.723C279.905 416.723 286.385 420.004 288.853 429.477C291.32 438.95 300.702 437.773 300.702 437.773" stroke="#070000" stroke-width="2" stroke-linecap="round" stroke-linejoin="round"/>
<path d="M249.329 475.6C249.329 475.6 253.535 481.647 259.951 482.573" stroke="#FBFFFF" stroke-width="2" stroke-linecap="round" stroke-linejoin="round"/>
<path d="M590.583 177.908L593.727 178.781L590.583 179.654C589.444 179.97 588.415 180.616 587.618 181.516C586.821 182.416 586.289 183.533 586.083 184.735L584.895 191.562L583.719 184.735C583.513 183.533 582.981 182.416 582.184 181.516C581.387 180.616 580.358 179.97 579.219 179.654L576.075 178.781L579.219 177.908C580.359 177.589 581.388 176.941 582.185 176.039C582.982 175.136 583.514 174.018 583.719 172.814L584.895 166L586.083 172.827C586.29 174.029 586.823 175.144 587.62 176.044C588.417 176.944 589.444 177.59 590.583 177.908Z" fill="#FBFFFF"/>
<path d="M610.583 56.9077L613.727 57.7809L610.583 58.6542C609.444 58.9703 608.415 59.6162 607.618 60.5161C606.821 61.416 606.289 62.5326 606.083 63.7348L604.895 70.5618L603.719 63.7348C603.513 62.5326 602.981 61.416 602.184 60.5161C601.387 59.6162 600.358 58.9703 599.219 58.6542L596.075 57.7809L599.219 56.9077C600.359 56.5891 601.388 55.9408 602.185 55.0386C602.982 54.1364 603.514 53.0178 603.719 51.8138L604.895 45L606.083 51.8271C606.29 53.0286 606.823 54.1444 607.62 55.0441C608.417 55.9437 609.444 56.5901 610.583 56.9077Z" fill="#FBFFFF"/>
<path d="M542.099 313.642L545.244 314.515L542.099 315.389C540.961 315.706 539.933 316.353 539.136 317.252C538.34 318.152 537.807 319.268 537.6 320.469L536.424 327.309L535.235 320.469C535.028 319.268 534.495 318.152 533.698 317.252C532.902 316.353 531.874 315.706 530.736 315.389L527.591 314.515L530.736 313.642C531.874 313.325 532.902 312.678 533.698 311.778C534.495 310.879 535.028 309.763 535.235 308.561L536.424 301.721L537.6 308.561C537.807 309.763 538.34 310.879 539.136 311.778C539.933 312.678 540.961 313.325 542.099 313.642Z" fill="#FBFFFF"/>
<path d="M313.139 193.123L315.236 193.705L313.139 194.288C312.371 194.507 311.679 194.951 311.147 195.565C310.614 196.18 310.263 196.939 310.136 197.754L309.343 202.305L308.563 197.754C308.424 196.951 308.068 196.206 307.537 195.604C307.005 195.002 306.32 194.569 305.559 194.354L303.463 193.772L305.559 193.189C306.318 192.976 307.002 192.544 307.534 191.945C308.065 191.345 308.422 190.603 308.563 189.802L309.343 185.238L310.136 189.802C310.288 190.591 310.649 191.319 311.18 191.906C311.711 192.493 312.39 192.914 313.139 193.123Z" fill="#FBFFFF"/>
<path d="M458.839 211.89L461.971 212.763L458.839 213.636C457.697 213.954 456.667 214.602 455.867 215.504C455.068 216.406 454.534 217.525 454.327 218.73L453.151 225.557L451.975 218.73C451.768 217.529 451.235 216.413 450.438 215.513C449.642 214.613 448.614 213.967 447.476 213.65L444.331 212.776L447.476 211.903C448.615 211.587 449.643 210.941 450.44 210.041C451.237 209.141 451.77 208.025 451.975 206.822L453.151 199.995L454.327 206.822C454.537 208.023 455.073 209.137 455.872 210.035C456.671 210.932 457.7 211.575 458.839 211.89Z" fill="#FBFFFF"/>
<path d="M111.5 213.289L108.355 214.162L111.5 215.035C112.638 215.353 113.666 215.999 114.463 216.899C115.259 217.798 115.792 218.914 115.999 220.116L117.175 226.956L118.364 220.116C118.571 218.914 119.104 217.798 119.9 216.899C120.697 215.999 121.725 215.353 122.863 215.035L126.008 214.162L122.863 213.289C121.725 212.971 120.697 212.325 119.9 211.425C119.104 210.525 118.571 209.41 118.364 208.208L117.175 201.368L115.999 208.208C115.792 209.41 115.259 210.525 114.463 211.425C113.666 212.325 112.638 212.971 111.5 213.289Z" fill="#FBFFFF"/>
<path d="M174.863 12.819L172 12L174.863 11.181C175.899 10.8831 176.834 10.2769 177.56 9.43303C178.285 8.58921 178.77 7.54268 178.959 6.41573L180.029 0L181.1 6.41573C181.293 7.54249 181.781 8.58792 182.508 9.43118C183.235 10.2744 184.171 10.8811 185.207 11.181L188 12L185.149 12.819C184.112 13.1189 183.177 13.7256 182.45 14.5688C181.723 15.4121 181.235 16.4575 181.041 17.5843L179.971 24L178.9 17.5843C178.717 16.465 178.24 15.4239 177.526 14.5808C176.811 13.7377 175.888 13.127 174.863 12.819Z" fill="#FBFFFF"/>
<path d="M209.959 100.608L208 100.062L209.959 99.5163C210.677 99.3103 211.323 98.8946 211.821 98.3186C212.318 97.7426 212.646 97.0304 212.765 96.2667L213.506 92L214.235 96.2667C214.364 97.0192 214.697 97.7181 215.194 98.2823C215.69 98.8465 216.331 99.2528 217.041 99.4543L219 100L217.041 100.546C216.333 100.746 215.693 101.151 215.197 101.713C214.7 102.274 214.366 102.971 214.235 103.721L213.506 108L212.765 103.721C212.623 102.982 212.285 102.299 211.789 101.749C211.294 101.199 210.659 100.804 209.959 100.608Z" fill="#FBFFFF"/>
<path d="M73.0181 83.2976L70 82.5119L73.0181 81.7262C74.1186 81.4402 75.1119 80.8573 75.882 80.0456C76.6521 79.2339 77.1671 78.2271 77.3667 77.1429L78.5 71L79.6334 77.1429C79.8327 78.224 80.3463 79.2279 81.1141 80.0374C81.882 80.8469 82.8724 81.4285 83.9696 81.7143L87 82.5L83.9696 83.2857C82.8717 83.5702 81.8805 84.1514 81.1125 84.9611C80.3444 85.7708 79.8313 86.7755 79.6334 87.8571L78.5 94L77.3667 87.8571C77.1643 86.7767 76.6478 85.7743 75.8778 84.9669C75.1078 84.1595 74.116 83.5805 73.0181 83.2976Z" fill="#FBFFFF"/>
<path d="M805.863 43.819L803 43L805.863 42.181C806.899 41.8831 807.834 41.2769 808.56 40.433C809.285 39.5892 809.77 38.5427 809.959 37.4157L811.029 31L812.1 37.4157C812.293 38.5425 812.781 39.5879 813.508 40.4312C814.235 41.2744 815.171 41.8811 816.207 42.181L819 43L816.149 43.819C815.112 44.1189 814.177 44.7256 813.45 45.5688C812.723 46.4121 812.235 47.4575 812.041 48.5843L810.971 55L809.9 48.5843C809.717 47.465 809.24 46.4239 808.526 45.5808C807.811 44.7377 806.888 44.127 805.863 43.819Z" fill="#FBFFFF"/>
<path d="M840.959 131.608L839 131.062L840.959 130.516C841.677 130.31 842.323 129.895 842.821 129.319C843.318 128.743 843.646 128.03 843.765 127.267L844.506 123L845.235 127.267C845.364 128.019 845.697 128.718 846.194 129.282C846.69 129.846 847.331 130.253 848.041 130.454L850 131L848.041 131.546C847.333 131.746 846.693 132.151 846.197 132.713C845.7 133.274 845.366 133.971 845.235 134.721L844.506 139L843.765 134.721C843.623 133.982 843.285 133.299 842.789 132.749C842.294 132.199 841.659 131.804 840.959 131.608Z" fill="#FBFFFF"/>
<path d="M657.959 262.608L656 262.062L657.959 261.516C658.677 261.31 659.323 260.895 659.821 260.319C660.318 259.743 660.646 259.03 660.765 258.267L661.506 254L662.235 258.267C662.364 259.019 662.697 259.718 663.194 260.282C663.69 260.846 664.331 261.253 665.041 261.454L667 262L665.041 262.546C664.333 262.746 663.693 263.151 663.197 263.713C662.7 264.274 662.366 264.971 662.235 265.721L661.506 270L660.765 265.721C660.623 264.982 660.285 264.299 659.789 263.749C659.294 263.199 658.659 262.804 657.959 262.608Z" fill="#FBFFFF"/>
<path d="M506.959 29.6078L505 29.062L506.959 28.5163C507.677 28.3103 508.323 27.8946 508.821 27.3186C509.318 26.7426 509.646 26.0304 509.765 25.2667L510.506 21L511.235 25.2667C511.364 26.0192 511.697 26.7181 512.194 27.2823C512.69 27.8465 513.331 28.2528 514.041 28.4543L516 29L514.041 29.5457C513.333 29.7462 512.693 30.1507 512.197 30.7126C511.7 31.2744 511.366 31.9707 511.235 32.7209L510.506 37L509.765 32.7209C509.623 31.982 509.285 31.2989 508.789 30.7488C508.294 30.1987 507.659 29.8035 506.959 29.6078Z" fill="#FBFFFF"/>
<path d="M704.018 114.298L701 113.512L704.018 112.726C705.119 112.44 706.112 111.857 706.882 111.046C707.652 110.234 708.167 109.227 708.367 108.143L709.5 102L710.633 108.143C710.833 109.224 711.346 110.228 712.114 111.037C712.882 111.847 713.872 112.429 714.97 112.714L718 113.5L714.97 114.286C713.872 114.57 712.881 115.151 712.112 115.961C711.344 116.771 710.831 117.775 710.633 118.857L709.5 125L708.367 118.857C708.164 117.777 707.648 116.774 706.878 115.967C706.108 115.159 705.116 114.581 704.018 114.298Z" fill="#FBFFFF"/>
<path d="M1023.78 180.579L1027 181.5L1023.78 182.421C1022.61 182.756 1021.56 183.439 1020.75 184.388C1019.93 185.337 1019.38 186.514 1019.17 187.782L1017.97 195L1016.76 187.782C1016.55 186.515 1016 185.339 1015.18 184.39C1014.36 183.441 1013.31 182.759 1012.14 182.421L1009 181.5L1012.21 180.579C1013.37 180.241 1014.43 179.559 1015.24 178.61C1016.06 177.661 1016.61 176.485 1016.83 175.218L1018.03 168L1019.24 175.218C1019.44 176.477 1019.98 177.648 1020.78 178.597C1021.59 179.545 1022.63 180.232 1023.78 180.579Z" fill="#FBFFFF"/>
<path d="M998.863 89.3163L1001 89.9302L998.863 90.5442C998.08 90.7759 997.375 91.2436 996.832 91.8916C996.289 92.5396 995.932 93.3408 995.801 94.2L994.993 99L994.199 94.2C994.057 93.3534 993.694 92.5672 993.152 91.9324C992.61 91.2977 991.912 90.8406 991.137 90.614L989 90L991.137 89.386C991.91 89.1605 992.607 88.7054 993.149 88.0733C993.691 87.4413 994.055 86.658 994.199 85.814L994.993 81L995.801 85.814C995.956 86.6453 996.325 87.4137 996.866 88.0326C997.407 88.6514 998.099 89.096 998.863 89.3163Z" fill="#FBFFFF"/>
<path d="M399.15 81.819L402 81L399.15 80.181C398.118 79.8831 397.187 79.2768 396.464 78.433C395.742 77.5892 395.259 76.5427 395.072 75.4157L394.006 69L392.928 75.4157C392.741 76.5427 392.258 77.5892 391.536 78.433C390.813 79.2768 389.882 79.8831 388.85 80.181L386 81L388.85 81.819C389.882 82.1169 390.813 82.7232 391.536 83.567C392.258 84.4108 392.741 85.4573 392.928 86.5843L394.006 93L395.072 86.5843C395.259 85.4573 395.742 84.4108 396.464 83.567C397.187 82.7232 398.118 82.1169 399.15 81.819Z" fill="#FBFFFF"/>
</svg>
